<?xml version="1.0" standalone="no"?>
<!DOCTYPE svg PUBLIC "-//W3C//DTD SVG 1.1//EN" "http://www.w3.org/Graphics/SVG/1.1/DTD/svg11.dtd" >
<svg xmlns="http://www.w3.org/2000/svg" xmlns:xlink="http://www.w3.org/1999/xlink" version="1.1">
<metadata>
Created by FontForge 20160407 at Wed Aug 31 16:37:34 2016
 By Jimmy Warting
Designed by Mike Abbink, Paul van der Laan &#38; Pieter van Rosmalen 2010. Produced by Bold Monday. For exclusive use by NBCUniversal and its affiliates only.
</metadata>
<defs>
<font id="Rock-SansBold" horiz-adv-x="546" >
  <font-face 
    font-family="Rock Sans"
    font-weight="700"
    font-stretch="normal"
    units-per-em="1000"
    panose-1="2 11 8 0 0 0 0 0 0 0"
    ascent="771"
    descent="-229"
    x-height="480"
    cap-height="700"
    bbox="-72 -227 3442 947"
    underline-thickness="20"
    underline-position="-133"
    stemh="134"
    stemv="150"
    unicode-range="U+0020-FB02"
  />
<missing-glyph horiz-adv-x="271" 
d="M48 -210v920h175v-920h-175z" />
    <glyph glyph-name="fi" unicode="fi" horiz-adv-x="629" 
d="M94 0v359h-80v121h80v42c0 165 77 247 229 247c83 0 155 -24 200 -83l-85 -108c-21 33 -58 60 -109 60c-62 0 -85 -33 -85 -107v-51h315v-480h-150v369h-165v-369h-150z" />
    <glyph glyph-name="fl" unicode="fl" horiz-adv-x="619" 
d="M94 0v359h-80v121h80v42c0 171 87 247 229 247c65 0 126 -20 218 -20l8 -10v-739h-150v630c-17 7 -42 12 -65 12c-64 0 -90 -36 -90 -111v-51h91v-121h-91v-359h-150z" />
    <glyph glyph-name="f_b" unicode="fb" horiz-adv-x="946" 
d="M94 0v359h-80v121h80v42c0 171 87 247 229 247c65 0 126 -20 218 -20l8 -10v-329c32 49 77 82 156 82c116 0 209 -98 209 -251c0 -154 -91 -253 -208 -253c-85 0 -134 40 -161 90v-78h-146v630c-17 7 -42 12 -65 12c-64 0 -90 -36 -90 -111v-51h91v-121h-91v-359h-150z
M651 109c63 0 107 47 107 131s-44 131 -107 131s-107 -47 -107 -131s44 -131 107 -131z" />
    <glyph glyph-name="f_h" unicode="fh" horiz-adv-x="933" 
d="M94 0v359h-80v121h80v42c0 171 87 247 229 247c65 0 126 -20 218 -20l8 -10v-337c23 50 84 90 157 90c104 0 164 -70 164 -190v-302h-150v269c0 55 -25 94 -79 94c-64 0 -92 -45 -92 -102v-261h-150v630c-17 7 -42 12 -65 12c-64 0 -90 -36 -90 -111v-51h91v-121h-91
v-359h-150z" />
    <glyph glyph-name="f_j" unicode="fj" horiz-adv-x="629" 
d="M94 0v359h-80v121h80v42c0 165 77 247 229 247c83 0 155 -24 200 -83l-85 -108c-21 33 -58 60 -109 60c-62 0 -85 -33 -85 -107v-51h315v-483c0 -126 -45 -224 -196 -224c-40 0 -74 7 -96 16l27 124c10 -6 28 -12 47 -12c48 0 68 40 68 87v381h-165v-369h-150z" />
    <glyph glyph-name="f_k" unicode="fk" horiz-adv-x="890" 
d="M94 0v359h-80v121h80v42c0 171 87 247 229 247c65 0 124 -20 216 -20l10 -10v-447l153 188h163v-10l-181 -201c87 -68 156 -169 196 -259v-10h-169c-16 57 -68 127 -118 168l-44 -49v-119h-150v630c-17 7 -42 12 -65 12c-64 0 -90 -36 -90 -111v-51h91v-121h-91v-359
h-150z" />
    <glyph glyph-name=".notdef" horiz-adv-x="271" 
d="M48 -210v920h175v-920h-175z" />
    <glyph glyph-name="Eth" unicode="&#xd0;" horiz-adv-x="765" 
d="M94 0v288h-76v132h76v280h228c236 0 399 -118 399 -348s-162 -352 -399 -352h-228zM256 134h61c158 0 241 68 241 217s-83 215 -241 215h-61v-150h130v-124h-130v-158z" />
    <glyph glyph-name="eth" unicode="&#xf0;" horiz-adv-x="586" 
d="M301 -12c-163 0 -271 104 -271 260c0 157 109 244 237 244c47 0 87 -13 115 -41c-16 52 -41 96 -72 131l-148 -54l-27 72l113 41c-32 28 -66 49 -99 63l51 62c54 -14 109 -43 157 -85l147 54l27 -72l-115 -42c86 -96 140 -223 140 -344c0 -180 -99 -289 -255 -289z
M293 103c65 0 107 52 107 137s-41 137 -109 137c-63 0 -105 -45 -105 -134s42 -140 107 -140z" />
    <glyph glyph-name="Lslash" unicode="&#x141;" horiz-adv-x="571" 
d="M97 0v272l-49 -18v121l49 18v307h162v-248l146 53v-121l-146 -53v-197h292v-134h-454z" />
    <glyph glyph-name="lslash" unicode="&#x142;" horiz-adv-x="326" 
d="M88 0v287l-66 -25v123l66 25v347h150v-291l66 25v-123l-66 -25v-343h-150z" />
    <glyph glyph-name="Scaron" unicode="&#x160;" horiz-adv-x="658" 
d="M315 -12c-123 0 -223 37 -281 78l68 130c44 -36 116 -75 218 -75c95 0 136 34 136 80c0 60 -69 69 -149 81c-112 17 -245 37 -245 204c0 150 109 226 286 226c109 0 204 -29 262 -99l-92 -110c-28 45 -85 76 -174 76c-79 0 -119 -25 -119 -71c0 -61 69 -68 150 -81
c110 -17 241 -39 241 -203c0 -166 -131 -236 -301 -236zM324 737l-169 157l32 46l142 -66l142 66l32 -46l-169 -157h-10z" />
    <glyph glyph-name="scaron" unicode="&#x161;" horiz-adv-x="486" 
d="M231 -12c-84 0 -169 22 -221 65l70 102c34 -28 94 -55 157 -55c50 0 68 17 68 40c0 43 -66 44 -121 54c-77 14 -147 48 -147 144c0 115 99 154 213 154c78 0 147 -14 201 -72l-79 -95c-21 36 -80 55 -122 55c-39 0 -60 -11 -60 -33c0 -40 64 -40 116 -50
c77 -14 152 -48 152 -144c0 -103 -87 -165 -227 -165zM238 522l-169 157l32 46l142 -66l142 66l32 -46l-169 -157h-10z" />
    <glyph glyph-name="Yacute" unicode="&#xdd;" horiz-adv-x="701" 
d="M272 0v263l-270 427v10h173l178 -297h2l183 297h161v-10l-265 -427v-263h-162zM293 741l-36 45l151 161l79 -115z" />
    <glyph glyph-name="yacute" unicode="&#xfd;" horiz-adv-x="529" 
d="M89 -227c-41 0 -80 13 -103 27l40 122c10 -9 36 -18 55 -18c53 0 72 20 95 80l14 36l-192 450v10h155l110 -283h2l109 283h157v-10l-230 -534c-45 -105 -102 -163 -212 -163zM204 526l-36 45l151 161l79 -115z" />
    <glyph glyph-name="Thorn" unicode="&#xde;" horiz-adv-x="695" 
d="M84 0v700h162v-110h109c210 0 304 -75 304 -225c0 -158 -115 -235 -314 -235h-99v-130h-162zM246 254h106c93 0 136 33 136 105c0 71 -43 102 -136 102h-106v-207z" />
    <glyph glyph-name="thorn" unicode="&#xfe;" horiz-adv-x="617" 
d="M70 -215v972h150v-347c32 49 77 82 156 82c116 0 209 -98 209 -252s-94 -252 -210 -252c-79 0 -123 36 -155 85v-288h-150zM322 109c63 0 107 47 107 131s-44 131 -107 131s-107 -47 -107 -131s44 -131 107 -131z" />
    <glyph glyph-name="Zcaron" unicode="&#x17d;" horiz-adv-x="666" 
d="M11 0l-3 10l370 557h-322v133h581l3 -10l-370 -557h349v-133h-608zM342 737l-169 157l32 46l142 -66l142 66l32 -46l-169 -157h-10z" />
    <glyph glyph-name="zcaron" unicode="&#x17e;" horiz-adv-x="494" 
d="M8 0l-2 10l238 349h-201v121h433l2 -10l-238 -349h226v-121h-458zM269 522l-169 157l32 46l142 -66l142 66l32 -46l-169 -157h-10z" />
    <glyph glyph-name="brokenbar" unicode="&#xa6;" horiz-adv-x="345" 
d="M117 384v358h111v-358h-111zM117 -172v358h111v-358h-111z" />
    <glyph glyph-name="minus" unicode="&#x2212;" 
d="M27 239v117h492v-117h-492z" />
    <glyph glyph-name="multiply" unicode="&#xd7;" 
d="M134 76l-83 83l138 138l-138 138l83 83l138 -138l139 139l83 -83l-139 -139l139 -139l-83 -83l-139 139z" />
    <glyph glyph-name="space" unicode=" " horiz-adv-x="240" 
 />
    <glyph glyph-name="exclam" unicode="!" horiz-adv-x="344" 
d="M154 201l-93 512l7 19h208l7 -19l-93 -512h-36zM172 -10c-47 0 -89 36 -89 87s42 87 89 87s89 -36 89 -87s-42 -87 -89 -87z" />
    <glyph glyph-name="quotedbl" unicode="&#x22;" horiz-adv-x="498" 
d="M120 460l-63 261l5 11h162l5 -11l-63 -261h-46zM332 460l-63 261l5 11h162l5 -11l-63 -261h-46z" />
    <glyph glyph-name="numbersign" unicode="#" horiz-adv-x="706" 
d="M127 44l16 138h-106l12 104h106l14 120h-112l12 104h112l16 131h119l-15 -131h143l16 131h119l-15 -131h107l-12 -104h-107l-14 -120h113l-12 -104h-113l-16 -138h-120l16 138h-143l-16 -138h-120zM275 286h143l14 120h-143z" />
    <glyph glyph-name="dollar" unicode="$" horiz-adv-x="583" 
d="M252 -68v67c-91 2 -174 27 -229 64l57 110c47 -36 100 -59 178 -60v182l-20 5c-103 26 -215 63 -215 192c0 127 97 193 229 206v62h78v-60c90 -5 172 -36 220 -103l-78 -92c-32 45 -73 75 -148 81v-170l19 -5c102 -27 216 -63 216 -191c0 -127 -98 -199 -229 -217v-71
h-78zM178 512c0 -42 33 -63 80 -79v151c-48 -6 -80 -27 -80 -72zM405 198c0 40 -33 62 -81 78v-158c51 11 81 36 81 80z" />
    <glyph glyph-name="percent" unicode="%" horiz-adv-x="1115" 
d="M260 278c-126 0 -220 87 -220 217c0 128 96 217 220 217c126 0 220 -87 220 -217c0 -128 -96 -217 -220 -217zM260 385c58 0 91 44 91 110s-33 110 -91 110s-91 -44 -91 -110s33 -110 91 -110zM240 0l-2 10l526 690h118l2 -10l-526 -690h-118zM855 -12
c-126 0 -220 87 -220 217c0 128 96 217 220 217c126 0 220 -87 220 -217c0 -128 -96 -217 -220 -217zM855 95c58 0 91 44 91 110s-33 110 -91 110s-91 -44 -91 -110s33 -110 91 -110z" />
    <glyph glyph-name="ampersand" unicode="&#x26;" horiz-adv-x="824" 
d="M303 -12c-173 0 -268 90 -268 205c0 102 75 164 147 189c-52 54 -65 91 -65 139c0 126 100 191 244 191c62 0 161 -12 226 -83l-91 -109c-30 41 -84 62 -129 62c-52 0 -82 -28 -82 -63s29 -60 73 -101l174 -163c14 29 21 66 21 113c0 35 -6 61 -12 77v10h233v-130h-82
c-7 -54 -35 -107 -70 -154l172 -161v-10h-199l-67 61c-49 -45 -126 -73 -225 -73zM335 118c33 0 72 4 104 26l-182 168c-35 -24 -50 -60 -50 -92c0 -45 29 -102 128 -102z" />
    <glyph glyph-name="quotesingle" unicode="'" horiz-adv-x="286" 
d="M120 460l-63 261l5 11h162l5 -11l-63 -261h-46z" />
    <glyph glyph-name="parenleft" unicode="(" horiz-adv-x="442" 
d="M62 285c0 237 138 415 324 466l34 -36c-117 -75 -213 -198 -213 -430s96 -355 213 -430l-34 -36c-186 51 -324 229 -324 466z" />
    <glyph glyph-name="parenright" unicode=")" horiz-adv-x="442" 
d="M380 285c0 -237 -138 -415 -324 -466l-34 36c117 75 213 198 213 430s-96 355 -213 430l34 36c186 -51 324 -229 324 -466z" />
    <glyph glyph-name="asterisk" unicode="*" horiz-adv-x="544" 
d="M203 278l-122 89l2 13l136 104l-171 4l-10 9l47 144l13 2l141 -99l-49 166l6 12h151l6 -12l-50 -166l142 99l13 -2l47 -144l-10 -9l-172 -4l137 -104l2 -13l-122 -89l-12 6l-57 162l-56 -162z" />
    <glyph glyph-name="plus" unicode="+" 
d="M207 61v178h-180v117h180v177h132v-177h180v-117h-180v-178h-132z" />
    <glyph glyph-name="comma" unicode="," horiz-adv-x="280" 
d="M143 188c52 0 98 -40 98 -110c0 -103 -65 -186 -141 -236l-55 43v6c35 24 81 64 86 109c-45 7 -86 45 -86 93c0 55 45 95 98 95z" />
    <glyph glyph-name="hyphen" unicode="-" horiz-adv-x="380" 
d="M45 229v132h290v-132h-290z" />
    <glyph glyph-name="period" unicode="." horiz-adv-x="280" 
d="M140 -10c-54 0 -101 41 -101 99s47 99 101 99s101 -41 101 -99s-47 -99 -101 -99z" />
    <glyph glyph-name="slash" unicode="/" horiz-adv-x="455" 
d="M-5 -172l-3 10l317 904h106l3 -10l-317 -904h-106z" />
    <glyph glyph-name="zero" unicode="0" horiz-adv-x="734" 
d="M367 -12c-197 0 -312 146 -312 362c0 213 119 362 312 362c197 0 312 -146 312 -362c0 -213 -119 -362 -312 -362zM367 122c93 0 141 69 141 228s-48 228 -141 228s-141 -69 -141 -228s48 -228 141 -228z" />
    <glyph glyph-name="one" unicode="1" horiz-adv-x="455" 
d="M167 0v562h-124v10l33 128h253v-700h-162z" />
    <glyph glyph-name="two" unicode="2" horiz-adv-x="628" 
d="M10 0l-2 11c161 158 365 342 365 464c0 59 -40 100 -105 100c-56 0 -103 -25 -141 -62l-91 107c61 57 134 92 252 92c169 0 258 -85 258 -219c0 -132 -150 -280 -243 -363h288v-130h-581z" />
    <glyph glyph-name="three" unicode="3" horiz-adv-x="601" 
d="M258 -12c-103 0 -179 30 -242 90l91 107c41 -39 89 -60 152 -60c84 0 125 37 125 94c0 59 -44 98 -147 98c-28 0 -53 -3 -78 -8l-10 10l173 247h-271v134h514l9 -14l-194 -266c89 -15 176 -85 176 -204c0 -143 -125 -228 -298 -228z" />
    <glyph glyph-name="four" unicode="4" horiz-adv-x="733" 
d="M396 0v151h-378l-6 10l323 539h162l4 -10l-245 -405h140v91l149 154h9v-245h128v-134h-128v-151h-158z" />
    <glyph glyph-name="five" unicode="5" horiz-adv-x="625" 
d="M270 -12c-104 0 -185 32 -248 92l91 107c41 -39 90 -62 156 -62c82 0 131 36 131 100c0 63 -46 102 -154 102c-52 0 -121 -9 -154 -27l-13 10l50 390h417v-134h-288l-14 -118c26 4 56 7 80 7c154 0 248 -92 248 -224c0 -156 -131 -243 -302 -243z" />
    <glyph glyph-name="six" unicode="6" horiz-adv-x="682" 
d="M340 -12c-156 0 -286 91 -286 263c0 144 114 356 278 449h227v-10c-114 -43 -236 -149 -288 -263c30 22 76 30 128 30c116 0 224 -76 224 -222c0 -151 -129 -247 -283 -247zM340 121c67 0 114 46 114 114c0 65 -52 107 -114 107c-64 0 -117 -42 -117 -107
c0 -68 50 -114 117 -114z" />
    <glyph glyph-name="seven" unicode="7" horiz-adv-x="595" 
d="M118 0v10l260 556h-347v134h560v-10l-300 -690h-173z" />
    <glyph glyph-name="eight" unicode="8" horiz-adv-x="672" 
d="M336 -12c-193 0 -291 86 -291 212c0 81 50 145 124 169c-57 25 -104 74 -104 154c0 112 92 189 271 189c183 0 271 -74 271 -189c0 -80 -47 -129 -104 -154c74 -24 124 -88 124 -169c0 -123 -102 -212 -291 -212zM336 426c69 0 105 32 105 81s-36 79 -105 79
s-105 -30 -105 -79s36 -81 105 -81zM336 118c85 0 125 38 125 94s-40 94 -125 94s-125 -38 -125 -94s40 -94 125 -94z" />
    <glyph glyph-name="nine" unicode="9" horiz-adv-x="682" 
d="M123 0v10c114 43 236 149 288 263c-30 -22 -76 -30 -128 -30c-116 0 -224 76 -224 222c0 151 129 247 283 247c156 0 286 -91 286 -263c0 -144 -114 -356 -278 -449h-227zM342 358c64 0 117 42 117 107c0 68 -50 114 -117 114s-114 -46 -114 -114c0 -65 52 -107 114 -107
z" />
    <glyph glyph-name="colon" unicode=":" horiz-adv-x="320" 
d="M160 292c-54 0 -101 41 -101 99s47 99 101 99s101 -41 101 -99s-47 -99 -101 -99zM160 -10c-54 0 -101 41 -101 99s47 99 101 99s101 -41 101 -99s-47 -99 -101 -99z" />
    <glyph glyph-name="semicolon" unicode=";" horiz-adv-x="320" 
d="M160 292c-54 0 -101 41 -101 99s47 99 101 99s101 -41 101 -99s-47 -99 -101 -99zM163 188c52 0 98 -40 98 -110c0 -103 -65 -186 -141 -236l-55 43v6c35 24 81 64 86 109c-45 7 -86 45 -86 93c0 55 45 95 98 95z" />
    <glyph glyph-name="less" unicode="&#x3c;" 
d="M395 43l-341 249v8l341 249l73 -75l-220 -176v-2l221 -176z" />
    <glyph glyph-name="equal" unicode="=" 
d="M55 356v117h436v-117h-436zM55 122v117h436v-117h-436z" />
    <glyph glyph-name="greater" unicode="&#x3e;" 
d="M151 43l-74 77l221 176v2l-220 176l73 75l341 -249v-8z" />
    <glyph glyph-name="question" unicode="?" horiz-adv-x="510" 
d="M501 562c0 -115 -74 -182 -193 -236c-53 -24 -78 -35 -94 -87l-11 -37l-15 -1c-28 29 -64 82 -64 121c0 46 51 75 109 103c62 30 101 59 101 110c0 47 -34 67 -97 67c-79 0 -136 -32 -162 -54l-47 135c39 25 133 53 233 53c140 0 240 -55 240 -174zM204 -10
c-47 0 -89 36 -89 87s42 87 89 87s89 -36 89 -87s-42 -87 -89 -87z" />
    <glyph glyph-name="at" unicode="@" horiz-adv-x="936" 
d="M442 -147c-250 0 -396 153 -396 378c0 260 189 444 445 444c260 0 397 -152 397 -340s-112 -288 -240 -288c-63 0 -102 23 -121 69c-23 -39 -65 -69 -133 -69c-90 0 -149 72 -149 172c0 136 80 272 217 272c61 0 101 -32 112 -86l16 73h112l-65 -307
c-7 -34 -1 -70 37 -70c65 0 136 84 136 229c0 157 -107 280 -319 280c-196 0 -349 -153 -349 -375c0 -183 108 -320 296 -320c67 0 137 12 183 34l20 -47c-41 -24 -125 -49 -199 -49zM433 130c82 0 110 100 110 193c0 51 -18 85 -60 85c-82 0 -111 -100 -111 -193
c0 -51 19 -85 61 -85z" />
    <glyph glyph-name="A" unicode="A" horiz-adv-x="720" 
d="M8 0v10l360 721h10l334 -721v-10h-182l-34 84h-273l-36 -84h-179zM271 208h180l-86 207h-1z" />
    <glyph glyph-name="B" unicode="B" horiz-adv-x="735" 
d="M84 0v700h357c149 0 223 -75 223 -179c0 -94 -60 -137 -126 -153v-2c98 -17 155 -72 155 -171c0 -130 -97 -195 -256 -195h-353zM244 423h177c54 0 85 25 85 74c0 45 -27 75 -85 75h-177v-149zM244 130h174c66 0 113 22 113 87c0 60 -40 84 -113 84h-174v-171z" />
    <glyph glyph-name="C" unicode="C" horiz-adv-x="715" 
d="M412 -12c-208 0 -368 135 -368 363c0 224 154 361 367 361c139 0 229 -59 274 -142l-111 -98c-24 57 -74 105 -160 105c-115 0 -199 -84 -199 -226c0 -141 82 -228 203 -228c83 0 137 40 167 81l94 -111c-56 -60 -147 -105 -267 -105z" />
    <glyph glyph-name="D" unicode="D" horiz-adv-x="755" 
d="M84 0v700h228c236 0 399 -118 399 -348s-162 -352 -399 -352h-228zM246 134h61c158 0 241 68 241 217s-83 215 -241 215h-61v-432z" />
    <glyph glyph-name="E" unicode="E" horiz-adv-x="648" 
d="M84 0v700h508v-134h-346v-142h285v-127h-285v-163h346v-134h-508z" />
    <glyph glyph-name="F" unicode="F" horiz-adv-x="620" 
d="M84 0v700h508v-134h-346v-154h255v-136h-255v-276h-162z" />
    <glyph glyph-name="G" unicode="G" horiz-adv-x="777" 
d="M414 -12c-207 0 -370 134 -370 361c0 231 168 363 381 363c121 0 216 -43 268 -105l-94 -111c-30 41 -87 80 -171 80c-123 0 -213 -83 -213 -227c0 -140 86 -226 209 -226c51 0 97 15 127 40v191h162v-239c-47 -55 -148 -127 -299 -127z" />
    <glyph glyph-name="H" unicode="H" horiz-adv-x="798" 
d="M84 0v700h162v-274h306v274h162v-700h-162v292h-306v-292h-162z" />
    <glyph glyph-name="I" unicode="I" horiz-adv-x="330" 
d="M84 0v700h162v-700h-162z" />
    <glyph glyph-name="J" unicode="J" horiz-adv-x="550" 
d="M223 -12c-95 0 -172 37 -211 84l93 107c26 -30 58 -51 106 -51c66 0 103 41 103 113v325h-209v134h371v-457c0 -158 -100 -255 -253 -255z" />
    <glyph glyph-name="K" unicode="K" horiz-adv-x="717" 
d="M84 0v700h162v-300l241 300h189v-10l-248 -286c134 -87 208 -241 279 -394v-10h-185c-23 77 -109 237 -194 288l-82 -94v-194h-162z" />
    <glyph glyph-name="L" unicode="L" horiz-adv-x="558" 
d="M84 0v700h162v-566h292v-134h-454z" />
    <glyph glyph-name="M" unicode="M" horiz-adv-x="950" 
d="M84 0v728h10l380 -393l382 393h10v-728h-156v380l-233 -247h-6l-231 245v-378h-156z" />
    <glyph glyph-name="N" unicode="N" horiz-adv-x="815" 
d="M84 0v732h10l490 -442v410h147v-727h-10l-490 443v-416h-147z" />
    <glyph glyph-name="O" unicode="O" horiz-adv-x="826" 
d="M413 -12c-212 0 -369 148 -369 362c0 211 161 362 369 362c212 0 369 -148 369 -362c0 -211 -161 -362 -369 -362zM413 124c117 0 197 88 197 226s-80 226 -197 226s-197 -88 -197 -226s80 -226 197 -226z" />
    <glyph glyph-name="P" unicode="P" horiz-adv-x="695" 
d="M84 0v700h271c210 0 304 -75 304 -225c0 -158 -115 -235 -314 -235h-99v-240h-162zM246 364h106c93 0 136 33 136 105c0 71 -43 102 -136 102h-106v-207z" />
    <glyph glyph-name="Q" unicode="Q" horiz-adv-x="826" 
d="M556 -142l-86 112c-11 15 -25 18 -44 18h-8c-217 0 -374 148 -374 362c0 211 161 362 369 362c212 0 369 -148 369 -362c0 -145 -76 -261 -191 -320c18 -8 36 -23 54 -42l113 -120v-10h-202zM413 124c117 0 197 88 197 226s-80 226 -197 226s-197 -88 -197 -226
s80 -226 197 -226z" />
    <glyph glyph-name="R" unicode="R" horiz-adv-x="721" 
d="M84 0v700h271c200 0 304 -65 304 -213c0 -122 -70 -182 -178 -203c100 -41 167 -161 196 -274v-10h-176c-11 105 -88 211 -175 243h-80v-243h-162zM246 364h107c92 0 135 37 135 104c0 66 -41 107 -135 107h-107v-211z" />
    <glyph glyph-name="S" unicode="S" horiz-adv-x="658" 
d="M315 -12c-123 0 -223 37 -281 78l68 130c44 -36 116 -75 218 -75c95 0 136 34 136 80c0 60 -69 69 -149 81c-112 17 -245 37 -245 204c0 150 109 226 286 226c109 0 204 -29 262 -99l-92 -110c-28 45 -85 76 -174 76c-79 0 -119 -25 -119 -71c0 -61 69 -68 150 -81
c110 -17 241 -39 241 -203c0 -166 -131 -236 -301 -236z" />
    <glyph glyph-name="T" unicode="T" horiz-adv-x="642" 
d="M240 0v567h-220v133h602v-133h-220v-567h-162z" />
    <glyph glyph-name="U" unicode="U" horiz-adv-x="746" 
d="M373 -12c-176 0 -301 95 -301 289v423h158v-427c0 -103 53 -150 143 -150s141 49 141 150v427h160v-423c0 -194 -126 -289 -301 -289z" />
    <glyph glyph-name="V" unicode="V" horiz-adv-x="740" 
d="M369 -17l-359 707v10h174l193 -407h1l190 407h162v-10l-351 -707h-10z" />
    <glyph glyph-name="W" unicode="W" horiz-adv-x="1086" 
d="M339 -17l-325 707v10h165l168 -390h1l191 404h10l190 -404h1l168 390h164v-10l-324 -707h-10l-196 432l-193 -432h-10z" />
    <glyph glyph-name="X" unicode="X" horiz-adv-x="721" 
d="M10 0v10l261 349l-232 331v10h188l139 -212l142 212h174v-10l-230 -316l259 -364v-10h-189l-164 245l-174 -245h-174z" />
    <glyph glyph-name="Y" unicode="Y" horiz-adv-x="701" 
d="M272 0v263l-270 427v10h173l178 -297h2l183 297h161v-10l-265 -427v-263h-162z" />
    <glyph glyph-name="Z" unicode="Z" horiz-adv-x="666" 
d="M11 0l-3 10l370 557h-322v133h581l3 -10l-370 -557h349v-133h-608z" />
    <glyph glyph-name="bracketleft" unicode="[" horiz-adv-x="442" 
d="M113 -172v914h258v-60l-127 -22v-750l127 -22v-60h-258z" />
    <glyph glyph-name="backslash" unicode="\" horiz-adv-x="455" 
d="M354 -172l-317 904l3 10h106l317 -904l-3 -10h-106z" />
    <glyph glyph-name="bracketright" unicode="]" horiz-adv-x="442" 
d="M71 -172v60l127 22v750l-127 22v60h258v-914h-258z" />
    <glyph glyph-name="asciicircum" unicode="^" 
d="M37 297v6l231 417h8l233 -417v-6h-127l-108 207h-2l-108 -207h-127z" />
    <glyph glyph-name="underscore" unicode="_" horiz-adv-x="446" 
d="M0 -117v117h446v-117h-446z" />
    <glyph glyph-name="grave" unicode="`" horiz-adv-x="440" 
d="M280 526l-194 91l79 115l151 -161z" />
    <glyph glyph-name="a" unicode="a" horiz-adv-x="536" 
d="M179 -12c-87 0 -155 55 -155 140c0 106 75 156 237 159c52 1 66 12 66 39c0 25 -24 50 -87 50c-67 0 -101 -31 -122 -50l-78 92c45 45 118 74 215 74c154 0 221 -64 221 -187v-238c0 -25 4 -33 17 -46l11 -11v-10h-174v67c-23 -46 -79 -79 -151 -79zM234 94
c57 0 93 43 93 90v33c-8 -3 -31 -6 -63 -8c-67 -4 -90 -28 -90 -62c0 -29 17 -53 60 -53z" />
    <glyph glyph-name="b" unicode="b" horiz-adv-x="617" 
d="M377 -12c-85 0 -134 40 -161 90v-78h-146v757h150v-347c32 49 77 82 156 82c116 0 209 -98 209 -251c0 -154 -91 -253 -208 -253zM322 109c63 0 107 47 107 131s-44 131 -107 131s-107 -47 -107 -131s44 -131 107 -131z" />
    <glyph glyph-name="c" unicode="c" horiz-adv-x="513" 
d="M290 -12c-161 0 -262 109 -262 250c0 136 93 254 262 254c93 0 164 -36 205 -102l-91 -89c-21 36 -54 70 -106 70c-65 0 -114 -52 -114 -129c0 -81 53 -133 120 -133c52 0 83 23 103 45l83 -98c-37 -38 -107 -68 -200 -68z" />
    <glyph glyph-name="d" unicode="d" horiz-adv-x="617" 
d="M240 -12c-117 0 -208 100 -208 254c0 153 93 250 209 250c79 0 124 -33 156 -82v347h150v-757h-146v78c-27 -50 -76 -90 -161 -90zM295 109c63 0 107 47 107 131s-44 131 -107 131s-107 -47 -107 -131s44 -131 107 -131z" />
    <glyph glyph-name="e" unicode="e" horiz-adv-x="550" 
d="M291 -12c-161 0 -263 96 -263 246s98 258 260 258c161 0 232 -106 232 -250c0 -17 -1 -33 -2 -43h-336c6 -47 48 -90 122 -90c47 0 83 18 103 40l83 -98c-43 -40 -119 -63 -199 -63zM278 380c-60 0 -94 -45 -98 -94h188c-3 51 -31 94 -90 94z" />
    <glyph glyph-name="f" unicode="f" horiz-adv-x="375" 
d="M94 0v359h-80v121h80v72c0 135 76 217 213 217c45 0 88 -9 120 -27l-42 -130c-21 19 -46 26 -69 26c-46 0 -72 -29 -72 -77v-81h129v-121h-129v-359h-150z" />
    <glyph glyph-name="g" unicode="g" horiz-adv-x="560" 
d="M247 -227c-148 0 -249 40 -249 121c0 54 46 86 107 100v2c-36 10 -60 42 -60 80c0 46 38 84 76 107c-52 29 -83 76 -83 139c0 116 108 170 236 170c31 0 59 -3 85 -9c3 56 54 120 133 120c30 0 57 -9 76 -20l-36 -103c-10 7 -23 12 -41 12c-30 0 -52 -13 -63 -36
c48 -29 76 -75 76 -134c0 -107 -92 -173 -231 -173c-31 0 -59 3 -84 9c-13 -11 -23 -25 -23 -38c0 -17 16 -29 53 -29h144c139 0 207 -53 207 -136c0 -112 -125 -182 -323 -182zM271 242c47 0 76 27 76 78s-29 76 -76 76c-45 0 -76 -24 -76 -76s31 -78 76 -78zM278 -135
c104 0 145 25 145 59c0 26 -19 39 -70 39h-149c-47 0 -63 -21 -63 -42c0 -33 47 -56 137 -56z" />
    <glyph glyph-name="h" unicode="h" horiz-adv-x="604" 
d="M70 0v757h150v-355c23 50 84 90 157 90c104 0 164 -70 164 -190v-302h-150v269c0 55 -25 94 -79 94c-64 0 -92 -45 -92 -102v-261h-150z" />
    <glyph glyph-name="i" unicode="i" horiz-adv-x="290" 
d="M145 551c-47 0 -89 36 -89 87s42 87 89 87s89 -36 89 -87s-42 -87 -89 -87zM70 0v480h150v-480h-150z" />
    <glyph glyph-name="j" unicode="j" horiz-adv-x="290" 
d="M145 551c-47 0 -89 36 -89 87s42 87 89 87s89 -36 89 -87s-42 -87 -89 -87zM24 -227c-40 0 -74 7 -96 16l27 124c10 -6 28 -12 47 -12c48 0 68 40 68 87v492h150v-483c0 -126 -45 -224 -196 -224z" />
    <glyph glyph-name="k" unicode="k" horiz-adv-x="561" 
d="M70 0v757h150v-465l153 188h163v-10l-181 -201c87 -68 156 -169 196 -259v-10h-169c-16 57 -68 127 -118 168l-44 -49v-119h-150z" />
    <glyph glyph-name="l" unicode="l" horiz-adv-x="290" 
d="M70 0v757h150v-757h-150z" />
    <glyph glyph-name="m" unicode="m" horiz-adv-x="903" 
d="M70 0v480h146v-83c23 54 90 95 161 95c77 0 123 -37 143 -105c31 60 86 105 167 105c104 0 153 -67 153 -187v-305h-150v270c0 60 -18 93 -70 93c-61 0 -90 -42 -90 -95v-268h-150v270c0 60 -18 93 -70 93c-62 0 -90 -46 -90 -103v-260h-150z" />
    <glyph glyph-name="n" unicode="n" horiz-adv-x="604" 
d="M70 0v480h146v-83c23 54 90 95 161 95c104 0 164 -70 164 -190v-302h-150v269c0 55 -25 94 -79 94c-64 0 -92 -45 -92 -102v-261h-150z" />
    <glyph glyph-name="o" unicode="o" horiz-adv-x="582" 
d="M291 -12c-154 0 -263 104 -263 251c0 148 109 253 263 253s263 -105 263 -253c0 -147 -109 -251 -263 -251zM291 103c65 0 107 53 107 138s-42 136 -107 136s-107 -51 -107 -136s42 -138 107 -138z" />
    <glyph glyph-name="p" unicode="p" horiz-adv-x="617" 
d="M70 -215v695h146v-74c27 50 75 86 160 86c117 0 209 -98 209 -252c0 -153 -94 -252 -210 -252c-79 0 -123 36 -155 85v-288h-150zM322 109c63 0 107 48 107 132s-44 130 -107 130s-107 -46 -107 -130s44 -132 107 -132z" />
    <glyph glyph-name="q" unicode="q" horiz-adv-x="617" 
d="M397 -215v286c-32 -49 -77 -83 -156 -83c-116 0 -209 99 -209 252c0 154 91 252 208 252c85 0 134 -35 161 -85v73h146v-695h-150zM295 111c63 0 107 46 107 130s-44 130 -107 130s-107 -46 -107 -130s44 -130 107 -130z" />
    <glyph glyph-name="r" unicode="r" horiz-adv-x="427" 
d="M70 0v480h146v-94c21 58 75 106 146 106c27 0 50 -7 63 -14l-39 -150c-16 14 -39 28 -72 28c-58 0 -94 -39 -94 -111v-245h-150z" />
    <glyph glyph-name="s" unicode="s" horiz-adv-x="486" 
d="M231 -12c-84 0 -169 22 -221 65l70 102c34 -28 94 -55 157 -55c50 0 68 17 68 40c0 43 -66 44 -121 54c-77 14 -147 48 -147 144c0 115 99 154 213 154c78 0 147 -14 201 -72l-79 -95c-21 36 -80 55 -122 55c-39 0 -60 -11 -60 -33c0 -40 64 -40 116 -50
c77 -14 152 -48 152 -144c0 -103 -87 -165 -227 -165z" />
    <glyph glyph-name="t" unicode="t" horiz-adv-x="400" 
d="M251 -12c-111 0 -164 64 -164 170v201h-71v121h71v93l140 100h9v-193h122v-121h-122v-175c0 -43 18 -65 54 -65c26 0 44 11 55 24l47 -119c-26 -19 -67 -36 -141 -36z" />
    <glyph glyph-name="u" unicode="u" horiz-adv-x="604" 
d="M227 -12c-104 0 -164 70 -164 190v302h150v-269c0 -55 25 -94 79 -94c64 0 92 45 92 102v261h150v-480h-146v83c-23 -54 -90 -95 -161 -95z" />
    <glyph glyph-name="v" unicode="v" horiz-adv-x="524" 
d="M257 -22l-259 492v10h158l109 -232h2l97 232h162v-10l-259 -492h-10z" />
    <glyph glyph-name="w" unicode="w" horiz-adv-x="765" 
d="M225 -22l-223 492v10h153l89 -219h2l131 249h10l131 -249h2l91 219h152v-10l-227 -492h-10l-143 278h-2l-146 -278h-10z" />
    <glyph glyph-name="x" unicode="x" horiz-adv-x="550" 
d="M2 0v10l188 235l-172 225v10h175l87 -119l91 119h162v-10l-173 -216l188 -244v-10h-176l-102 138l-106 -138h-162z" />
    <glyph glyph-name="y" unicode="y" horiz-adv-x="529" 
d="M89 -227c-41 0 -80 13 -103 27l40 122c10 -9 36 -18 55 -18c53 0 72 20 95 80l14 36l-192 450v10h155l110 -283h2l109 283h157v-10l-230 -534c-45 -105 -102 -163 -212 -163z" />
    <glyph glyph-name="z" unicode="z" horiz-adv-x="494" 
d="M8 0l-2 10l238 349h-201v121h433l2 -10l-238 -349h226v-121h-458z" />
    <glyph glyph-name="braceleft" unicode="{" horiz-adv-x="460" 
d="M122 84c0 43 6 80 6 106c0 54 -27 71 -85 71v48c58 0 85 17 85 71c0 26 -6 63 -6 106c0 200 115 244 284 265l19 -49c-85 -27 -162 -69 -162 -215c0 -38 5 -75 5 -103c0 -39 -10 -85 -68 -98v-2c58 -13 68 -59 68 -98c0 -28 -5 -65 -5 -103c0 -146 77 -188 162 -215
l-19 -49c-169 21 -284 65 -284 265z" />
    <glyph glyph-name="bar" unicode="|" horiz-adv-x="345" 
d="M117 -172v914h111v-914h-111z" />
    <glyph glyph-name="braceright" unicode="}" horiz-adv-x="460" 
d="M338 84c0 -200 -115 -244 -284 -265l-19 49c85 27 162 69 162 215c0 38 -5 75 -5 103c0 39 10 85 68 98v2c-58 13 -68 59 -68 98c0 28 5 65 5 103c0 146 -77 188 -162 215l19 49c169 -21 284 -65 284 -265c0 -43 -6 -80 -6 -106c0 -54 27 -71 85 -71v-48
c-58 0 -85 -17 -85 -71c0 -26 6 -63 6 -106z" />
    <glyph glyph-name="asciitilde" unicode="~" horiz-adv-x="550" 
d="M377 201c-90 0 -137 63 -192 63c-40 0 -62 -30 -77 -76l-84 23c7 115 56 184 149 184c90 0 137 -63 192 -63c40 0 62 30 77 76l84 -23c-7 -115 -56 -184 -149 -184z" />
    <glyph glyph-name="Adieresis" unicode="&#xc4;" horiz-adv-x="720" 
d="M8 0v10l360 721h10l334 -721v-10h-182l-34 84h-273l-36 -84h-179zM271 208h180l-86 207h-1zM265 753c-43 0 -82 33 -82 80s39 80 82 80s82 -33 82 -80s-39 -80 -82 -80zM481 753c-43 0 -82 33 -82 80s39 80 82 80s82 -33 82 -80s-39 -80 -82 -80z" />
    <glyph glyph-name="Aring" unicode="&#xc5;" horiz-adv-x="720" 
d="M8 0v10l296 594c-38 20 -62 58 -62 108c0 74 61 125 131 125c73 0 131 -49 131 -125c0 -50 -28 -89 -67 -110l275 -592v-10h-182l-34 84h-273l-36 -84h-179zM373 649c38 0 63 26 63 63s-25 63 -63 63s-63 -26 -63 -63s25 -63 63 -63zM271 208h180l-86 207h-1z" />
    <glyph glyph-name="Ccedilla" unicode="&#xc7;" horiz-adv-x="715" 
d="M363 -220c-28 0 -73 6 -107 39l33 47c17 -15 37 -26 61 -26c25 0 42 10 42 30c0 18 -17 30 -45 30c-18 0 -33 -1 -48 -6l-7 9l56 88c-176 24 -304 155 -304 359c0 224 154 362 367 362c139 0 229 -59 274 -142l-111 -98c-24 57 -74 105 -160 105
c-115 0 -199 -85 -199 -227c0 -141 82 -229 203 -229c83 0 137 40 167 81l94 -111c-56 -60 -146 -104 -266 -105l-23 -35c48 -2 91 -30 91 -82c0 -55 -50 -89 -118 -89z" />
    <glyph glyph-name="Eacute" unicode="&#xc9;" horiz-adv-x="648" 
d="M84 0v700h508v-134h-346v-142h285v-127h-285v-163h346v-134h-508zM262 741l-36 45l151 161l79 -115z" />
    <glyph glyph-name="Ntilde" unicode="&#xd1;" horiz-adv-x="815" 
d="M84 0v732h10l490 -442v410h147v-727h-10l-490 443v-416h-147zM480 749c-65 0 -98 50 -138 50c-28 0 -44 -24 -55 -60l-60 18c5 90 40 144 107 144c65 0 98 -50 138 -50c28 0 44 24 55 60l60 -18c-5 -90 -40 -144 -107 -144z" />
    <glyph glyph-name="Odieresis" unicode="&#xd6;" horiz-adv-x="826" 
d="M413 -12c-212 0 -369 148 -369 362c0 211 161 362 369 362c212 0 369 -148 369 -362c0 -211 -161 -362 -369 -362zM413 124c117 0 197 88 197 226s-80 226 -197 226s-197 -88 -197 -226s80 -226 197 -226zM305 753c-43 0 -82 33 -82 80s39 80 82 80s82 -33 82 -80
s-39 -80 -82 -80zM521 753c-43 0 -82 33 -82 80s39 80 82 80s82 -33 82 -80s-39 -80 -82 -80z" />
    <glyph glyph-name="Udieresis" unicode="&#xdc;" horiz-adv-x="746" 
d="M373 -12c-176 0 -301 95 -301 289v423h158v-427c0 -103 53 -150 143 -150s141 49 141 150v427h160v-423c0 -194 -126 -289 -301 -289zM262 753c-43 0 -82 33 -82 80s39 80 82 80s82 -33 82 -80s-39 -80 -82 -80zM478 753c-43 0 -82 33 -82 80s39 80 82 80s82 -33 82 -80
s-39 -80 -82 -80z" />
    <glyph glyph-name="aacute" unicode="&#xe1;" horiz-adv-x="536" 
d="M179 -12c-87 0 -155 55 -155 140c0 106 75 156 237 159c52 1 66 12 66 39c0 25 -24 50 -87 50c-67 0 -101 -31 -122 -50l-78 92c45 45 118 74 215 74c154 0 221 -64 221 -187v-238c0 -25 4 -33 17 -46l11 -11v-10h-174v67c-23 -46 -79 -79 -151 -79zM234 94
c57 0 93 43 93 90v33c-8 -3 -31 -6 -63 -8c-67 -4 -90 -28 -90 -62c0 -29 17 -53 60 -53zM193 526l-36 45l151 161l79 -115z" />
    <glyph glyph-name="agrave" unicode="&#xe0;" horiz-adv-x="536" 
d="M179 -12c-87 0 -155 55 -155 140c0 106 75 156 237 159c52 1 66 12 66 39c0 25 -24 50 -87 50c-67 0 -101 -31 -122 -50l-78 92c45 45 118 74 215 74c154 0 221 -64 221 -187v-238c0 -25 4 -33 17 -46l11 -11v-10h-174v67c-23 -46 -79 -79 -151 -79zM234 94
c57 0 93 43 93 90v33c-8 -3 -31 -6 -63 -8c-67 -4 -90 -28 -90 -62c0 -29 17 -53 60 -53zM313 526l-194 91l79 115l151 -161z" />
    <glyph glyph-name="acircumflex" unicode="&#xe2;" horiz-adv-x="536" 
d="M179 -12c-87 0 -155 55 -155 140c0 106 75 156 237 159c52 1 66 12 66 39c0 25 -24 50 -87 50c-67 0 -101 -31 -122 -50l-78 92c45 45 118 74 215 74c154 0 221 -64 221 -187v-238c0 -25 4 -33 17 -46l11 -11v-10h-174v67c-23 -46 -79 -79 -151 -79zM234 94
c57 0 93 43 93 90v33c-8 -3 -31 -6 -63 -8c-67 -4 -90 -28 -90 -62c0 -29 17 -53 60 -53zM111 522l-32 46l169 157h10l169 -157l-32 -46l-142 66z" />
    <glyph glyph-name="adieresis" unicode="&#xe4;" horiz-adv-x="536" 
d="M179 -12c-87 0 -155 55 -155 140c0 106 75 156 237 159c52 1 66 12 66 39c0 25 -24 50 -87 50c-67 0 -101 -31 -122 -50l-78 92c45 45 118 74 215 74c154 0 221 -64 221 -187v-238c0 -25 4 -33 17 -46l11 -11v-10h-174v67c-23 -46 -79 -79 -151 -79zM234 94
c57 0 93 43 93 90v33c-8 -3 -31 -6 -63 -8c-67 -4 -90 -28 -90 -62c0 -29 17 -53 60 -53zM145 538c-43 0 -82 33 -82 80s39 80 82 80s82 -33 82 -80s-39 -80 -82 -80zM361 538c-43 0 -82 33 -82 80s39 80 82 80s82 -33 82 -80s-39 -80 -82 -80z" />
    <glyph glyph-name="atilde" unicode="&#xe3;" horiz-adv-x="536" 
d="M179 -12c-87 0 -155 55 -155 140c0 106 75 156 237 159c52 1 66 12 66 39c0 25 -24 50 -87 50c-67 0 -101 -31 -122 -50l-78 92c45 45 118 74 215 74c154 0 221 -64 221 -187v-238c0 -25 4 -33 17 -46l11 -11v-10h-174v67c-23 -46 -79 -79 -151 -79zM234 94
c57 0 93 43 93 90v33c-8 -3 -31 -6 -63 -8c-67 -4 -90 -28 -90 -62c0 -29 17 -53 60 -53zM326 534c-65 0 -98 50 -138 50c-28 0 -44 -24 -55 -60l-60 18c5 90 40 144 107 144c65 0 98 -50 138 -50c28 0 44 24 55 60l60 -18c-5 -90 -40 -144 -107 -144z" />
    <glyph glyph-name="aring" unicode="&#xe5;" horiz-adv-x="536" 
d="M179 -12c-87 0 -155 55 -155 140c0 106 75 156 237 159c52 1 66 12 66 39c0 25 -24 50 -87 50c-67 0 -101 -31 -122 -50l-78 92c45 45 118 74 215 74c154 0 221 -64 221 -187v-238c0 -25 4 -33 17 -46l11 -11v-10h-174v67c-23 -46 -79 -79 -151 -79zM234 94
c57 0 93 43 93 90v33c-8 -3 -31 -6 -63 -8c-67 -4 -90 -28 -90 -62c0 -29 17 -53 60 -53zM253 521c-73 0 -131 49 -131 125c0 74 61 125 131 125c73 0 131 -49 131 -125c0 -74 -61 -125 -131 -125zM253 583c38 0 63 26 63 63s-25 63 -63 63s-63 -26 -63 -63s25 -63 63 -63z
" />
    <glyph glyph-name="ccedilla" unicode="&#xe7;" horiz-adv-x="515" 
d="M251 -220c-28 0 -73 6 -107 39l33 47c17 -15 37 -26 61 -26c25 0 42 10 42 30c0 18 -17 30 -45 30c-19 0 -38 -2 -48 -6l-7 9l56 88c-128 21 -206 120 -206 244c0 136 93 254 262 254c93 0 164 -36 205 -102l-91 -89c-21 36 -54 70 -106 70c-65 0 -114 -52 -114 -129
c0 -81 53 -132 120 -132c52 0 83 23 103 45l83 -98c-36 -37 -102 -66 -191 -68l-23 -35c48 -2 91 -30 91 -82c0 -55 -50 -89 -118 -89z" />
    <glyph glyph-name="eacute" unicode="&#xe9;" horiz-adv-x="550" 
d="M291 -12c-161 0 -263 96 -263 246s98 258 260 258c161 0 232 -106 232 -250c0 -17 -1 -33 -2 -43h-336c6 -47 48 -90 122 -90c47 0 83 18 103 40l83 -98c-43 -40 -119 -63 -199 -63zM278 380c-60 0 -94 -45 -98 -94h188c-3 51 -31 94 -90 94zM215 526l-36 45l151 161
l79 -115z" />
    <glyph glyph-name="egrave" unicode="&#xe8;" horiz-adv-x="550" 
d="M291 -12c-161 0 -263 96 -263 246s98 258 260 258c161 0 232 -106 232 -250c0 -17 -1 -33 -2 -43h-336c6 -47 48 -90 122 -90c47 0 83 18 103 40l83 -98c-43 -40 -119 -63 -199 -63zM278 380c-60 0 -94 -45 -98 -94h188c-3 51 -31 94 -90 94zM335 526l-194 91l79 115
l151 -161z" />
    <glyph glyph-name="ecircumflex" unicode="&#xea;" horiz-adv-x="550" 
d="M291 -12c-161 0 -263 96 -263 246s98 258 260 258c161 0 232 -106 232 -250c0 -17 -1 -33 -2 -43h-336c6 -47 48 -90 122 -90c47 0 83 18 103 40l83 -98c-43 -40 -119 -63 -199 -63zM278 380c-60 0 -94 -45 -98 -94h188c-3 51 -31 94 -90 94zM133 522l-32 46l169 157h10
l169 -157l-32 -46l-142 66z" />
    <glyph glyph-name="edieresis" unicode="&#xeb;" horiz-adv-x="550" 
d="M291 -12c-161 0 -263 96 -263 246s98 258 260 258c161 0 232 -106 232 -250c0 -17 -1 -33 -2 -43h-336c6 -47 48 -90 122 -90c47 0 83 18 103 40l83 -98c-43 -40 -119 -63 -199 -63zM278 380c-60 0 -94 -45 -98 -94h188c-3 51 -31 94 -90 94zM167 538
c-43 0 -82 33 -82 80s39 80 82 80s82 -33 82 -80s-39 -80 -82 -80zM383 538c-43 0 -82 33 -82 80s39 80 82 80s82 -33 82 -80s-39 -80 -82 -80z" />
    <glyph glyph-name="iacute" unicode="&#xed;" horiz-adv-x="290" 
d="M70 0v480h150v-480h-150zM84 526l-36 45l151 161l79 -115z" />
    <glyph glyph-name="igrave" unicode="&#xec;" horiz-adv-x="290" 
d="M70 0v480h150v-480h-150zM204 526l-194 91l79 115l151 -161z" />
    <glyph glyph-name="icircumflex" unicode="&#xee;" horiz-adv-x="290" 
d="M70 0v480h150v-480h-150zM2 522l-32 46l169 157h10l169 -157l-32 -46l-142 66z" />
    <glyph glyph-name="idieresis" unicode="&#xef;" horiz-adv-x="290" 
d="M70 0v480h150v-480h-150zM36 538c-43 0 -82 33 -82 80s39 80 82 80s82 -33 82 -80s-39 -80 -82 -80zM252 538c-43 0 -82 33 -82 80s39 80 82 80s82 -33 82 -80s-39 -80 -82 -80z" />
    <glyph glyph-name="ntilde" unicode="&#xf1;" horiz-adv-x="604" 
d="M70 0v480h146v-83c23 54 90 95 161 95c104 0 164 -70 164 -190v-302h-150v269c0 55 -25 94 -79 94c-64 0 -92 -45 -92 -102v-261h-150zM379 534c-65 0 -98 50 -138 50c-28 0 -44 -24 -55 -60l-60 18c5 90 40 144 107 144c65 0 98 -50 138 -50c28 0 44 24 55 60l60 -18
c-5 -90 -40 -144 -107 -144z" />
    <glyph glyph-name="oacute" unicode="&#xf3;" horiz-adv-x="582" 
d="M291 -12c-154 0 -263 104 -263 251c0 148 109 253 263 253s263 -105 263 -253c0 -147 -109 -251 -263 -251zM291 103c65 0 107 53 107 138s-42 136 -107 136s-107 -51 -107 -136s42 -138 107 -138zM231 526l-36 45l151 161l79 -115z" />
    <glyph glyph-name="ograve" unicode="&#xf2;" horiz-adv-x="582" 
d="M291 -12c-154 0 -263 104 -263 251c0 148 109 253 263 253s263 -105 263 -253c0 -147 -109 -251 -263 -251zM291 103c65 0 107 53 107 138s-42 136 -107 136s-107 -51 -107 -136s42 -138 107 -138zM351 526l-194 91l79 115l151 -161z" />
    <glyph glyph-name="ocircumflex" unicode="&#xf4;" horiz-adv-x="582" 
d="M291 -12c-154 0 -263 104 -263 251c0 148 109 253 263 253s263 -105 263 -253c0 -147 -109 -251 -263 -251zM291 103c65 0 107 53 107 138s-42 136 -107 136s-107 -51 -107 -136s42 -138 107 -138zM149 522l-32 46l169 157h10l169 -157l-32 -46l-142 66z" />
    <glyph glyph-name="odieresis" unicode="&#xf6;" horiz-adv-x="582" 
d="M291 -12c-154 0 -263 104 -263 251c0 148 109 253 263 253s263 -105 263 -253c0 -147 -109 -251 -263 -251zM291 103c65 0 107 53 107 138s-42 136 -107 136s-107 -51 -107 -136s42 -138 107 -138zM183 538c-43 0 -82 33 -82 80s39 80 82 80s82 -33 82 -80
s-39 -80 -82 -80zM399 538c-43 0 -82 33 -82 80s39 80 82 80s82 -33 82 -80s-39 -80 -82 -80z" />
    <glyph glyph-name="otilde" unicode="&#xf5;" horiz-adv-x="582" 
d="M291 -12c-154 0 -263 104 -263 251c0 148 109 253 263 253s263 -105 263 -253c0 -147 -109 -251 -263 -251zM291 103c65 0 107 53 107 138s-42 136 -107 136s-107 -51 -107 -136s42 -138 107 -138zM364 534c-65 0 -98 50 -138 50c-28 0 -44 -24 -55 -60l-60 18
c5 90 40 144 107 144c65 0 98 -50 138 -50c28 0 44 24 55 60l60 -18c-5 -90 -40 -144 -107 -144z" />
    <glyph glyph-name="uacute" unicode="&#xfa;" horiz-adv-x="604" 
d="M227 -12c-104 0 -164 70 -164 190v302h150v-269c0 -55 25 -94 79 -94c64 0 92 45 92 102v261h150v-480h-146v83c-23 -54 -90 -95 -161 -95zM238 526l-36 45l151 161l79 -115z" />
    <glyph glyph-name="ugrave" unicode="&#xf9;" horiz-adv-x="604" 
d="M227 -12c-104 0 -164 70 -164 190v302h150v-269c0 -55 25 -94 79 -94c64 0 92 45 92 102v261h150v-480h-146v83c-23 -54 -90 -95 -161 -95zM358 526l-194 91l79 115l151 -161z" />
    <glyph glyph-name="ucircumflex" unicode="&#xfb;" horiz-adv-x="604" 
d="M227 -12c-104 0 -164 70 -164 190v302h150v-269c0 -55 25 -94 79 -94c64 0 92 45 92 102v261h150v-480h-146v83c-23 -54 -90 -95 -161 -95zM156 522l-32 46l169 157h10l169 -157l-32 -46l-142 66z" />
    <glyph glyph-name="udieresis" unicode="&#xfc;" horiz-adv-x="604" 
d="M227 -12c-104 0 -164 70 -164 190v302h150v-269c0 -55 25 -94 79 -94c64 0 92 45 92 102v261h150v-480h-146v83c-23 -54 -90 -95 -161 -95zM190 538c-43 0 -82 33 -82 80s39 80 82 80s82 -33 82 -80s-39 -80 -82 -80zM406 538c-43 0 -82 33 -82 80s39 80 82 80
s82 -33 82 -80s-39 -80 -82 -80z" />
    <glyph glyph-name="dagger" unicode="&#x2020;" horiz-adv-x="468" 
d="M212 162l-53 248v10l47 71h-161v80h161l-47 137l7 14h136l7 -14l-47 -137h161v-80h-161l47 -71v-10l-53 -248h-44z" />
    <glyph glyph-name="degree" unicode="&#xb0;" horiz-adv-x="492" 
d="M246 348c-112 0 -198 82 -198 189c0 106 86 189 198 189s198 -83 198 -189c0 -107 -86 -189 -198 -189zM246 448c56 0 88 41 88 89c0 46 -32 89 -88 89s-88 -43 -88 -89c0 -48 32 -89 88 -89z" />
    <glyph glyph-name="cent" unicode="&#xa2;" horiz-adv-x="518" 
d="M250 0v101c-135 18 -218 118 -218 246c0 123 77 232 218 251v102h78v-101c76 -8 135 -43 171 -100l-87 -87c-18 31 -45 60 -89 70v-267c47 5 74 27 92 46l79 -95c-32 -33 -95 -60 -166 -67v-99h-78zM182 351c0 -73 26 -115 73 -131v260c-45 -14 -73 -54 -73 -129z" />
    <glyph glyph-name="sterling" unicode="&#xa3;" horiz-adv-x="644" 
d="M45 0v121h85c25 31 39 64 39 105c0 20 -3 38 -6 56h-118v121h88c-4 20 -6 42 -6 67c0 156 91 242 255 242c103 0 172 -34 217 -105l-93 -91c-25 40 -52 72 -115 72c-87 0 -108 -72 -108 -128c0 -16 3 -36 8 -57h186v-121h-158c3 -22 6 -45 6 -67c0 -38 -15 -70 -37 -94
h297v-121h-540z" />
    <glyph glyph-name="section" unicode="&#xa7;" horiz-adv-x="615" 
d="M263 -159c-92 0 -171 24 -230 62l66 116c39 -32 97 -55 168 -55c77 0 104 26 104 64c0 56 -61 70 -135 82c-93 15 -196 50 -196 144c0 79 57 127 136 137v3c-61 31 -92 67 -92 132c0 127 104 186 251 186c86 0 163 -15 217 -77l-84 -102c-23 38 -80 59 -137 59
c-59 0 -90 -22 -90 -57c0 -59 73 -72 135 -82c93 -15 196 -50 196 -144c0 -79 -57 -128 -138 -136v-3c55 -25 94 -64 94 -133c0 -127 -108 -196 -265 -196zM312 216c84 0 102 35 102 61c0 51 -60 68 -114 68c-84 0 -102 -35 -102 -61c0 -51 60 -68 114 -68z" />
    <glyph glyph-name="bullet" unicode="&#x2022;" horiz-adv-x="416" 
d="M208 146c-82 0 -154 63 -154 151s72 151 154 151s154 -63 154 -151s-72 -151 -154 -151z" />
    <glyph glyph-name="paragraph" unicode="&#xb6;" horiz-adv-x="663" 
d="M421 -215v788h-99v-333c-149 0 -274 77 -274 235c0 150 104 225 264 225h265v-915h-156z" />
    <glyph glyph-name="germandbls" unicode="&#xdf;" horiz-adv-x="647" 
d="M94 0v359h-80v121h80v64c0 132 83 225 244 225c122 0 227 -54 227 -169c0 -60 -28 -106 -58 -142c-32 -39 -65 -68 -65 -90c0 -19 16 -30 48 -45c81 -38 153 -80 153 -176s-70 -159 -190 -159c-50 0 -120 14 -169 53l60 100c25 -24 65 -40 97 -40c36 0 51 19 51 43
c0 38 -39 55 -77 71c-82 35 -118 70 -118 126c0 59 38 90 71 126c25 27 47 57 47 104c0 55 -30 85 -86 85c-61 0 -85 -35 -85 -102v-554h-150z" />
    <glyph glyph-name="registered" unicode="&#xae;" horiz-adv-x="702" 
d="M351 189c-162 0 -295 111 -295 288c0 170 133 288 295 288s295 -111 295 -288c0 -170 -133 -288 -295 -288zM351 247c124 0 227 90 227 230c0 146 -103 230 -227 230s-227 -89 -227 -230c0 -146 103 -230 227 -230zM217 325v308h125c97 0 150 -28 150 -96
c0 -52 -27 -82 -80 -88c45 -11 74 -68 89 -119v-5h-103c0 36 -29 92 -69 103h-19v-103h-93zM310 486h29c36 0 53 18 53 38c0 19 -15 40 -53 40h-29v-78z" />
    <glyph glyph-name="copyright" unicode="&#xa9;" horiz-adv-x="810" 
d="M405 -10c-202 0 -357 139 -357 360c0 213 155 360 357 360s357 -139 357 -360c0 -212 -155 -360 -357 -360zM405 59c157 0 281 130 281 291c0 168 -124 291 -281 291s-281 -129 -281 -291c0 -168 124 -291 281 -291zM410 130c-125 0 -220 84 -220 222
c0 132 87 218 216 218c94 0 151 -45 179 -98l-76 -74c-19 39 -54 60 -95 60c-48 0 -93 -38 -93 -108s43 -108 96 -108c44 0 76 18 98 47l69 -80c-33 -43 -95 -79 -174 -79z" />
    <glyph glyph-name="trademark" unicode="&#x2122;" horiz-adv-x="900" 
d="M128 407v263h-108v87h317v-87h-108v-263h-101zM397 407v364h5l204 -177l205 177h5v-364h-98v170l-111 -104h-3l-109 103v-169h-98z" />
    <glyph glyph-name="acute" unicode="&#xb4;" horiz-adv-x="440" 
d="M160 526l-36 45l151 161l79 -115z" />
    <glyph glyph-name="dieresis" unicode="&#xa8;" horiz-adv-x="440" 
d="M112 538c-43 0 -82 33 -82 80s39 80 82 80s82 -33 82 -80s-39 -80 -82 -80zM328 538c-43 0 -82 33 -82 80s39 80 82 80s82 -33 82 -80s-39 -80 -82 -80z" />
    <glyph glyph-name="notequal" unicode="&#x2260;" 
d="M71 38v8l48 76h-64v117h137l74 117h-211v117h284l49 77h87v-8l-44 -69h60v-117h-133l-74 -117h207v-117h-280l-53 -84h-87z" />
    <glyph glyph-name="AE" unicode="&#xc6;" horiz-adv-x="1033" 
d="M8 0v10l345 690h624v-134h-346v-142h285v-127h-285v-163h346v-134h-508v84h-244l-38 -84h-179zM281 208h188v358h-25z" />
    <glyph glyph-name="Oslash" unicode="&#xd8;" horiz-adv-x="826" 
d="M413 -12c-70 0 -134 14 -188 43l-51 -65h-113v10l87 112c-65 64 -104 155 -104 262c0 211 161 362 369 362c69 0 133 -16 187 -45l52 67h113v-10l-88 -113c65 -64 105 -154 105 -261c0 -211 -161 -362 -369 -362zM413 576c-117 0 -197 -88 -197 -226
c0 -52 11 -99 32 -135l261 336c-28 16 -60 25 -96 25zM413 124c117 0 197 88 197 226c0 52 -12 97 -33 133l-262 -336c28 -17 61 -23 98 -23z" />
    <glyph glyph-name="infinity" unicode="&#x221e;" horiz-adv-x="1008" 
d="M257 29c-122 0 -218 94 -218 240s96 240 218 240c103 0 169 -73 247 -156c78 83 144 156 247 156c122 0 218 -94 218 -240s-96 -240 -218 -240c-103 0 -169 73 -247 156c-78 -83 -144 -156 -247 -156zM174 269c0 -70 36 -114 90 -114c56 0 102 48 160 114
c-58 66 -104 114 -160 114c-54 0 -90 -44 -90 -114zM834 269c0 70 -36 114 -90 114c-56 0 -102 -48 -160 -114c58 -66 104 -114 160 -114c54 0 90 44 90 114z" />
    <glyph glyph-name="plusminus" unicode="&#xb1;" 
d="M207 166v158h-180v117h180v157h132v-157h180v-117h-180v-158h-132zM27 0v117h492v-117h-492z" />
    <glyph glyph-name="lessequal" unicode="&#x2264;" 
d="M402 142l-341 235v8l341 235l73 -81l-214 -156v-2l215 -156zM27 0v117h492v-117h-492z" />
    <glyph glyph-name="greaterequal" unicode="&#x2265;" 
d="M144 142l-74 83l215 156v2l-214 156l73 81l341 -235v-8zM27 0v117h492v-117h-492z" />
    <glyph glyph-name="yen" unicode="&#xa5;" horiz-adv-x="741" 
d="M292 0v108h-195v74h195v78h-195v74h154l-203 356v10h173l152 -297h2l157 297h161v-10l-200 -356h150v-74h-189v-78h189v-74h-189v-108h-162z" />
    <glyph glyph-name="mu" unicode="&#xb5;" horiz-adv-x="615" 
d="M72 -215v695h150v-272c0 -55 24 -97 81 -97c61 0 90 48 90 105v264h150v-480h-146v83c-21 -56 -61 -95 -117 -95c-25 0 -47 11 -58 27v-230h-150z" />
    <glyph glyph-name="partialdiff" unicode="&#x2202;" horiz-adv-x="616" 
d="M312 -12c-167 0 -280 104 -280 260c0 157 97 244 223 244c49 0 90 -15 120 -42c-58 109 -192 200 -279 240v10h208c121 -74 280 -214 280 -427c0 -176 -102 -285 -272 -285zM308 114c65 0 107 48 107 126s-41 126 -109 126c-63 0 -105 -41 -105 -123s42 -129 107 -129z
" />
    <glyph glyph-name="summation" unicode="&#x2211;" horiz-adv-x="627" 
d="M14 -215l-3 10l300 443l-300 452l3 10h581v-133h-322l213 -321v-10l-219 -318h341v-133h-594z" />
    <glyph glyph-name="product" unicode="&#x220f;" horiz-adv-x="782" 
d="M86 -215v915h610v-915h-159v787h-292v-787h-159z" />
    <glyph glyph-name="pi" unicode="&#x3c0;" horiz-adv-x="617" 
d="M89 0v359h-71v121h581v-121h-71v-359h-150v359h-139v-359h-150z" />
    <glyph glyph-name="integral" unicode="&#x222b;" horiz-adv-x="428" 
d="M82 -227c-40 0 -74 7 -96 16l27 124c10 -6 28 -12 47 -12c48 0 68 40 68 87v557c0 126 45 224 196 224c40 0 74 -7 96 -16l-27 -124c-10 6 -28 12 -47 12c-48 0 -68 -40 -68 -87v-557c0 -126 -45 -224 -196 -224z" />
    <glyph glyph-name="ordfeminine" unicode="&#xaa;" horiz-adv-x="561" 
d="M203 259c-78 0 -140 50 -140 126c0 99 69 144 220 146c47 1 53 10 53 30c0 19 -19 40 -75 40c-61 0 -91 -30 -109 -46l-76 88c42 42 110 69 199 69c144 0 206 -57 206 -169v-210c0 -22 5 -30 16 -41l10 -10v-10h-168v57c-20 -41 -71 -70 -136 -70zM258 361
c48 0 78 34 78 74v27c-6 -1 -24 -3 -52 -4c-59 -3 -76 -25 -76 -53c0 -24 13 -44 50 -44zM70 74v117h421v-117h-421z" />
    <glyph glyph-name="ordmasculine" unicode="&#xba;" horiz-adv-x="607" 
d="M304 259c-141 0 -242 93 -242 225c0 133 100 228 242 228c141 0 241 -96 241 -228c0 -133 -100 -225 -241 -225zM304 369c55 0 91 44 91 117s-36 115 -91 115c-56 0 -91 -42 -91 -115s35 -117 91 -117zM70 74v117h467v-117h-467z" />
    <glyph glyph-name="Omega" unicode="&#x2126;" horiz-adv-x="800" 
d="M343 0h-288v114h165v6c-86 46 -167 141 -167 272c0 179 152 320 347 320c198 0 347 -138 347 -320c0 -131 -81 -226 -167 -272v-6h165v-114h-288v181l8 10c55 20 116 73 116 191c0 126 -73 200 -181 200s-181 -74 -181 -200c0 -118 61 -171 116 -191l8 -10v-181z" />
    <glyph glyph-name="ae" unicode="&#xe6;" horiz-adv-x="841" 
d="M200 -12c-112 0 -176 55 -176 146c0 97 75 150 237 153c48 1 66 11 66 36c0 29 -24 53 -86 53c-54 0 -89 -19 -123 -51l-78 92c45 45 117 75 218 75c76 0 127 -20 159 -54c40 34 94 54 162 54c161 0 232 -106 232 -250c0 -17 -1 -33 -2 -43h-336c6 -47 48 -90 122 -90
c47 0 83 18 103 40l83 -98c-43 -40 -119 -63 -199 -63c-95 0 -165 33 -207 92c-32 -56 -86 -92 -175 -92zM234 94c57 0 93 43 93 90v33c-8 -3 -31 -6 -63 -8c-67 -4 -90 -28 -90 -62c0 -29 17 -53 60 -53zM569 380c-60 0 -94 -45 -98 -94h188c-3 51 -31 94 -90 94z" />
    <glyph glyph-name="oslash" unicode="&#xf8;" horiz-adv-x="582" 
d="M291 -12c-48 0 -91 10 -128 28l-37 -48h-92v10l64 84c-44 44 -70 104 -70 176c0 148 109 254 263 254c44 0 84 -10 119 -25l46 59h92v-10l-71 -93c48 -45 77 -110 77 -185c0 -147 -109 -250 -263 -250zM291 383c-69 0 -113 -53 -113 -143c0 -26 4 -49 11 -69l153 199
c-15 8 -32 13 -51 13zM291 97c69 0 113 53 113 143c0 30 -5 57 -15 78l-157 -205c16 -11 36 -16 59 -16z" />
    <glyph glyph-name="questiondown" unicode="&#xbf;" horiz-adv-x="510" 
d="M306 395c-47 0 -89 36 -89 87s42 87 89 87s89 -36 89 -87s-42 -87 -89 -87zM249 -177c-140 0 -240 55 -240 174c0 115 74 182 193 236c53 24 78 35 94 87l11 37l15 1c28 -29 64 -82 64 -121c0 -46 -51 -75 -109 -103c-62 -30 -101 -59 -101 -110c0 -47 34 -67 97 -67
c79 0 136 32 162 54l47 -135c-39 -25 -133 -53 -233 -53z" />
    <glyph glyph-name="exclamdown" unicode="&#xa1;" horiz-adv-x="344" 
d="M172 395c-47 0 -89 36 -89 87s42 87 89 87s89 -36 89 -87s-42 -87 -89 -87zM68 -173l-7 19l93 512h36l93 -512l-7 -19h-208z" />
    <glyph glyph-name="logicalnot" unicode="&#xac;" 
d="M355 158v151h-328v117h460v-268h-132z" />
    <glyph glyph-name="radical" unicode="&#x221a;" horiz-adv-x="660" 
d="M311 -22l-192 381h-105v121h201l98 -227h2l185 447h144v-11l-323 -711h-10z" />
    <glyph glyph-name="florin" unicode="&#x192;" horiz-adv-x="515" 
d="M112 -145c-40 0 -74 7 -96 16l27 124c10 -6 28 -12 47 -12c48 0 68 40 68 87v203h-115v121h115v101c0 135 76 217 213 217c45 0 88 -9 120 -27l-42 -130c-21 19 -46 26 -69 26c-46 0 -72 -29 -72 -77v-110h168v-121h-168v-194c0 -126 -45 -224 -196 -224z" />
    <glyph glyph-name="approxequal" unicode="&#x2248;" 
d="M377 324c-72 0 -145 61 -200 61c-39 0 -61 -30 -73 -72l-66 20c5 102 57 166 131 166c72 0 145 -62 200 -62c39 0 61 31 73 73l66 -21c-5 -102 -57 -165 -131 -165zM377 95c-72 0 -145 62 -200 62c-39 0 -61 -31 -73 -73l-66 21c5 102 57 165 131 165
c72 0 145 -61 200 -61c39 0 61 30 73 72l66 -20c-5 -102 -57 -166 -131 -166z" />
    <glyph glyph-name="Delta" unicode="&#x2206;" horiz-adv-x="730" 
d="M13 0v10l360 721h10l334 -721v-10h-704zM245 124h240l-115 291h-1z" />
    <glyph glyph-name="guillemotleft" unicode="&#xab;" horiz-adv-x="586" 
d="M220 48l-170 211v10l170 211l72 -35l-97 -180v-2l97 -180zM450 48l-170 211v10l170 211l72 -35l-97 -180v-2l97 -180z" />
    <glyph glyph-name="guillemotright" unicode="&#xbb;" horiz-adv-x="586" 
d="M136 48l-72 35l97 180v2l-97 180l72 35l170 -211v-10zM366 48l-72 35l97 180v2l-97 180l72 35l170 -211v-10z" />
    <glyph glyph-name="ellipsis" unicode="&#x2026;" horiz-adv-x="780" 
d="M140 -10c-54 0 -101 41 -101 99s47 99 101 99s101 -41 101 -99s-47 -99 -101 -99zM390 -10c-54 0 -101 41 -101 99s47 99 101 99s101 -41 101 -99s-47 -99 -101 -99zM640 -10c-54 0 -101 41 -101 99s47 99 101 99s101 -41 101 -99s-47 -99 -101 -99z" />
    <glyph glyph-name="uni00A0" unicode="&#xa0;" horiz-adv-x="240" 
 />
    <glyph glyph-name="Agrave" unicode="&#xc0;" horiz-adv-x="720" 
d="M8 0v10l360 721h10l334 -721v-10h-182l-34 84h-273l-36 -84h-179zM271 208h180l-86 207h-1zM433 741l-194 91l79 115l151 -161z" />
    <glyph glyph-name="Atilde" unicode="&#xc3;" horiz-adv-x="720" 
d="M8 0v10l360 721h10l334 -721v-10h-182l-34 84h-273l-36 -84h-179zM271 208h180l-86 207h-1zM446 749c-65 0 -98 50 -138 50c-28 0 -44 -24 -55 -60l-60 18c5 90 40 144 107 144c65 0 98 -50 138 -50c28 0 44 24 55 60l60 -18c-5 -90 -40 -144 -107 -144z" />
    <glyph glyph-name="Otilde" unicode="&#xd5;" horiz-adv-x="826" 
d="M413 -12c-212 0 -369 148 -369 362c0 211 161 362 369 362c212 0 369 -148 369 -362c0 -211 -161 -362 -369 -362zM413 124c117 0 197 88 197 226s-80 226 -197 226s-197 -88 -197 -226s80 -226 197 -226zM486 749c-65 0 -98 50 -138 50c-28 0 -44 -24 -55 -60l-60 18
c5 90 40 144 107 144c65 0 98 -50 138 -50c28 0 44 24 55 60l60 -18c-5 -90 -40 -144 -107 -144z" />
    <glyph glyph-name="OE" unicode="&#x152;" horiz-adv-x="1073" 
d="M44 348c0 230 162 352 399 352h574v-134h-346v-142h285v-127h-285v-163h346v-134h-574c-236 0 -399 118 -399 348zM207 349c0 -149 83 -215 241 -215h61v432h-61c-158 0 -241 -68 -241 -217z" />
    <glyph glyph-name="oe" unicode="&#x153;" horiz-adv-x="910" 
d="M286 -12c-154 0 -258 103 -258 250c0 148 104 254 258 254c77 0 139 -29 182 -74c40 46 101 74 185 74c156 0 227 -106 227 -250c0 -17 -1 -33 -2 -43h-336c6 -47 48 -90 122 -90c47 0 83 18 103 40l83 -98c-43 -40 -119 -63 -196 -63c-84 0 -146 26 -187 71
c-42 -45 -105 -71 -181 -71zM291 103c65 0 107 52 107 137s-42 137 -107 137s-107 -52 -107 -137s42 -137 107 -137zM638 380c-60 0 -94 -45 -98 -94h188c-3 51 -31 94 -90 94z" />
    <glyph glyph-name="endash" unicode="&#x2013;" horiz-adv-x="500" 
d="M24 238v112h452v-112h-452z" />
    <glyph glyph-name="emdash" unicode="&#x2014;" horiz-adv-x="800" 
d="M24 238v112h752v-112h-752z" />
    <glyph glyph-name="quotedblleft" unicode="&#x201c;" horiz-adv-x="499" 
d="M132 446c-43 0 -85 29 -85 96c0 83 63 167 122 202l47 -34v-8c-33 -21 -66 -60 -74 -98c38 -5 77 -37 77 -79c0 -47 -42 -79 -87 -79zM356 446c-43 0 -85 29 -85 96c0 83 63 167 122 202l47 -34v-8c-33 -21 -66 -60 -74 -98c38 -5 77 -37 77 -79c0 -47 -42 -79 -87 -79z
" />
    <glyph glyph-name="quotedblright" unicode="&#x201d;" horiz-adv-x="499" 
d="M143 734c43 0 85 -29 85 -96c0 -83 -63 -167 -122 -202l-47 34v8c33 21 66 60 74 98c-38 5 -77 37 -77 79c0 47 42 79 87 79zM367 734c43 0 85 -29 85 -96c0 -83 -63 -167 -122 -202l-47 34v8c33 21 66 60 74 98c-38 5 -77 37 -77 79c0 47 42 79 87 79z" />
    <glyph glyph-name="quoteleft" unicode="&#x2018;" horiz-adv-x="275" 
d="M132 446c-43 0 -85 29 -85 96c0 83 63 167 122 202l47 -34v-8c-33 -21 -66 -60 -74 -98c38 -5 77 -37 77 -79c0 -47 -42 -79 -87 -79z" />
    <glyph glyph-name="quoteright" unicode="&#x2019;" horiz-adv-x="275" 
d="M143 734c43 0 85 -29 85 -96c0 -83 -63 -167 -122 -202l-47 34v8c33 21 66 60 74 98c-38 5 -77 37 -77 79c0 47 42 79 87 79z" />
    <glyph glyph-name="divide" unicode="&#xf7;" 
d="M273 426c-49 0 -91 37 -91 89s42 89 91 89s91 -37 91 -89s-42 -89 -91 -89zM27 239v117h492v-117h-492zM273 -10c-49 0 -91 37 -91 89s42 89 91 89s91 -37 91 -89s-42 -89 -91 -89z" />
    <glyph glyph-name="lozenge" unicode="&#x25ca;" horiz-adv-x="676" 
d="M334 -30l-302 376v8l302 376h8l302 -376v-8l-302 -376h-8zM337 160h2l148 189v2l-148 188h-2l-148 -188v-2z" />
    <glyph glyph-name="ydieresis" unicode="&#xff;" horiz-adv-x="529" 
d="M89 -227c-41 0 -80 13 -103 27l40 122c10 -9 36 -18 55 -18c53 0 72 20 95 80l14 36l-192 450v10h155l110 -283h2l109 283h157v-10l-230 -534c-45 -105 -102 -163 -212 -163zM156 538c-43 0 -82 33 -82 80s39 80 82 80s82 -33 82 -80s-39 -80 -82 -80zM372 538
c-43 0 -82 33 -82 80s39 80 82 80s82 -33 82 -80s-39 -80 -82 -80z" />
    <glyph glyph-name="Ydieresis" unicode="&#x178;" horiz-adv-x="701" 
d="M272 0v263l-270 427v10h173l178 -297h2l183 297h161v-10l-265 -427v-263h-162zM245 753c-43 0 -82 33 -82 80s39 80 82 80s82 -33 82 -80s-39 -80 -82 -80zM461 753c-43 0 -82 33 -82 80s39 80 82 80s82 -33 82 -80s-39 -80 -82 -80z" />
    <glyph glyph-name="fraction" unicode="&#x2044;" horiz-adv-x="438" 
d="M-18 0l-2 10l380 690h96l2 -10l-380 -690h-96z" />
    <glyph glyph-name="Euro" unicode="&#x20ac;" horiz-adv-x="746" 
d="M432 -12c-172 0 -292 85 -324 246h-88v74h80c-1 12 -1 24 -1 37c0 15 0 28 1 42h-80v74h89c39 168 176 251 332 251c138 0 231 -56 273 -134l-105 -92c-27 63 -90 99 -162 99c-90 0 -149 -38 -175 -124h282v-74h-294c-2 -13 -2 -26 -2 -38c0 -16 0 -29 2 -41h294v-74
h-285c17 -69 78 -120 174 -120c75 0 152 31 188 76l74 -111c-50 -53 -159 -91 -273 -91z" />
    <glyph glyph-name="guilsinglleft" unicode="&#x2039;" horiz-adv-x="356" 
d="M220 48l-170 211v10l170 211l72 -35l-97 -180v-2l97 -180z" />
    <glyph glyph-name="guilsinglright" unicode="&#x203a;" horiz-adv-x="356" 
d="M136 48l-72 35l97 180v2l-97 180l72 35l170 -211v-10z" />
    <glyph glyph-name="daggerdbl" unicode="&#x2021;" horiz-adv-x="480" 
d="M218 62l-53 222v10l47 67h-161v80h147v70h-147v80h161l-47 117l7 14h136l7 -14l-47 -117h161v-80h-147v-70h147v-80h-161l47 -67v-10l-53 -222h-44z" />
    <glyph glyph-name="periodcentered" unicode="&#xb7;" horiz-adv-x="280" 
d="M140 197c-54 0 -101 41 -101 99s47 99 101 99s101 -41 101 -99s-47 -99 -101 -99z" />
    <glyph glyph-name="quotesinglbase" unicode="&#x201a;" horiz-adv-x="275" 
d="M143 184c43 0 85 -29 85 -96c0 -83 -63 -167 -122 -202l-47 34v8c33 21 66 60 74 98c-38 5 -77 37 -77 79c0 47 42 79 87 79z" />
    <glyph glyph-name="quotedblbase" unicode="&#x201e;" horiz-adv-x="497" 
d="M143 184c43 0 85 -29 85 -96c0 -83 -63 -167 -122 -202l-47 34v8c33 21 66 60 74 98c-38 5 -77 37 -77 79c0 47 42 79 87 79zM365 184c43 0 85 -29 85 -96c0 -83 -63 -167 -122 -202l-47 34v8c33 21 66 60 74 98c-38 5 -77 37 -77 79c0 47 42 79 87 79z" />
    <glyph glyph-name="perthousand" unicode="&#x2030;" horiz-adv-x="1602" 
d="M1342 -12c-126 0 -220 87 -220 217c0 128 96 217 220 217c126 0 220 -87 220 -217c0 -128 -96 -217 -220 -217zM1342 95c58 0 91 44 91 110s-33 110 -91 110s-91 -44 -91 -110s33 -110 91 -110zM260 278c-126 0 -220 87 -220 217c0 128 96 217 220 217
c126 0 220 -87 220 -217c0 -128 -96 -217 -220 -217zM260 385c58 0 91 44 91 110s-33 110 -91 110s-91 -44 -91 -110s33 -110 91 -110zM240 0l-2 10l526 690h118l2 -10l-526 -690h-118zM855 -12c-126 0 -220 87 -220 217c0 128 96 217 220 217c126 0 220 -87 220 -217
c0 -128 -96 -217 -220 -217zM855 95c58 0 91 44 91 110s-33 110 -91 110s-91 -44 -91 -110s33 -110 91 -110z" />
    <glyph glyph-name="Acircumflex" unicode="&#xc2;" horiz-adv-x="720" 
d="M8 0v10l360 721h10l334 -721v-10h-182l-34 84h-273l-36 -84h-179zM271 208h180l-86 207h-1zM231 737l-32 46l169 157h10l169 -157l-32 -46l-142 66z" />
    <glyph glyph-name="Ecircumflex" unicode="&#xca;" horiz-adv-x="648" 
d="M84 0v700h508v-134h-346v-142h285v-127h-285v-163h346v-134h-508zM180 737l-32 46l169 157h10l169 -157l-32 -46l-142 66z" />
    <glyph glyph-name="Aacute" unicode="&#xc1;" horiz-adv-x="720" 
d="M8 0v10l360 721h10l334 -721v-10h-182l-34 84h-273l-36 -84h-179zM271 208h180l-86 207h-1zM313 741l-36 45l151 161l79 -115z" />
    <glyph glyph-name="Edieresis" unicode="&#xcb;" horiz-adv-x="648" 
d="M84 0v700h508v-134h-346v-142h285v-127h-285v-163h346v-134h-508zM214 753c-43 0 -82 33 -82 80s39 80 82 80s82 -33 82 -80s-39 -80 -82 -80zM430 753c-43 0 -82 33 -82 80s39 80 82 80s82 -33 82 -80s-39 -80 -82 -80z" />
    <glyph glyph-name="Egrave" unicode="&#xc8;" horiz-adv-x="648" 
d="M84 0v700h508v-134h-346v-142h285v-127h-285v-163h346v-134h-508zM382 741l-194 91l79 115l151 -161z" />
    <glyph glyph-name="Iacute" unicode="&#xcd;" horiz-adv-x="330" 
d="M84 0v700h162v-700h-162zM105 741l-36 45l151 161l79 -115z" />
    <glyph glyph-name="Icircumflex" unicode="&#xce;" horiz-adv-x="330" 
d="M84 0v700h162v-700h-162zM23 737l-32 46l169 157h10l169 -157l-32 -46l-142 66z" />
    <glyph glyph-name="Idieresis" unicode="&#xcf;" horiz-adv-x="330" 
d="M84 0v700h162v-700h-162zM57 753c-43 0 -82 33 -82 80s39 80 82 80s82 -33 82 -80s-39 -80 -82 -80zM273 753c-43 0 -82 33 -82 80s39 80 82 80s82 -33 82 -80s-39 -80 -82 -80z" />
    <glyph glyph-name="Igrave" unicode="&#xcc;" horiz-adv-x="330" 
d="M84 0v700h162v-700h-162zM225 741l-194 91l79 115l151 -161z" />
    <glyph glyph-name="Oacute" unicode="&#xd3;" horiz-adv-x="826" 
d="M413 -12c-212 0 -369 148 -369 362c0 211 161 362 369 362c212 0 369 -148 369 -362c0 -211 -161 -362 -369 -362zM413 124c117 0 197 88 197 226s-80 226 -197 226s-197 -88 -197 -226s80 -226 197 -226zM353 741l-36 45l151 161l79 -115z" />
    <glyph glyph-name="Ocircumflex" unicode="&#xd4;" horiz-adv-x="826" 
d="M413 -12c-212 0 -369 148 -369 362c0 211 161 362 369 362c212 0 369 -148 369 -362c0 -211 -161 -362 -369 -362zM413 124c117 0 197 88 197 226s-80 226 -197 226s-197 -88 -197 -226s80 -226 197 -226zM271 737l-32 46l169 157h10l169 -157l-32 -46l-142 66z" />
    <glyph glyph-name="apple" horiz-adv-x="3486" 
d="M44 0v5l20 21c5 5 8 9 8 17v323h5l245 -221v163c0 8 -3 12 -8 17l-20 20v5h129v-5l-20 -20c-5 -5 -8 -9 -8 -17v-321h-5l-245 221v-165c0 -8 3 -12 8 -17l20 -21v-5h-129zM458 0v5l21 21c5 5 7 9 7 17v265c0 8 -2 12 -7 17l-21 20v5h207c74 0 111 -37 111 -89
c0 -47 -30 -69 -63 -77v-1c49 -8 78 -36 78 -85c0 -65 -49 -98 -128 -98h-205zM566 212h89c27 0 42 12 42 37c0 22 -13 38 -42 38h-89v-75zM566 64h87c33 0 57 12 57 45c0 30 -20 42 -57 42h-87v-87zM1018 -7c-104 0 -184 69 -184 181c0 113 80 182 185 182
c33 0 60 -6 77 -6c15 0 25 5 35 12l5 -2l-30 -118l-6 1c-6 22 -29 47 -76 47c-59 0 -105 -44 -105 -116c0 -69 41 -115 102 -115c41 0 68 21 83 41l47 -54c-28 -30 -73 -53 -133 -53zM1358 -7c-88 0 -151 48 -151 145v170c0 8 -2 12 -7 17l-21 20v5h135v-5l-20 -20
c-5 -5 -8 -9 -8 -17v-172c0 -52 27 -76 72 -76s70 25 70 76v172c0 8 -2 12 -7 17l-21 20v5h136v-5l-20 -20c-5 -5 -8 -9 -8 -17v-170c0 -97 -63 -145 -150 -145zM1566 0v5l21 21c6 6 7 10 7 23v143c0 12 -1 16 -7 23l-21 20v5h101v-43c12 27 45 48 81 48c52 0 82 -35 82 -95
v-101c0 -13 1 -17 7 -23l21 -21v-5h-103v133c0 28 -13 47 -40 47c-32 0 -46 -22 -46 -51v-80c0 -13 1 -17 8 -23l20 -21v-5h-131zM1945 276c-24 0 -45 18 -45 43c0 26 21 44 45 44c23 0 44 -18 44 -44c0 -25 -21 -43 -44 -43zM1880 0v5l20 21c7 6 8 10 8 23v143
c0 12 -1 16 -8 23l-20 20v5h103v-191c0 -13 1 -17 7 -23l21 -21v-5h-131zM2154 -11l-99 198c-9 17 -19 34 -38 48v5h92l49 -116h1l44 116h93v-5c-20 -14 -28 -29 -38 -48l-99 -198h-5zM2430 -7c-81 0 -132 48 -132 123s49 129 130 129s116 -53 116 -125c0 -8 0 -16 -1 -21
h-168c3 -24 24 -45 61 -45c24 0 42 9 52 20l41 -49c-21 -20 -59 -32 -99 -32zM2423 189c-30 0 -47 -22 -49 -47h94c-1 26 -15 47 -45 47zM2573 0v5l21 21c6 6 7 10 7 23v143c0 12 -1 16 -7 23l-21 20v5h101v-48c11 29 38 53 73 53c14 0 25 -4 32 -7l-20 -75
c-8 7 -19 14 -36 14c-29 0 -47 -20 -47 -56v-72c0 -13 1 -17 8 -23l20 -21v-5h-131zM2896 -7c-42 0 -84 11 -110 33l35 51c17 -14 46 -28 80 -28c22 0 32 9 32 20c0 20 -27 21 -60 27c-36 6 -74 24 -74 70c0 60 50 79 104 79c31 0 46 -7 62 -7c15 0 23 5 33 13l5 -2l-23 -92
l-5 2c-11 22 -38 32 -68 32c-22 0 -31 -8 -31 -19c0 -18 25 -19 58 -25c36 -6 76 -24 76 -70c0 -53 -44 -84 -114 -84zM3117 -7c-43 0 -77 28 -77 70c0 53 37 78 118 80c26 0 33 6 33 19s-12 25 -43 25c-34 0 -51 -16 -61 -25l-39 46c22 22 59 37 107 37
c77 0 111 -32 111 -93v-103c0 -13 1 -17 7 -23l21 -21v-5h-101v33c-12 -23 -40 -40 -76 -40zM3145 46c28 0 46 22 46 45v17c-4 -2 -15 -3 -31 -4c-34 -2 -45 -14 -45 -31c0 -15 8 -27 30 -27zM3311 0v5l20 21c7 6 8 10 8 23v281c0 13 -1 17 -8 23l-20 21v5h103v-330
c0 -13 1 -17 7 -23l21 -21v-5h-131z" />
    <glyph glyph-name="Ograve" unicode="&#xd2;" horiz-adv-x="826" 
d="M413 -12c-212 0 -369 148 -369 362c0 211 161 362 369 362c212 0 369 -148 369 -362c0 -211 -161 -362 -369 -362zM413 124c117 0 197 88 197 226s-80 226 -197 226s-197 -88 -197 -226s80 -226 197 -226zM473 741l-194 91l79 115l151 -161z" />
    <glyph glyph-name="Uacute" unicode="&#xda;" horiz-adv-x="746" 
d="M373 -12c-176 0 -301 95 -301 289v423h158v-427c0 -103 53 -150 143 -150s141 49 141 150v427h160v-423c0 -194 -126 -289 -301 -289zM310 741l-36 45l151 161l79 -115z" />
    <glyph glyph-name="Ucircumflex" unicode="&#xdb;" horiz-adv-x="746" 
d="M373 -12c-176 0 -301 95 -301 289v423h158v-427c0 -103 53 -150 143 -150s141 49 141 150v427h160v-423c0 -194 -126 -289 -301 -289zM228 737l-32 46l169 157h10l169 -157l-32 -46l-142 66z" />
    <glyph glyph-name="Ugrave" unicode="&#xd9;" horiz-adv-x="746" 
d="M373 -12c-176 0 -301 95 -301 289v423h158v-427c0 -103 53 -150 143 -150s141 49 141 150v427h160v-423c0 -194 -126 -289 -301 -289zM430 741l-194 91l79 115l151 -161z" />
    <glyph glyph-name="dotlessi" unicode="&#x131;" horiz-adv-x="290" 
d="M70 0v480h150v-480h-150z" />
    <glyph glyph-name="circumflex" unicode="&#x2c6;" horiz-adv-x="440" 
d="M78 522l-32 46l169 157h10l169 -157l-32 -46l-142 66z" />
    <glyph glyph-name="tilde" unicode="&#x2dc;" horiz-adv-x="440" 
d="M293 534c-65 0 -98 50 -138 50c-28 0 -44 -24 -55 -60l-60 18c5 90 40 144 107 144c65 0 98 -50 138 -50c28 0 44 24 55 60l60 -18c-5 -90 -40 -144 -107 -144z" />
    <glyph glyph-name="macron" unicode="&#xaf;" horiz-adv-x="440" 
d="M46 563v112h348v-112h-348z" />
    <glyph glyph-name="breve" unicode="&#x2d8;" horiz-adv-x="440" 
d="M220 517c-118 0 -175 107 -180 186l61 18c18 -48 56 -101 119 -101s101 53 119 101l61 -18c-5 -79 -62 -186 -180 -186z" />
    <glyph glyph-name="dotaccent" unicode="&#x2d9;" horiz-adv-x="440" 
d="M220 538c-43 0 -82 33 -82 80s39 80 82 80s82 -33 82 -80s-39 -80 -82 -80z" />
    <glyph glyph-name="ring" unicode="&#x2da;" horiz-adv-x="440" 
d="M220 521c-73 0 -131 49 -131 125c0 74 61 125 131 125c73 0 131 -49 131 -125c0 -74 -61 -125 -131 -125zM220 583c38 0 63 26 63 63s-25 63 -63 63s-63 -26 -63 -63s25 -63 63 -63z" />
    <glyph glyph-name="cedilla" unicode="&#xb8;" horiz-adv-x="440" 
d="M214 -220c-46 0 -81 15 -107 39l33 47c17 -15 37 -26 61 -26c25 0 42 10 42 30c0 18 -17 30 -45 30c-21 0 -36 -2 -48 -6l-7 9l62 97h69l-33 -49c48 -2 91 -30 91 -82c0 -55 -50 -89 -118 -89z" />
    <glyph glyph-name="hungarumlaut" unicode="&#x2dd;" horiz-adv-x="440" 
d="M48 516l-42 40l123 174l94 -86zM259 516l-42 40l123 174l94 -86z" />
    <glyph glyph-name="ogonek" unicode="&#x2db;" horiz-adv-x="440" 
d="M239 -220c-67 0 -116 39 -116 97c0 56 52 97 98 123h66c-26 -29 -81 -56 -81 -112c0 -34 21 -48 48 -48c22 0 38 9 51 26l35 -47c-26 -28 -66 -39 -101 -39z" />
    <glyph glyph-name="caron" unicode="&#x2c7;" horiz-adv-x="440" 
d="M215 522l-169 157l32 46l142 -66l142 66l32 -46l-169 -157h-10z" />
    <glyph glyph-name="zero.hgtx" horiz-adv-x="620" 
d="M310 -12c-168 0 -273 104 -273 251c0 148 105 253 273 253s273 -103 273 -250c0 -148 -105 -254 -273 -254zM310 103c75 0 126 52 126 137s-51 137 -126 137s-126 -51 -126 -136s51 -138 126 -138z" />
    <glyph glyph-name="one.hgtx" horiz-adv-x="393" 
d="M137 0v359h-113v10l28 111h235v-480h-150z" />
    <glyph glyph-name="two.hgtx" horiz-adv-x="557" 
d="M17 0l-2 11l105 92c105 88 176 160 176 213c0 28 -18 54 -64 54c-47 0 -95 -28 -126 -61l-80 100c60 57 136 83 235 83c151 0 190 -73 190 -142c0 -90 -71 -164 -144 -227v-3h202v-120h-492z" />
    <glyph glyph-name="three.hgtx" horiz-adv-x="553" 
d="M236 -207c-103 0 -174 28 -229 77l88 104c35 -37 84 -60 136 -60c82 0 123 41 123 102c0 58 -49 97 -135 97c-25 0 -44 -3 -69 -8l-10 10l163 244h-251v121h475l9 -14l-191 -254c87 -17 167 -86 167 -186c0 -131 -112 -233 -276 -233z" />
    <glyph glyph-name="four.hgtx" horiz-adv-x="712" 
d="M385 -195v195h-368l-6 10l283 470h151l5 -10l-212 -350h147v113l141 146h9v-259h126v-120h-126v-195h-150z" />
    <glyph glyph-name="five.hgtx" horiz-adv-x="570" 
d="M239 -207c-98 0 -169 28 -224 77l88 104c35 -37 82 -60 136 -60c82 0 124 45 124 99c0 59 -43 100 -146 100c-52 0 -102 -9 -135 -27l-13 10l31 384h405v-121h-277l-13 -131c21 5 44 8 68 8c148 0 238 -91 238 -207c0 -146 -112 -236 -282 -236z" />
    <glyph glyph-name="six.hgtx" horiz-adv-x="607" 
d="M304 -12c-172 0 -266 104 -266 264c0 180 127 375 264 448h208v-10c-95 -37 -241 -143 -285 -286c29 28 74 46 129 46c129 0 215 -84 215 -218c0 -137 -101 -244 -265 -244zM303 107c72 0 111 49 111 113s-39 113 -111 113s-108 -50 -108 -113s36 -113 108 -113z" />
    <glyph glyph-name="seven.hgtx" horiz-adv-x="535" 
d="M74 -195v10l251 544h-314v121h515v-10l-293 -665h-159z" />
    <glyph glyph-name="eight.hgtx" horiz-adv-x="618" 
d="M309 -12c-174 0 -270 81 -270 210c0 91 67 154 144 172c-58 19 -122 72 -121 158c1 109 94 184 247 184c152 0 247 -72 247 -184c0 -86 -63 -139 -121 -158c77 -18 144 -81 144 -172c0 -127 -97 -210 -270 -210zM309 424c57 0 95 34 95 86s-38 84 -95 84s-95 -32 -95 -84
s38 -86 95 -86zM309 107c70 0 115 38 115 101s-44 99 -115 99s-115 -36 -115 -99s44 -101 115 -101z" />
    <glyph glyph-name="nine.hgtx" horiz-adv-x="607" 
d="M107 -192v10c95 37 231 127 275 270c-29 -28 -74 -46 -129 -46c-129 0 -215 78 -215 212c0 137 101 238 265 238c172 0 266 -104 266 -264c0 -180 -115 -350 -246 -420h-216zM304 159c68 0 108 44 108 107s-40 107 -108 107s-111 -43 -111 -107s43 -107 111 -107z" />
    <glyph glyph-name="zero.lntb" horiz-adv-x="658" 
d="M329 -12c-197 0 -312 146 -312 362c0 213 119 362 312 362c197 0 312 -146 312 -362c0 -213 -119 -362 -312 -362zM329 122c93 0 141 69 141 228s-48 228 -141 228s-141 -69 -141 -228s48 -228 141 -228z" />
    <glyph glyph-name="one.lntb" horiz-adv-x="658" 
d="M96 0v134h163v428h-154v10l33 128h283v-566h161v-134h-486z" />
    <glyph glyph-name="two.lntb" horiz-adv-x="658" 
d="M16 0l-2 11c161 158 365 342 365 464c0 59 -40 100 -105 100c-56 0 -103 -25 -141 -62l-91 107c61 57 134 92 252 92c169 0 258 -85 258 -219c0 -132 -150 -280 -243 -363h288v-130h-581z" />
    <glyph glyph-name="three.lntb" horiz-adv-x="658" 
d="M283 -12c-103 0 -179 30 -242 90l91 107c41 -39 89 -60 152 -60c84 0 125 37 125 94c0 59 -44 98 -147 98c-28 0 -53 -3 -78 -8l-10 10l173 247h-271v134h514l9 -14l-194 -266c89 -15 176 -85 176 -204c0 -143 -125 -228 -298 -228z" />
    <glyph glyph-name="four.lntb" horiz-adv-x="658" 
d="M362 0v151h-360l-6 10l305 539h162l4 -10l-227 -405h122v91l149 154h9v-245h118v-134h-118v-151h-158z" />
    <glyph glyph-name="five.lntb" horiz-adv-x="658" 
d="M276 -12c-104 0 -185 32 -248 92l91 107c41 -39 90 -62 156 -62c82 0 131 36 131 100c0 63 -46 102 -154 102c-52 0 -121 -9 -154 -27l-13 10l50 390h417v-134h-288l-14 -118c26 4 56 7 80 7c154 0 248 -92 248 -224c0 -156 -131 -243 -302 -243z" />
    <glyph glyph-name="six.lntb" horiz-adv-x="658" 
d="M328 -12c-156 0 -286 91 -286 263c0 144 114 356 278 449h227v-10c-114 -43 -236 -149 -288 -263c30 22 76 30 128 30c116 0 224 -76 224 -222c0 -151 -129 -247 -283 -247zM328 121c67 0 114 46 114 114c0 65 -52 107 -114 107c-64 0 -117 -42 -117 -107
c0 -68 50 -114 117 -114z" />
    <glyph glyph-name="seven.lntb" horiz-adv-x="658" 
d="M141 0v10l260 556h-347v134h560v-10l-300 -690h-173z" />
    <glyph glyph-name="eight.lntb" horiz-adv-x="658" 
d="M329 -12c-193 0 -291 86 -291 212c0 81 50 145 124 169c-57 25 -104 74 -104 154c0 112 92 189 271 189c183 0 271 -74 271 -189c0 -80 -47 -129 -104 -154c74 -24 124 -88 124 -169c0 -123 -102 -212 -291 -212zM329 426c69 0 105 32 105 81s-36 79 -105 79
s-105 -30 -105 -79s36 -81 105 -81zM329 118c85 0 125 38 125 94s-40 94 -125 94s-125 -38 -125 -94s40 -94 125 -94z" />
    <glyph glyph-name="nine.lntb" horiz-adv-x="658" 
d="M111 0v10c114 43 236 149 288 263c-30 -22 -76 -30 -128 -30c-116 0 -224 76 -224 222c0 151 129 247 283 247c156 0 286 -91 286 -263c0 -144 -114 -356 -278 -449h-227zM330 358c64 0 117 42 117 107c0 68 -50 114 -117 114s-114 -46 -114 -114c0 -65 52 -107 114 -107
z" />
    <glyph glyph-name="zero.hgtb" horiz-adv-x="606" 
d="M303 -12c-168 0 -273 104 -273 251c0 148 105 253 273 253s273 -103 273 -250c0 -148 -105 -254 -273 -254zM303 103c75 0 126 52 126 137s-51 137 -126 137s-126 -51 -126 -136s51 -138 126 -138z" />
    <glyph glyph-name="one.hgtb" horiz-adv-x="606" 
d="M94 0v111h146v248h-143v10l28 111h265v-369h146v-111h-442z" />
    <glyph glyph-name="two.hgtb" horiz-adv-x="606" 
d="M52 0l-2 11l105 92c105 88 176 160 176 213c0 28 -18 54 -64 54c-47 0 -95 -28 -126 -61l-80 100c60 57 136 83 235 83c151 0 190 -73 190 -142c0 -90 -71 -164 -144 -227v-3h202v-120h-492z" />
    <glyph glyph-name="three.hgtb" horiz-adv-x="606" 
d="M245 -207c-103 0 -174 28 -229 77l88 104c35 -37 84 -60 136 -60c82 0 123 41 123 102c0 58 -49 97 -135 97c-25 0 -44 -3 -69 -8l-10 10l163 244h-251v121h475l9 -14l-191 -254c87 -17 167 -86 167 -186c0 -131 -112 -233 -276 -233z" />
    <glyph glyph-name="four.hgtb" horiz-adv-x="606" 
d="M348 -195v195h-356l-6 10l271 470h151l5 -10l-200 -350h135v113l141 146h9v-259h104v-120h-104v-195h-150z" />
    <glyph glyph-name="five.hgtb" horiz-adv-x="606" 
d="M256 -207c-98 0 -169 28 -224 77l88 104c35 -37 82 -60 136 -60c82 0 124 45 124 99c0 59 -43 100 -146 100c-52 0 -102 -9 -135 -27l-13 10l31 384h405v-121h-277l-13 -131c21 5 44 8 68 8c148 0 238 -91 238 -207c0 -146 -112 -236 -282 -236z" />
    <glyph glyph-name="six.hgtb" horiz-adv-x="606" 
d="M306 -12c-172 0 -266 104 -266 264c0 180 127 375 264 448h208v-10c-95 -37 -241 -143 -285 -286c29 28 74 46 129 46c129 0 215 -84 215 -218c0 -137 -101 -244 -265 -244zM305 107c72 0 111 49 111 113s-39 113 -111 113s-108 -50 -108 -113s36 -113 108 -113z" />
    <glyph glyph-name="seven.hgtb" horiz-adv-x="606" 
d="M101 -195v10l251 544h-314v121h515v-10l-293 -665h-159z" />
    <glyph glyph-name="eight.hgtb" horiz-adv-x="606" 
d="M303 -12c-174 0 -270 81 -270 210c0 91 67 154 144 172c-58 19 -122 72 -121 158c1 109 94 184 247 184c152 0 247 -72 247 -184c0 -86 -63 -139 -121 -158c77 -18 144 -81 144 -172c0 -127 -97 -210 -270 -210zM303 424c57 0 95 34 95 86s-38 84 -95 84s-95 -32 -95 -84
s38 -86 95 -86zM303 107c70 0 115 38 115 101s-44 99 -115 99s-115 -36 -115 -99s44 -101 115 -101z" />
    <glyph glyph-name="nine.hgtb" horiz-adv-x="606" 
d="M104 -192v10c95 37 231 127 275 270c-29 -28 -74 -46 -129 -46c-129 0 -215 78 -215 212c0 137 101 238 265 238c172 0 266 -104 266 -264c0 -180 -115 -350 -246 -420h-216zM301 159c68 0 108 44 108 107s-40 107 -108 107s-111 -43 -111 -107s43 -107 111 -107z" />
    <glyph glyph-name="uni00AD" unicode="&#xad;" horiz-adv-x="380" 
d="M45 229v132h290v-132h-290z" />
    </font>
</defs>
</svg>
