<?xml version="1.0" standalone="no"?>
<!DOCTYPE svg PUBLIC "-//W3C//DTD SVG 1.1//EN" "http://www.w3.org/Graphics/SVG/1.1/DTD/svg11.dtd" >
<svg xmlns="http://www.w3.org/2000/svg" xmlns:xlink="http://www.w3.org/1999/xlink" version="1.1">
<metadata>
Created by FontForge 20160407 at Wed Aug 31 16:37:34 2016
 By Jimmy Warting
Designed by Mike Abbink, Paul van der Laan &#38; Pieter van Rosmalen 2010. Produced by Bold Monday. For exclusive use by NBCUniversal and its affiliates only.
</metadata>
<defs>
<font id="Rock-SansNormal" horiz-adv-x="520" >
  <font-face 
    font-family="Rock Sans"
    font-weight="400"
    font-stretch="normal"
    units-per-em="1000"
    panose-1="2 11 5 0 0 0 0 0 0 0"
    ascent="771"
    descent="-229"
    x-height="468"
    cap-height="700"
    bbox="-63 -227 3442 899"
    underline-thickness="20"
    underline-position="-133"
    stemh="85"
    stemv="90"
    unicode-range="U+0020-FB02"
  />
<missing-glyph horiz-adv-x="305" 
d="M65 -210v920h175v-920h-175z" />
    <glyph glyph-name="fi" unicode="fi" horiz-adv-x="557" 
d="M115 0v394h-83v74h83v72c0 149 60 229 197 229c62 0 115 -17 154 -56l-52 -63c-21 24 -57 43 -105 43c-62 0 -104 -36 -104 -145v-80h275v-468h-90v394h-185v-394h-90z" />
    <glyph glyph-name="fl" unicode="fl" horiz-adv-x="571" 
d="M115 0v394h-83v74h83v104c0 132 66 197 177 197c91 0 130 -25 195 -25l7 -5v-739h-90v679c-26 10 -57 16 -102 16c-63 0 -97 -36 -97 -131v-96h120v-74h-120v-394h-90z" />
    <glyph glyph-name="f_b" unicode="fb" horiz-adv-x="907" 
d="M115 0v394h-83v74h83v104c0 132 66 197 177 197c91 0 130 -25 195 -25l7 -5v-337c40 50 100 78 165 78c128 0 212 -94 212 -246c0 -148 -95 -246 -220 -246c-68 0 -122 29 -160 80v-68h-87v679c-26 10 -57 16 -102 16c-63 0 -97 -36 -97 -131v-96h120v-74h-120v-394h-90z
M633 64c87 0 143 65 143 170s-56 171 -143 171s-143 -66 -143 -171s56 -170 143 -170z" />
    <glyph glyph-name="f_h" unicode="fh" horiz-adv-x="890" 
d="M115 0v394h-83v74h83v104c0 132 66 197 177 197c91 0 130 -25 195 -25l7 -5v-336c32 47 82 77 152 77c118 0 171 -77 171 -190v-290h-90v267c0 76 -28 134 -110 134c-86 0 -123 -65 -123 -144v-257h-90v679c-26 10 -57 16 -102 16c-63 0 -97 -36 -97 -131v-96h120v-74
h-120v-394h-90z" />
    <glyph glyph-name="f_j" unicode="fj" horiz-adv-x="557" 
d="M115 0v394h-83v74h83v72c0 149 60 229 197 229c62 0 115 -17 154 -56l-52 -63c-21 24 -57 43 -105 43c-62 0 -104 -36 -104 -145v-80h275v-523c0 -100 -43 -172 -152 -172c-43 0 -66 10 -78 18l17 79c12 -10 28 -17 47 -17c59 -1 76 36 76 102v439h-185v-394h-90z" />
    <glyph glyph-name="f_k" unicode="fk" horiz-adv-x="846" 
d="M115 0v394h-83v74h83v104c0 132 66 197 177 197c91 0 130 -25 195 -25l7 -5v-516l234 245h105v-6l-195 -194c80 -71 153 -175 185 -262v-6h-98c-23 67 -85 151 -146 206l-85 -87v-119h-90v679c-26 10 -57 16 -102 16c-63 0 -97 -36 -97 -131v-96h120v-74h-120v-394h-90z
" />
    <glyph glyph-name=".notdef" horiz-adv-x="305" 
d="M65 -210v920h175v-920h-175z" />
    <glyph glyph-name="Eth" unicode="&#xd0;" horiz-adv-x="705" 
d="M98 0v313h-56v82h56v305h158c246 0 399 -114 399 -348c0 -236 -153 -352 -399 -352h-158zM196 85h53c193 0 303 84 303 267s-110 263 -303 263h-53v-220h177v-82h-177v-228z" />
    <glyph glyph-name="eth" unicode="&#xf0;" horiz-adv-x="544" 
d="M279 -12c-150 0 -243 99 -243 244s95 248 229 248c48 0 86 -15 115 -38c-20 57 -45 106 -79 147l-141 -51l-21 58l117 43c-29 27 -71 53 -109 73l37 52c51 -21 106 -53 150 -97l142 52l21 -58l-119 -44c83 -100 130 -236 130 -364c0 -162 -94 -265 -229 -265zM272 63
c85 0 141 72 141 171s-53 171 -145 171c-81 0 -137 -72 -137 -171s56 -171 141 -171z" />
    <glyph glyph-name="Lslash" unicode="&#x141;" horiz-adv-x="516" 
d="M103 0v278l-61 -24v83l61 24v339h98v-301l173 68v-83l-173 -68v-231h287v-85h-385z" />
    <glyph glyph-name="lslash" unicode="&#x142;" horiz-adv-x="288" 
d="M99 0v315l-77 -33v83l77 33v359h90v-320l77 34v-83l-77 -34v-354h-90z" />
    <glyph glyph-name="Scaron" unicode="&#x160;" horiz-adv-x="596" 
d="M273 -12c-107 0 -197 29 -243 61l41 87c41 -34 121 -62 208 -62c119 0 171 53 171 117c0 87 -88 107 -180 129c-104 26 -212 67 -212 192c0 124 91 200 264 200c92 0 169 -27 207 -69l-48 -76c-40 38 -90 59 -160 59c-113 0 -161 -42 -161 -104c0 -84 82 -103 171 -124
c105 -25 221 -64 221 -197c0 -114 -76 -213 -279 -213zM297 735l-154 129l25 35l132 -67l132 67l25 -35l-154 -129h-6z" />
    <glyph glyph-name="scaron" unicode="&#x161;" horiz-adv-x="464" 
d="M226 -12c-79 0 -147 23 -190 55l40 68c29 -24 87 -49 157 -49c53 0 100 16 100 59c0 50 -60 65 -129 81c-76 18 -151 52 -151 141s70 137 187 137c82 0 140 -25 175 -69l-44 -62c-29 37 -78 61 -132 61c-55 0 -97 -22 -97 -64c0 -50 61 -63 130 -79
c77 -18 151 -54 151 -142s-77 -137 -197 -137zM234 520l-154 129l25 35l132 -67l132 67l25 -35l-154 -129h-6z" />
    <glyph glyph-name="Yacute" unicode="&#xdd;" horiz-adv-x="622" 
d="M263 0v261l-251 430v9h104l197 -353h2l195 353h100v-9l-249 -430v-261h-98zM253 735l-23 35l147 129l53 -81z" />
    <glyph glyph-name="yacute" unicode="&#xfd;" horiz-adv-x="508" 
d="M91 -227c-40 0 -66 10 -79 19l20 78c12 -11 31 -19 52 -19c65 0 83 36 111 104l18 43l-195 464v6h96l141 -358h2l142 358h91v-6l-220 -533c-40 -97 -85 -156 -179 -156zM196 520l-23 35l147 129l53 -81z" />
    <glyph glyph-name="Thorn" unicode="&#xde;" horiz-adv-x="627" 
d="M91 0v700h98v-121h135c181 0 265 -80 265 -215c0 -138 -84 -222 -265 -222h-135v-142h-98zM189 227h136c110 0 161 48 161 135c0 86 -51 132 -161 132h-136v-267z" />
    <glyph glyph-name="thorn" unicode="&#xfe;" horiz-adv-x="579" 
d="M77 -215v972h90v-355c40 50 100 78 165 78c128 0 212 -94 212 -246c0 -148 -95 -246 -220 -246c-66 0 -119 27 -157 76v-279h-90zM306 64c87 0 143 65 143 170s-56 171 -143 171s-143 -66 -143 -171s56 -170 143 -170z" />
    <glyph glyph-name="Zcaron" unicode="&#x17d;" horiz-adv-x="629" 
d="M45 0l-5 9l383 606h-361v85h519l4 -9l-382 -606h378v-85h-536zM320 735l-154 129l25 35l132 -67l132 67l25 -35l-154 -129h-6z" />
    <glyph glyph-name="zcaron" unicode="&#x17e;" horiz-adv-x="472" 
d="M27 0l-3 8l265 387h-242v73h385l3 -8l-265 -386h272v-74h-415zM234 520l-154 129l25 35l132 -67l132 67l25 -35l-154 -129h-6z" />
    <glyph glyph-name="brokenbar" unicode="&#xa6;" horiz-adv-x="314" 
d="M118 362v380h78v-380h-78zM118 -172v380h78v-380h-78z" />
    <glyph glyph-name="minus" unicode="&#x2212;" 
d="M24 258v76h472v-76h-472z" />
    <glyph glyph-name="multiply" unicode="&#xd7;" 
d="M100 82l-54 54l160 160l-160 160l54 54l160 -160l160 160l54 -54l-160 -160l160 -160l-54 -54l-160 160z" />
    <glyph glyph-name="space" unicode=" " horiz-adv-x="240" 
 />
    <glyph glyph-name="exclam" unicode="!" horiz-adv-x="312" 
d="M142 184l-58 536l10 12h125l9 -12l-58 -536h-28zM156 -10c-35 0 -68 27 -68 66c0 38 33 65 68 65s67 -27 67 -65c0 -39 -32 -66 -67 -66z" />
    <glyph glyph-name="quotedbl" unicode="&#x22;" horiz-adv-x="350" 
d="M83 472l-36 249l5 11h94l5 -11l-36 -249h-32zM235 472l-36 249l5 11h94l5 -11l-36 -249h-32z" />
    <glyph glyph-name="numbersign" unicode="#" horiz-adv-x="666" 
d="M132 48l16 153h-91l8 68h91l17 160h-95l7 67h95l16 147h76l-16 -147h186l16 147h76l-16 -147h94l-7 -67h-94l-17 -160h98l-8 -68h-98l-16 -153h-76l16 153h-186l-16 -153h-76zM232 269h186l17 160h-186z" />
    <glyph glyph-name="dollar" unicode="$" horiz-adv-x="588" 
d="M265 -68v69c-94 3 -180 31 -222 60l37 83c35 -30 104 -62 189 -65v242c-106 32 -208 76 -208 190c0 105 77 175 204 186v63h70v-63c83 -7 154 -43 188 -92l-53 -67c-36 47 -81 75 -139 82v-228c107 -34 212 -73 212 -189c0 -96 -63 -183 -208 -199v-72h-70zM163 519
c0 -60 47 -86 106 -107v208c-72 -9 -106 -45 -106 -101zM441 193c0 60 -48 87 -110 109v-220c75 12 110 55 110 111z" />
    <glyph glyph-name="percent" unicode="%" horiz-adv-x="983" 
d="M235 306c-113 0 -187 85 -187 203c0 116 75 203 187 203c113 0 187 -85 187 -203c0 -116 -75 -203 -187 -203zM235 378c65 0 106 53 106 131s-41 131 -106 131s-106 -53 -106 -131s41 -131 106 -131zM224 0l-2 5l456 695h79l2 -5l-456 -695h-79zM748 -12
c-113 0 -187 85 -187 203c0 116 75 203 187 203c113 0 187 -85 187 -203c0 -116 -75 -203 -187 -203zM748 60c65 0 106 53 106 131s-41 131 -106 131s-106 -53 -106 -131s41 -131 106 -131z" />
    <glyph glyph-name="ampersand" unicode="&#x26;" horiz-adv-x="754" 
d="M271 -12c-146 0 -233 88 -233 195c0 91 64 168 145 201c-59 59 -81 98 -81 151c0 112 92 177 219 177c76 0 148 -23 184 -64l-56 -73c-33 35 -77 52 -127 52c-84 0 -119 -39 -119 -89c0 -43 29 -70 69 -108l235 -228c23 41 33 92 33 145c0 43 -6 65 -16 85v9h186v-85h-78
c-5 -78 -22 -155 -63 -214l138 -133v-9h-125l-76 73c-60 -52 -141 -85 -235 -85zM287 73c62 0 116 23 158 58l-211 204c-47 -30 -94 -77 -94 -140c0 -76 65 -122 147 -122z" />
    <glyph glyph-name="quotesingle" unicode="'" horiz-adv-x="198" 
d="M83 472l-36 249l5 11h94l5 -11l-36 -249h-32z" />
    <glyph glyph-name="parenleft" unicode="(" horiz-adv-x="360" 
d="M58 286c0 227 117 379 264 465l30 -30c-111 -90 -200 -233 -200 -436s89 -346 200 -436l-30 -30c-147 86 -264 238 -264 467z" />
    <glyph glyph-name="parenright" unicode=")" horiz-adv-x="360" 
d="M302 286c0 -229 -117 -381 -264 -467l-30 30c111 90 200 233 200 436s-89 346 -200 436l30 30c147 -86 264 -238 264 -465z" />
    <glyph glyph-name="asterisk" unicode="*" horiz-adv-x="537" 
d="M181 288l-87 63l-1 8l152 133l-201 18l-4 7l33 102l8 4l172 -103l-44 196l6 6h107l6 -6l-45 -196l173 103l8 -4l33 -102l-4 -7l-201 -18l152 -133l-1 -8l-87 -63l-8 1l-80 185l-79 -185z" />
    <glyph glyph-name="plus" unicode="+" 
d="M219 64v194h-195v76h195v194h82v-194h195v-76h-195v-194h-82z" />
    <glyph glyph-name="comma" unicode="," horiz-adv-x="252" 
d="M129 124c30 0 65 -17 65 -82c0 -75 -46 -155 -104 -188l-38 29v4c34 26 73 64 73 111c-36 0 -67 22 -67 60c0 39 31 66 71 66z" />
    <glyph glyph-name="hyphen" unicode="-" horiz-adv-x="346" 
d="M58 251v90h232v-90h-232z" />
    <glyph glyph-name="period" unicode="." horiz-adv-x="252" 
d="M126 -10c-35 0 -68 27 -68 66c0 38 33 65 68 65s67 -27 67 -65c0 -39 -32 -66 -67 -66z" />
    <glyph glyph-name="slash" unicode="/" horiz-adv-x="379" 
d="M-30 -172l-2 6l322 908h75l2 -6l-322 -908h-75z" />
    <glyph glyph-name="zero" unicode="0" horiz-adv-x="675" 
d="M338 -12c-177 0 -282 144 -282 362c0 214 107 362 282 362c177 0 281 -144 281 -362c0 -214 -107 -362 -281 -362zM338 73c114 0 180 109 180 277c0 169 -66 277 -180 277c-115 0 -181 -108 -181 -277c0 -168 66 -277 181 -277z" />
    <glyph glyph-name="one" unicode="1" horiz-adv-x="409" 
d="M174 0v613h-104v9l20 78h182v-700h-98z" />
    <glyph glyph-name="two" unicode="2" horiz-adv-x="557" 
d="M27 0l-4 10c170 172 334 347 334 484c0 83 -52 130 -136 130c-54 0 -109 -25 -143 -57l-54 68c53 48 124 77 210 77c157 0 227 -96 227 -207c0 -147 -138 -294 -254 -420h299v-85h-479z" />
    <glyph glyph-name="three" unicode="3" horiz-adv-x="533" 
d="M223 -12c-84 0 -151 23 -202 72l54 69c33 -33 80 -56 149 -56c106 0 156 59 156 138c0 82 -53 137 -178 137c-12 0 -26 -1 -36 -3l-5 6l175 264h-289v85h431l7 -10l-180 -276c93 -10 177 -92 177 -205c0 -137 -105 -221 -259 -221z" />
    <glyph glyph-name="four" unicode="4" horiz-adv-x="647" 
d="M384 0v167h-362l-3 9l293 524h94l4 -9l-246 -439h220v167l89 71h9v-238h132v-85h-132v-167h-98z" />
    <glyph glyph-name="five" unicode="5" horiz-adv-x="587" 
d="M242 -12c-84 0 -156 25 -207 74l54 69c33 -33 83 -58 151 -58c104 0 169 57 169 145c0 89 -60 142 -187 142c-42 0 -88 -6 -126 -16l-8 6l42 350h358v-85h-276l-21 -184c29 7 61 10 90 10c137 0 230 -89 230 -221c0 -146 -110 -232 -269 -232z" />
    <glyph glyph-name="six" unicode="6" horiz-adv-x="618" 
d="M311 -12c-138 0 -256 86 -256 249c0 165 113 365 268 463h137v-10c-116 -52 -221 -170 -270 -289c32 30 83 56 149 56c136 0 228 -97 228 -229c0 -148 -114 -240 -256 -240zM312 70c91 0 154 63 154 153c0 91 -63 155 -154 155c-92 0 -155 -64 -155 -155
c0 -90 63 -153 155 -153z" />
    <glyph glyph-name="seven" unicode="7" horiz-adv-x="514" 
d="M107 0v9l268 606h-346v85h476v-9l-298 -691h-100z" />
    <glyph glyph-name="eight" unicode="8" horiz-adv-x="615" 
d="M307 -12c-169 0 -260 84 -260 204c0 84 47 142 129 176c-76 38 -109 93 -109 158c0 107 83 186 243 186c157 0 238 -78 238 -186c0 -62 -30 -118 -110 -158c83 -34 130 -91 130 -175c0 -118 -90 -205 -261 -205zM308 407c90 0 137 39 137 111s-47 112 -137 112
c-91 0 -138 -40 -138 -112s47 -111 138 -111zM308 71c107 0 157 53 157 130c0 78 -50 131 -157 131s-158 -53 -158 -131c0 -77 51 -130 158 -130z" />
    <glyph glyph-name="nine" unicode="9" horiz-adv-x="618" 
d="M158 0v10c116 52 221 170 270 289c-32 -30 -83 -56 -149 -56c-136 0 -228 97 -228 229c0 148 114 240 256 240c138 0 256 -86 256 -249c0 -165 -111 -365 -266 -463h-139zM306 322c92 0 155 64 155 155c0 90 -63 153 -155 153c-91 0 -154 -63 -154 -153
c0 -91 63 -155 154 -155z" />
    <glyph glyph-name="colon" unicode=":" horiz-adv-x="252" 
d="M126 347c-35 0 -68 27 -68 66c0 38 33 65 68 65s67 -27 67 -65c0 -39 -32 -66 -67 -66zM126 -10c-35 0 -68 27 -68 66c0 38 33 65 68 65s67 -27 67 -65c0 -39 -32 -66 -67 -66z" />
    <glyph glyph-name="semicolon" unicode=";" horiz-adv-x="252" 
d="M126 347c-35 0 -68 27 -68 66c0 38 33 65 68 65s67 -27 67 -65c0 -39 -32 -66 -67 -66zM129 124c30 0 65 -17 65 -82c0 -75 -46 -155 -104 -188l-38 29v4c34 26 73 64 73 111c-36 0 -67 22 -67 60c0 39 31 66 71 66z" />
    <glyph glyph-name="less" unicode="&#x3c;" 
d="M408 43l-376 249v8l376 249l45 -65l-279 -186v-2l279 -186z" />
    <glyph glyph-name="equal" unicode="=" 
d="M45 358v80h430v-80h-430zM45 150v80h430v-80h-430z" />
    <glyph glyph-name="greater" unicode="&#x3e;" 
d="M112 43l-45 65l279 186v2l-279 186l45 67l376 -249v-8z" />
    <glyph glyph-name="question" unicode="?" horiz-adv-x="466" 
d="M452 566c0 -99 -52 -156 -175 -216c-51 -25 -80 -54 -91 -110l-11 -56h-15c-18 23 -54 68 -52 118c2 45 27 76 113 121c65 34 128 62 128 132c0 59 -46 94 -127 94c-71 0 -121 -24 -152 -49l-37 90c37 24 117 45 198 45c128 0 221 -49 221 -169zM177 -10
c-35 0 -68 27 -68 66c0 38 33 65 68 65s67 -27 67 -65c0 -39 -32 -66 -67 -66z" />
    <glyph glyph-name="at" unicode="@" horiz-adv-x="882" 
d="M395 -149c-212 0 -347 141 -347 364c0 259 183 459 447 459c234 0 339 -163 339 -337c0 -186 -121 -284 -230 -284c-59 0 -86 30 -93 64c-29 -39 -81 -65 -136 -65c-81 0 -135 56 -135 163c0 131 83 263 205 263c67 0 108 -39 119 -83l16 73h64l-66 -303
c-7 -34 -1 -60 36 -60c66 0 149 75 149 231s-83 278 -268 278c-227 0 -369 -172 -369 -401c0 -196 105 -311 298 -311c79 0 143 19 189 47l18 -31c-46 -39 -142 -67 -236 -67zM398 113c91 0 137 106 137 195c0 62 -22 109 -83 109c-91 0 -137 -106 -137 -195
c0 -62 22 -109 83 -109z" />
    <glyph glyph-name="A" unicode="A" horiz-adv-x="676" 
d="M12 0v9l322 722h8l322 -722v-9h-103l-50 120h-347l-51 -120h-101zM197 204h279l-138 329h-1z" />
    <glyph glyph-name="B" unicode="B" horiz-adv-x="677" 
d="M91 0v700h282c155 0 225 -66 225 -177c0 -81 -38 -133 -115 -158v-2c85 -22 140 -83 140 -169c0 -117 -84 -194 -265 -194h-267zM189 405h175c91 0 131 31 131 106c0 60 -38 105 -131 105h-175v-211zM189 84h170c110 0 161 41 161 118c0 76 -51 119 -161 119h-170v-237z
" />
    <glyph glyph-name="C" unicode="C" horiz-adv-x="646" 
d="M377 -12c-190 0 -335 135 -335 361c0 227 146 363 340 363c111 0 193 -45 234 -123l-69 -57c-27 52 -77 95 -164 95c-141 0 -238 -106 -238 -276c0 -166 93 -278 237 -278c81 0 138 36 169 73l54 -71c-52 -50 -128 -87 -228 -87z" />
    <glyph glyph-name="D" unicode="D" horiz-adv-x="698" 
d="M91 0v700h158c246 0 399 -114 399 -348c0 -236 -153 -352 -399 -352h-158zM189 85h53c193 0 303 84 303 267s-110 263 -303 263h-53v-530z" />
    <glyph glyph-name="E" unicode="E" horiz-adv-x="580" 
d="M91 0v700h437v-85h-339v-211h287v-85h-287v-234h339v-85h-437z" />
    <glyph glyph-name="F" unicode="F" horiz-adv-x="559" 
d="M91 0v700h438v-85h-340v-228h254v-85h-254v-302h-98z" />
    <glyph glyph-name="G" unicode="G" horiz-adv-x="712" 
d="M390 -12c-194 0 -348 129 -348 359c0 233 159 365 349 365c99 0 180 -36 227 -87l-54 -71c-29 34 -85 73 -171 73c-137 0 -248 -94 -248 -277c0 -176 103 -277 250 -277c62 0 114 19 147 44v210h98v-242c-56 -54 -143 -97 -250 -97z" />
    <glyph glyph-name="H" unicode="H" horiz-adv-x="744" 
d="M91 0v700h98v-296h366v296h98v-700h-98v318h-366v-318h-98z" />
    <glyph glyph-name="I" unicode="I" horiz-adv-x="280" 
d="M91 0v700h98v-700h-98z" />
    <glyph glyph-name="J" unicode="J" horiz-adv-x="485" 
d="M185 -12c-76 0 -137 29 -172 66l56 67c28 -30 63 -46 108 -46c83 0 126 48 126 149v391h-198v85h296v-479c0 -154 -83 -233 -216 -233z" />
    <glyph glyph-name="K" unicode="K" horiz-adv-x="680" 
d="M91 0v700h98v-355l316 355h113v-9l-257 -281c135 -87 242 -259 307 -401v-9h-109c-45 121 -160 276 -259 341l-111 -123v-218h-98z" />
    <glyph glyph-name="L" unicode="L" horiz-adv-x="504" 
d="M91 0v700h98v-615h287v-85h-385z" />
    <glyph glyph-name="M" unicode="M" horiz-adv-x="897" 
d="M91 0v728h10l348 -406l347 406h10v-728h-94v488l-262 -303h-2l-263 304v-489h-94z" />
    <glyph glyph-name="N" unicode="N" horiz-adv-x="777" 
d="M91 0v729h10l491 -527v498h94v-720h-10l-491 523v-503h-94z" />
    <glyph glyph-name="O" unicode="O" horiz-adv-x="762" 
d="M381 -12c-194 0 -339 133 -339 362c0 221 145 362 339 362s339 -133 339 -362c0 -220 -145 -362 -339 -362zM381 73c141 0 236 109 236 277s-95 278 -236 278s-236 -110 -236 -278s95 -277 236 -277z" />
    <glyph glyph-name="P" unicode="P" horiz-adv-x="623" 
d="M91 0v700h233c181 0 265 -80 265 -215c0 -138 -84 -222 -265 -222h-135v-263h-98zM189 348h136c110 0 161 48 161 135c0 86 -51 132 -161 132h-136v-267z" />
    <glyph glyph-name="Q" unicode="Q" horiz-adv-x="762" 
d="M557 -152l-77 110c-15 20 -30 30 -62 30h-29c-202 0 -347 133 -347 362c0 221 145 362 339 362s339 -133 339 -362c0 -155 -72 -273 -182 -327c10 -7 21 -16 33 -31l114 -135v-9h-128zM381 73c141 0 236 109 236 277s-95 278 -236 278s-236 -110 -236 -278
s95 -277 236 -277z" />
    <glyph glyph-name="R" unicode="R" horiz-adv-x="656" 
d="M85 0v700h233c181 0 265 -81 265 -209c0 -103 -65 -179 -174 -205c109 -53 164 -166 193 -277v-9h-108c-20 122 -101 223 -194 261h-117v-261h-98zM183 345h136c110 0 161 51 161 138c0 86 -51 132 -161 132h-136v-270z" />
    <glyph glyph-name="S" unicode="S" horiz-adv-x="596" 
d="M273 -12c-107 0 -197 29 -243 61l41 87c41 -34 121 -62 208 -62c119 0 171 53 171 117c0 87 -88 107 -180 129c-104 26 -212 67 -212 192c0 124 91 200 264 200c92 0 169 -27 207 -69l-48 -76c-40 38 -90 59 -160 59c-113 0 -161 -42 -161 -104c0 -84 82 -103 171 -124
c105 -25 221 -64 221 -197c0 -114 -76 -213 -279 -213z" />
    <glyph glyph-name="T" unicode="T" horiz-adv-x="581" 
d="M241 0v615h-215v85h529v-85h-216v-615h-98z" />
    <glyph glyph-name="U" unicode="U" horiz-adv-x="701" 
d="M350 -12c-159 0 -270 97 -270 271v441h98v-423c0 -132 66 -202 173 -202c108 0 172 70 172 202v423h98v-441c0 -174 -112 -271 -271 -271z" />
    <glyph glyph-name="V" unicode="V" horiz-adv-x="676" 
d="M334 -31l-322 722v9h104l222 -533h1l223 533h102v-9l-321 -722h-9z" />
    <glyph glyph-name="W" unicode="W" horiz-adv-x="980" 
d="M287 -31l-269 722v9h97l180 -476h4l186 506h9l188 -506h4l181 476h95v-9l-269 -722h-9l-194 522l-194 -522h-9z" />
    <glyph glyph-name="X" unicode="X" horiz-adv-x="639" 
d="M22 0v9l239 345l-230 337v9h111l179 -260l180 260h107v-9l-231 -334l240 -348v-9h-112l-187 272l-188 -272h-108z" />
    <glyph glyph-name="Y" unicode="Y" horiz-adv-x="622" 
d="M263 0v261l-251 430v9h104l197 -353h2l195 353h100v-9l-249 -430v-261h-98z" />
    <glyph glyph-name="Z" unicode="Z" horiz-adv-x="625" 
d="M43 0l-5 9l383 606h-361v85h519l4 -9l-382 -606h378v-85h-536z" />
    <glyph glyph-name="bracketleft" unicode="[" horiz-adv-x="410" 
d="M130 -172v914h198v-54l-111 -8v-790l111 -8v-54h-198z" />
    <glyph glyph-name="backslash" unicode="\" horiz-adv-x="379" 
d="M334 -172l-321 908l2 6h75l321 -908l-2 -6h-75z" />
    <glyph glyph-name="bracketright" unicode="]" horiz-adv-x="410" 
d="M82 -172v51l111 8v796l-111 8v51h198v-914h-198z" />
    <glyph glyph-name="asciicircum" unicode="^" 
d="M38 301v6l217 403h8l219 -403v-6h-89l-132 257h-2l-132 -257h-89z" />
    <glyph glyph-name="underscore" unicode="_" horiz-adv-x="392" 
d="M0 -76v76h392v-76h-392z" />
    <glyph glyph-name="grave" unicode="`" horiz-adv-x="440" 
d="M280 520l-177 83l53 81l147 -129z" />
    <glyph glyph-name="a" unicode="a" horiz-adv-x="506" 
d="M192 -12c-89 0 -156 51 -156 135c0 83 65 136 199 143c54 3 107 12 107 62c0 46 -37 75 -109 75c-65 0 -104 -21 -127 -43l-44 60c38 35 98 60 182 60c130 0 188 -63 188 -177v-243c0 -23 -2 -31 14 -45l10 -9v-6h-110v71c-27 -48 -79 -83 -154 -83zM214 57
c81 0 128 68 128 126v47c-14 -14 -50 -22 -91 -25c-79 -6 -122 -30 -122 -78c0 -41 32 -70 85 -70z" />
    <glyph glyph-name="b" unicode="b" horiz-adv-x="580" 
d="M324 -12c-68 0 -122 29 -160 80v-68h-87v757h90v-355c40 50 100 78 165 78c128 0 212 -94 212 -246c0 -148 -95 -246 -220 -246zM306 64c87 0 143 65 143 170s-56 171 -143 171s-143 -66 -143 -171s56 -170 143 -170z" />
    <glyph glyph-name="c" unicode="c" horiz-adv-x="454" 
d="M262 -12c-138 0 -226 106 -226 246c0 158 103 246 227 246c89 0 145 -37 174 -93l-57 -50c-28 48 -71 69 -122 69c-65 0 -127 -52 -127 -171c0 -116 63 -170 140 -170c56 0 99 26 114 46l48 -60c-32 -31 -88 -63 -171 -63z" />
    <glyph glyph-name="d" unicode="d" horiz-adv-x="580" 
d="M248 -12c-128 0 -212 95 -212 246c0 149 95 246 220 246c65 0 119 -28 157 -77v354h90v-757h-87v69c-41 -52 -100 -81 -168 -81zM274 64c87 0 144 65 144 170s-57 171 -144 171c-86 0 -143 -66 -143 -171s57 -170 143 -170z" />
    <glyph glyph-name="e" unicode="e" horiz-adv-x="511" 
d="M266 -12c-145 0 -230 100 -230 238c0 147 88 254 231 254c145 0 210 -109 210 -240c0 -11 -1 -23 -3 -33h-345c4 -83 62 -142 147 -142c66 0 110 27 133 51l47 -65c-36 -31 -99 -63 -190 -63zM263 409c-79 0 -123 -63 -132 -136h256c-6 77 -48 136 -124 136z" />
    <glyph glyph-name="f" unicode="f" horiz-adv-x="341" 
d="M115 0v394h-83v74h83v111c0 132 56 190 157 190c46 0 87 -13 118 -35l-39 -69c-15 16 -39 30 -69 30c-53 0 -77 -29 -77 -124v-103h130v-74h-130v-394h-90z" />
    <glyph glyph-name="g" unicode="g" horiz-adv-x="509" 
d="M243 -227c-141 0 -237 38 -237 119c0 57 47 94 92 110v3c-2 2 -34 16 -34 59c0 40 17 74 60 100c-47 30 -77 80 -77 141c0 107 92 175 203 175c31 0 61 -6 90 -17c0 60 42 109 110 109c25 0 45 -8 60 -17l-27 -76c-8 7 -20 12 -35 12c-36 0 -57 -20 -64 -50
c42 -32 69 -79 69 -136c0 -107 -92 -176 -203 -176c-27 0 -55 4 -80 13c-18 -15 -30 -31 -30 -51c0 -30 32 -39 78 -39h120c118 0 175 -46 175 -124c0 -91 -85 -155 -270 -155zM250 196c65 0 112 47 112 109c0 61 -47 109 -112 109c-64 0 -112 -48 -112 -109
c0 -62 48 -109 112 -109zM254 -164c132 0 165 44 165 82c0 41 -37 58 -96 58h-134c-70 0 -94 -30 -94 -62c0 -37 33 -78 159 -78z" />
    <glyph glyph-name="h" unicode="h" horiz-adv-x="563" 
d="M77 0v757h90v-354c32 47 82 77 152 77c118 0 171 -77 171 -190v-290h-90v267c0 76 -28 134 -110 134c-86 0 -123 -65 -123 -144v-257h-90z" />
    <glyph glyph-name="i" unicode="i" horiz-adv-x="244" 
d="M122 580c-32 0 -60 24 -60 60c0 35 28 59 60 59c33 0 61 -24 61 -59c0 -36 -28 -60 -61 -60zM77 0v468h90v-468h-90z" />
    <glyph glyph-name="j" unicode="j" horiz-adv-x="244" 
d="M122 580c-32 0 -60 24 -60 60c0 35 28 59 60 59s61 -24 61 -59c0 -36 -29 -60 -61 -60zM15 -227c-43 0 -66 10 -78 18l17 79c12 -10 28 -17 47 -17c59 -1 76 36 76 102v513h90v-523c0 -100 -43 -172 -152 -172z" />
    <glyph glyph-name="k" unicode="k" horiz-adv-x="519" 
d="M77 0v757h90v-534l234 245h105v-6l-195 -194c80 -71 153 -175 185 -262v-6h-98c-23 67 -85 151 -146 206l-85 -87v-119h-90z" />
    <glyph glyph-name="l" unicode="l" horiz-adv-x="244" 
d="M77 0v757h90v-757h-90z" />
    <glyph glyph-name="m" unicode="m" horiz-adv-x="864" 
d="M77 0v468h86v-83c30 55 82 95 152 95s118 -33 144 -89c32 52 92 89 167 89c110 0 165 -77 165 -190v-290h-90v267c0 76 -29 134 -104 134c-79 0 -118 -65 -118 -144v-257h-90v267c0 76 -28 134 -104 134c-79 0 -118 -65 -118 -144v-257h-90z" />
    <glyph glyph-name="n" unicode="n" horiz-adv-x="563" 
d="M77 0v468h86v-66c31 49 85 78 156 78c118 0 171 -77 171 -190v-290h-90v267c0 76 -28 134 -110 134c-86 0 -123 -65 -123 -144v-257h-90z" />
    <glyph glyph-name="o" unicode="o" horiz-adv-x="548" 
d="M274 -12c-142 0 -238 99 -238 246c0 143 100 246 238 246c143 0 238 -98 238 -246c0 -143 -99 -246 -238 -246zM274 63c87 0 143 70 143 171s-56 172 -143 172c-86 0 -143 -71 -143 -172s57 -171 143 -171z" />
    <glyph glyph-name="p" unicode="p" horiz-adv-x="580" 
d="M77 -215v683h87v-70c40 53 100 82 168 82c128 0 212 -94 212 -246c0 -148 -95 -246 -220 -246c-66 0 -119 27 -157 76v-279h-90zM306 64c87 0 143 65 143 170s-56 171 -143 171s-143 -66 -143 -171s56 -170 143 -170z" />
    <glyph glyph-name="q" unicode="q" horiz-adv-x="581" 
d="M414 -215v280c-40 -48 -100 -77 -166 -77c-128 0 -212 95 -212 246c0 149 95 246 220 246c67 0 122 -29 161 -81v69h87v-683h-90zM274 64c87 0 144 65 144 170s-57 171 -144 171c-86 0 -143 -66 -143 -171s57 -170 143 -170z" />
    <glyph glyph-name="r" unicode="r" horiz-adv-x="384" 
d="M77 0v468h86v-86c28 60 70 98 141 98c30 0 60 -9 72 -18l-31 -96c-15 16 -41 27 -75 27c-67 0 -103 -57 -103 -155v-238h-90z" />
    <glyph glyph-name="s" unicode="s" horiz-adv-x="464" 
d="M226 -12c-79 0 -147 23 -190 55l40 68c29 -24 87 -49 157 -49c53 0 100 16 100 59c0 50 -60 65 -129 81c-76 18 -151 52 -151 141s70 137 187 137c82 0 140 -25 175 -69l-44 -62c-29 37 -78 61 -132 61c-55 0 -97 -22 -97 -64c0 -50 61 -63 130 -79
c77 -18 151 -54 151 -142s-77 -137 -197 -137z" />
    <glyph glyph-name="t" unicode="t" horiz-adv-x="351" 
d="M228 -12c-94 0 -133 51 -133 140v266h-74v74h74v116l84 62h6v-178h123v-74h-123v-246c0 -52 14 -82 60 -82c30 0 49 11 63 27l28 -71c-19 -20 -56 -34 -108 -34z" />
    <glyph glyph-name="u" unicode="u" horiz-adv-x="563" 
d="M244 -12c-118 0 -171 78 -171 191v289h90v-266c0 -77 28 -134 110 -134c86 0 123 64 123 143v257h90v-468h-86v67c-33 -50 -86 -79 -156 -79z" />
    <glyph glyph-name="v" unicode="v" horiz-adv-x="488" 
d="M240 -19l-232 481v6h100l136 -315h2l136 315h98v-6l-232 -481h-8z" />
    <glyph glyph-name="w" unicode="w" horiz-adv-x="716" 
d="M220 -19l-211 481v6h93l121 -297h2l131 312h6l130 -312h2l122 297h91v-6l-211 -481h-7l-130 317h-2l-130 -317h-7z" />
    <glyph glyph-name="x" unicode="x" horiz-adv-x="494" 
d="M16 0v6l179 239l-162 217v6h98l116 -159l116 159h98v-6l-163 -217l180 -239v-6h-98l-133 181l-133 -181h-98z" />
    <glyph glyph-name="y" unicode="y" horiz-adv-x="508" 
d="M91 -227c-40 0 -66 10 -79 19l20 78c12 -11 31 -19 52 -19c65 0 83 36 111 104l18 43l-195 464v6h96l141 -358h2l142 358h91v-6l-220 -533c-40 -97 -85 -156 -179 -156z" />
    <glyph glyph-name="z" unicode="z" horiz-adv-x="472" 
d="M27 0l-3 8l265 387h-242v73h385l3 -8l-265 -386h272v-74h-415z" />
    <glyph glyph-name="braceleft" unicode="{" horiz-adv-x="400" 
d="M115 76c0 43 6 88 6 114c0 54 -17 72 -75 72v46c58 0 75 18 75 72c0 26 -6 71 -6 114c0 190 117 246 270 257l7 -39c-111 -27 -193 -75 -193 -225c0 -38 5 -75 5 -103c0 -43 -5 -85 -63 -98v-2c58 -13 63 -55 63 -98c0 -28 -5 -65 -5 -103c0 -150 82 -198 193 -228
l-7 -36c-153 11 -270 67 -270 257z" />
    <glyph glyph-name="bar" unicode="|" horiz-adv-x="314" 
d="M118 -172v914h78v-914h-78z" />
    <glyph glyph-name="braceright" unicode="}" horiz-adv-x="400" 
d="M285 76c0 -190 -117 -246 -270 -257l-7 36c111 30 193 78 193 228c0 38 -5 75 -5 103c0 43 5 85 63 98v2c-58 13 -63 55 -63 98c0 28 5 65 5 103c0 150 -82 198 -193 225l7 39c153 -11 270 -67 270 -257c0 -43 -6 -88 -6 -114c0 -54 17 -72 75 -72v-46
c-58 0 -75 -18 -75 -72c0 -26 6 -71 6 -114z" />
    <glyph glyph-name="asciitilde" unicode="~" horiz-adv-x="460" 
d="M313 225c-65 0 -119 59 -162 59c-28 0 -52 -24 -67 -65l-50 13c6 83 51 131 113 131c65 0 119 -59 162 -59c28 0 52 24 67 65l50 -13c-6 -83 -51 -131 -113 -131z" />
    <glyph glyph-name="Adieresis" unicode="&#xc4;" horiz-adv-x="676" 
d="M12 0v9l322 722h8l322 -722v-9h-103l-50 120h-347l-51 -120h-101zM197 204h279l-138 329h-1zM236 749c-31 0 -59 24 -59 58s28 58 59 58s59 -24 59 -58s-28 -58 -59 -58zM440 749c-31 0 -59 24 -59 58s28 58 59 58s59 -24 59 -58s-28 -58 -59 -58z" />
    <glyph glyph-name="Aring" unicode="&#xc5;" horiz-adv-x="676" 
d="M12 0v9l280 629c-35 15 -59 47 -59 91c0 59 49 100 105 100c58 0 105 -39 105 -100c0 -43 -25 -75 -60 -91l281 -629v-9h-103l-50 120h-347l-51 -120h-101zM338 675c32 0 54 22 54 54s-22 54 -54 54s-54 -22 -54 -54s22 -54 54 -54zM197 204h279l-138 329h-1z" />
    <glyph glyph-name="Ccedilla" unicode="&#xc7;" horiz-adv-x="646" 
d="M340 -215c-40 0 -73 14 -95 36l29 36c14 -13 34 -23 63 -23c26 0 48 13 48 39c0 27 -21 41 -51 41c-19 0 -36 -2 -47 -7l-9 7l51 77c-166 20 -287 151 -287 358c0 227 146 359 340 359c111 0 193 -45 234 -123l-69 -57c-27 52 -77 95 -164 95c-141 0 -238 -102 -238 -272
c0 -166 93 -278 237 -278c81 0 138 36 169 73l54 -71c-51 -49 -124 -85 -220 -87l-27 -35c47 0 90 -21 90 -78c0 -59 -50 -90 -108 -90z" />
    <glyph glyph-name="Eacute" unicode="&#xc9;" horiz-adv-x="580" 
d="M91 0v700h437v-85h-339v-211h287v-85h-287v-234h339v-85h-437zM250 735l-23 35l147 129l53 -81z" />
    <glyph glyph-name="Ntilde" unicode="&#xd1;" horiz-adv-x="777" 
d="M91 0v729h10l491 -527v498h94v-720h-10l-491 523v-503h-94zM457 749c-54 0 -99 54 -135 54c-23 0 -43 -22 -56 -59l-41 12c5 75 42 119 94 119c54 0 99 -54 135 -54c23 0 43 22 56 59l41 -12c-5 -75 -42 -119 -94 -119z" />
    <glyph glyph-name="Odieresis" unicode="&#xd6;" horiz-adv-x="762" 
d="M381 -12c-194 0 -339 133 -339 362c0 221 145 362 339 362s339 -133 339 -362c0 -220 -145 -362 -339 -362zM381 73c141 0 236 109 236 277s-95 278 -236 278s-236 -110 -236 -278s95 -277 236 -277zM278 749c-31 0 -59 24 -59 58s28 58 59 58s59 -24 59 -58
s-28 -58 -59 -58zM482 749c-31 0 -59 24 -59 58s28 58 59 58s59 -24 59 -58s-28 -58 -59 -58z" />
    <glyph glyph-name="Udieresis" unicode="&#xdc;" horiz-adv-x="701" 
d="M350 -12c-159 0 -270 97 -270 271v441h98v-423c0 -132 66 -202 173 -202c108 0 172 70 172 202v423h98v-441c0 -174 -112 -271 -271 -271zM248 749c-31 0 -59 24 -59 58s28 58 59 58s59 -24 59 -58s-28 -58 -59 -58zM452 749c-31 0 -59 24 -59 58s28 58 59 58
s59 -24 59 -58s-28 -58 -59 -58z" />
    <glyph glyph-name="aacute" unicode="&#xe1;" horiz-adv-x="506" 
d="M192 -12c-89 0 -156 51 -156 135c0 83 65 136 199 143c54 3 107 12 107 62c0 46 -37 75 -109 75c-65 0 -104 -21 -127 -43l-44 60c38 35 98 60 182 60c130 0 188 -63 188 -177v-243c0 -23 -2 -31 14 -45l10 -9v-6h-110v71c-27 -48 -79 -83 -154 -83zM214 57
c81 0 128 68 128 126v47c-14 -14 -50 -22 -91 -25c-79 -6 -122 -30 -122 -78c0 -41 32 -70 85 -70zM187 520l-23 35l147 129l53 -81z" />
    <glyph glyph-name="agrave" unicode="&#xe0;" horiz-adv-x="506" 
d="M192 -12c-89 0 -156 51 -156 135c0 83 65 136 199 143c54 3 107 12 107 62c0 46 -37 75 -109 75c-65 0 -104 -21 -127 -43l-44 60c38 35 98 60 182 60c130 0 188 -63 188 -177v-243c0 -23 -2 -31 14 -45l10 -9v-6h-110v71c-27 -48 -79 -83 -154 -83zM214 57
c81 0 128 68 128 126v47c-14 -14 -50 -22 -91 -25c-79 -6 -122 -30 -122 -78c0 -41 32 -70 85 -70zM307 520l-177 83l53 81l147 -129z" />
    <glyph glyph-name="acircumflex" unicode="&#xe2;" horiz-adv-x="506" 
d="M192 -12c-89 0 -156 51 -156 135c0 83 65 136 199 143c54 3 107 12 107 62c0 46 -37 75 -109 75c-65 0 -104 -21 -127 -43l-44 60c38 35 98 60 182 60c130 0 188 -63 188 -177v-243c0 -23 -2 -31 14 -45l10 -9v-6h-110v71c-27 -48 -79 -83 -154 -83zM214 57
c81 0 128 68 128 126v47c-14 -14 -50 -22 -91 -25c-79 -6 -122 -30 -122 -78c0 -41 32 -70 85 -70zM115 520l-25 35l154 129h6l154 -129l-25 -35l-132 67z" />
    <glyph glyph-name="adieresis" unicode="&#xe4;" horiz-adv-x="506" 
d="M192 -12c-89 0 -156 51 -156 135c0 83 65 136 199 143c54 3 107 12 107 62c0 46 -37 75 -109 75c-65 0 -104 -21 -127 -43l-44 60c38 35 98 60 182 60c130 0 188 -63 188 -177v-243c0 -23 -2 -31 14 -45l10 -9v-6h-110v71c-27 -48 -79 -83 -154 -83zM214 57
c81 0 128 68 128 126v47c-14 -14 -50 -22 -91 -25c-79 -6 -122 -30 -122 -78c0 -41 32 -70 85 -70zM145 534c-31 0 -59 24 -59 58s28 58 59 58s59 -24 59 -58s-28 -58 -59 -58zM349 534c-31 0 -59 24 -59 58s28 58 59 58s59 -24 59 -58s-28 -58 -59 -58z" />
    <glyph glyph-name="atilde" unicode="&#xe3;" horiz-adv-x="506" 
d="M192 -12c-89 0 -156 51 -156 135c0 83 65 136 199 143c54 3 107 12 107 62c0 46 -37 75 -109 75c-65 0 -104 -21 -127 -43l-44 60c38 35 98 60 182 60c130 0 188 -63 188 -177v-243c0 -23 -2 -31 14 -45l10 -9v-6h-110v71c-27 -48 -79 -83 -154 -83zM214 57
c81 0 128 68 128 126v47c-14 -14 -50 -22 -91 -25c-79 -6 -122 -30 -122 -78c0 -41 32 -70 85 -70zM316 534c-54 0 -99 54 -135 54c-23 0 -43 -22 -56 -59l-41 12c5 75 42 119 94 119c54 0 99 -54 135 -54c23 0 43 22 56 59l41 -12c-5 -75 -42 -119 -94 -119z" />
    <glyph glyph-name="aring" unicode="&#xe5;" horiz-adv-x="506" 
d="M192 -12c-89 0 -156 51 -156 135c0 83 65 136 199 143c54 3 107 12 107 62c0 46 -37 75 -109 75c-65 0 -104 -21 -127 -43l-44 60c38 35 98 60 182 60c130 0 188 -63 188 -177v-243c0 -23 -2 -31 14 -45l10 -9v-6h-110v71c-27 -48 -79 -83 -154 -83zM214 57
c81 0 128 68 128 126v47c-14 -14 -50 -22 -91 -25c-79 -6 -122 -30 -122 -78c0 -41 32 -70 85 -70zM247 516c-58 0 -105 39 -105 100c0 59 49 100 105 100c58 0 105 -39 105 -100c0 -59 -49 -100 -105 -100zM247 562c32 0 54 22 54 54s-22 54 -54 54s-54 -22 -54 -54
s22 -54 54 -54z" />
    <glyph glyph-name="ccedilla" unicode="&#xe7;" horiz-adv-x="454" 
d="M245 -215c-40 0 -73 14 -95 36l29 36c14 -13 34 -23 63 -23c26 0 48 13 48 39c0 27 -21 41 -51 41c-19 0 -36 -2 -47 -7l-9 7l50 76c-121 13 -197 114 -197 244c0 158 103 246 227 246c89 0 145 -37 174 -93l-57 -50c-28 48 -71 69 -122 69c-65 0 -127 -52 -127 -171
c0 -116 63 -170 140 -170c56 0 99 26 114 46l48 -60c-28 -28 -75 -55 -142 -61l-28 -37c47 0 90 -21 90 -78c0 -59 -50 -90 -108 -90z" />
    <glyph glyph-name="eacute" unicode="&#xe9;" horiz-adv-x="511" 
d="M266 -12c-145 0 -230 100 -230 238c0 147 88 254 231 254c145 0 210 -109 210 -240c0 -11 -1 -23 -3 -33h-345c4 -83 62 -142 147 -142c66 0 110 27 133 51l47 -65c-36 -31 -99 -63 -190 -63zM263 409c-79 0 -123 -63 -132 -136h256c-6 77 -48 136 -124 136zM203 520
l-23 35l147 129l53 -81z" />
    <glyph glyph-name="egrave" unicode="&#xe8;" horiz-adv-x="511" 
d="M266 -12c-145 0 -230 100 -230 238c0 147 88 254 231 254c145 0 210 -109 210 -240c0 -11 -1 -23 -3 -33h-345c4 -83 62 -142 147 -142c66 0 110 27 133 51l47 -65c-36 -31 -99 -63 -190 -63zM263 409c-79 0 -123 -63 -132 -136h256c-6 77 -48 136 -124 136zM323 520
l-177 83l53 81l147 -129z" />
    <glyph glyph-name="ecircumflex" unicode="&#xea;" horiz-adv-x="511" 
d="M266 -12c-145 0 -230 100 -230 238c0 147 88 254 231 254c145 0 210 -109 210 -240c0 -11 -1 -23 -3 -33h-345c4 -83 62 -142 147 -142c66 0 110 27 133 51l47 -65c-36 -31 -99 -63 -190 -63zM263 409c-79 0 -123 -63 -132 -136h256c-6 77 -48 136 -124 136zM131 520
l-25 35l154 129h6l154 -129l-25 -35l-132 67z" />
    <glyph glyph-name="edieresis" unicode="&#xeb;" horiz-adv-x="511" 
d="M266 -12c-145 0 -230 100 -230 238c0 147 88 254 231 254c145 0 210 -109 210 -240c0 -11 -1 -23 -3 -33h-345c4 -83 62 -142 147 -142c66 0 110 27 133 51l47 -65c-36 -31 -99 -63 -190 -63zM263 409c-79 0 -123 -63 -132 -136h256c-6 77 -48 136 -124 136zM161 534
c-31 0 -59 24 -59 58s28 58 59 58s59 -24 59 -58s-28 -58 -59 -58zM365 534c-31 0 -59 24 -59 58s28 58 59 58s59 -24 59 -58s-28 -58 -59 -58z" />
    <glyph glyph-name="iacute" unicode="&#xed;" horiz-adv-x="244" 
d="M77 0v468h90v-468h-90zM62 520l-23 35l147 129l53 -81z" />
    <glyph glyph-name="igrave" unicode="&#xec;" horiz-adv-x="244" 
d="M77 0v468h90v-468h-90zM182 520l-177 83l53 81l147 -129z" />
    <glyph glyph-name="icircumflex" unicode="&#xee;" horiz-adv-x="244" 
d="M77 0v468h90v-468h-90zM-10 520l-25 35l154 129h6l154 -129l-25 -35l-132 67z" />
    <glyph glyph-name="idieresis" unicode="&#xef;" horiz-adv-x="244" 
d="M77 0v468h90v-468h-90zM20 534c-31 0 -59 24 -59 58s28 58 59 58s59 -24 59 -58s-28 -58 -59 -58zM224 534c-31 0 -59 24 -59 58s28 58 59 58s59 -24 59 -58s-28 -58 -59 -58z" />
    <glyph glyph-name="ntilde" unicode="&#xf1;" horiz-adv-x="563" 
d="M77 0v468h86v-66c31 49 85 78 156 78c118 0 171 -77 171 -190v-290h-90v267c0 76 -28 134 -110 134c-86 0 -123 -65 -123 -144v-257h-90zM352 534c-54 0 -99 54 -135 54c-23 0 -43 -22 -56 -59l-41 12c5 75 42 119 94 119c54 0 99 -54 135 -54c23 0 43 22 56 59l41 -12
c-5 -75 -42 -119 -94 -119z" />
    <glyph glyph-name="oacute" unicode="&#xf3;" horiz-adv-x="548" 
d="M274 -12c-142 0 -238 99 -238 246c0 143 100 246 238 246c143 0 238 -98 238 -246c0 -143 -99 -246 -238 -246zM274 63c87 0 143 70 143 171s-56 172 -143 172c-86 0 -143 -71 -143 -172s57 -171 143 -171zM214 520l-23 35l147 129l53 -81z" />
    <glyph glyph-name="ograve" unicode="&#xf2;" horiz-adv-x="548" 
d="M274 -12c-142 0 -238 99 -238 246c0 143 100 246 238 246c143 0 238 -98 238 -246c0 -143 -99 -246 -238 -246zM274 63c87 0 143 70 143 171s-56 172 -143 172c-86 0 -143 -71 -143 -172s57 -171 143 -171zM334 520l-177 83l53 81l147 -129z" />
    <glyph glyph-name="ocircumflex" unicode="&#xf4;" horiz-adv-x="548" 
d="M274 -12c-142 0 -238 99 -238 246c0 143 100 246 238 246c143 0 238 -98 238 -246c0 -143 -99 -246 -238 -246zM274 63c87 0 143 70 143 171s-56 172 -143 172c-86 0 -143 -71 -143 -172s57 -171 143 -171zM142 520l-25 35l154 129h6l154 -129l-25 -35l-132 67z" />
    <glyph glyph-name="odieresis" unicode="&#xf6;" horiz-adv-x="548" 
d="M274 -12c-142 0 -238 99 -238 246c0 143 100 246 238 246c143 0 238 -98 238 -246c0 -143 -99 -246 -238 -246zM274 63c87 0 143 70 143 171s-56 172 -143 172c-86 0 -143 -71 -143 -172s57 -171 143 -171zM172 534c-31 0 -59 24 -59 58s28 58 59 58s59 -24 59 -58
s-28 -58 -59 -58zM376 534c-31 0 -59 24 -59 58s28 58 59 58s59 -24 59 -58s-28 -58 -59 -58z" />
    <glyph glyph-name="otilde" unicode="&#xf5;" horiz-adv-x="548" 
d="M274 -12c-142 0 -238 99 -238 246c0 143 100 246 238 246c143 0 238 -98 238 -246c0 -143 -99 -246 -238 -246zM274 63c87 0 143 70 143 171s-56 172 -143 172c-86 0 -143 -71 -143 -172s57 -171 143 -171zM343 534c-54 0 -99 54 -135 54c-23 0 -43 -22 -56 -59l-41 12
c5 75 42 119 94 119c54 0 99 -54 135 -54c23 0 43 22 56 59l41 -12c-5 -75 -42 -119 -94 -119z" />
    <glyph glyph-name="uacute" unicode="&#xfa;" horiz-adv-x="563" 
d="M244 -12c-118 0 -171 78 -171 191v289h90v-266c0 -77 28 -134 110 -134c86 0 123 64 123 143v257h90v-468h-86v67c-33 -50 -86 -79 -156 -79zM219 520l-23 35l147 129l53 -81z" />
    <glyph glyph-name="ugrave" unicode="&#xf9;" horiz-adv-x="563" 
d="M244 -12c-118 0 -171 78 -171 191v289h90v-266c0 -77 28 -134 110 -134c86 0 123 64 123 143v257h90v-468h-86v67c-33 -50 -86 -79 -156 -79zM339 520l-177 83l53 81l147 -129z" />
    <glyph glyph-name="ucircumflex" unicode="&#xfb;" horiz-adv-x="563" 
d="M244 -12c-118 0 -171 78 -171 191v289h90v-266c0 -77 28 -134 110 -134c86 0 123 64 123 143v257h90v-468h-86v67c-33 -50 -86 -79 -156 -79zM147 520l-25 35l154 129h6l154 -129l-25 -35l-132 67z" />
    <glyph glyph-name="udieresis" unicode="&#xfc;" horiz-adv-x="563" 
d="M244 -12c-118 0 -171 78 -171 191v289h90v-266c0 -77 28 -134 110 -134c86 0 123 64 123 143v257h90v-468h-86v67c-33 -50 -86 -79 -156 -79zM177 534c-31 0 -59 24 -59 58s28 58 59 58s59 -24 59 -58s-28 -58 -59 -58zM381 534c-31 0 -59 24 -59 58s28 58 59 58
s59 -24 59 -58s-28 -58 -59 -58z" />
    <glyph glyph-name="dagger" unicode="&#x2020;" horiz-adv-x="422" 
d="M194 220l-32 240v6l32 65h-152v60h152l-32 122l6 9h86l6 -9l-32 -122h152v-60h-152l32 -65v-6l-32 -240h-34z" />
    <glyph glyph-name="degree" unicode="&#xb0;" horiz-adv-x="501" 
d="M250 359c-102 0 -186 77 -186 184c0 106 84 183 186 183s187 -77 187 -183s-85 -184 -187 -184zM250 427c63 0 114 50 114 116s-51 115 -114 115s-113 -49 -113 -115s50 -116 113 -116z" />
    <glyph glyph-name="cent" unicode="&#xa2;" horiz-adv-x="474" 
d="M232 0v108c-117 18 -196 115 -196 241c0 140 89 224 196 241v110h70v-108c74 -7 129 -42 155 -92l-57 -50c-23 38 -61 59 -101 66v-334c49 5 92 28 106 46l48 -60c-28 -27 -82 -55 -151 -62v-106h-70zM131 350c0 -92 46 -144 104 -161v326c-54 -15 -104 -66 -104 -165z
" />
    <glyph glyph-name="sterling" unicode="&#xa3;" horiz-adv-x="550" 
d="M42 0v85h60c31 41 51 86 51 141c0 31 -5 59 -12 87h-93v82h73c-5 26 -8 57 -8 92c0 158 100 225 231 225c74 0 129 -19 173 -54l-53 -76c-30 32 -68 49 -120 49c-79 0 -133 -37 -133 -153c0 -30 4 -57 9 -83h195v-82h-175c6 -29 11 -60 11 -95c0 -52 -16 -95 -45 -133
h292v-85h-456z" />
    <glyph glyph-name="section" unicode="&#xa7;" horiz-adv-x="546" 
d="M232 -161c-80 0 -154 22 -198 54l40 71c31 -24 85 -49 158 -49c88 0 143 40 145 92c2 62 -74 85 -160 106c-82 20 -179 57 -179 151c0 84 63 135 136 144v1c-57 28 -97 64 -97 139c0 113 101 164 223 164c91 0 153 -24 191 -65l-47 -66c-34 39 -80 57 -145 57
c-84 0 -133 -36 -132 -88c1 -62 66 -84 160 -107c82 -20 179 -57 179 -151c0 -82 -62 -134 -135 -144v-1c60 -28 96 -69 96 -138c0 -112 -105 -170 -235 -170zM278 182c62 0 134 24 134 92c0 73 -80 100 -146 100c-62 0 -134 -24 -134 -92c0 -73 80 -100 146 -100z" />
    <glyph glyph-name="bullet" unicode="&#x2022;" horiz-adv-x="332" 
d="M166 192c-57 0 -106 43 -106 104s49 104 106 104c56 0 106 -43 106 -104s-50 -104 -106 -104z" />
    <glyph glyph-name="paragraph" unicode="&#xb6;" horiz-adv-x="568" 
d="M372 -215v830h-101v-352c-161 0 -237 104 -237 222c0 115 64 215 225 215h212v-915h-99z" />
    <glyph glyph-name="germandbls" unicode="&#xdf;" horiz-adv-x="606" 
d="M106 0v394h-74v74h74v68c0 143 67 233 212 233c111 0 191 -53 191 -156c0 -79 -50 -136 -88 -182c-24 -28 -42 -51 -42 -71c0 -25 34 -42 79 -65c68 -35 134 -76 134 -161c0 -89 -69 -146 -182 -146c-61 0 -119 18 -156 46l37 67c22 -19 68 -39 117 -39c55 0 94 25 94 71
c0 54 -55 76 -89 95c-49 27 -125 46 -125 121c0 45 30 78 61 112c34 36 71 79 71 137c0 61 -36 98 -106 98c-80 0 -118 -49 -118 -146v-550h-90z" />
    <glyph glyph-name="registered" unicode="&#xae;" horiz-adv-x="702" 
d="M351 189c-162 0 -295 111 -295 288c0 170 133 288 295 288s295 -111 295 -288c0 -170 -133 -288 -295 -288zM351 240c129 0 236 95 236 237c0 148 -107 237 -236 237s-236 -94 -236 -237c0 -148 107 -237 236 -237zM231 325v308h112c97 0 137 -30 137 -93
c0 -47 -25 -80 -79 -90c51 -19 79 -71 93 -121v-4h-73c-7 47 -40 94 -84 108h-44v-108h-62zM293 482h50c49 0 72 19 72 50c0 30 -23 51 -72 51h-50v-101z" />
    <glyph glyph-name="copyright" unicode="&#xa9;" horiz-adv-x="802" 
d="M401 -10c-202 0 -353 139 -353 360c0 213 151 360 353 360s353 -139 353 -360c0 -212 -151 -360 -353 -360zM401 49c161 0 287 133 287 301c0 175 -126 301 -287 301s-287 -132 -287 -301c0 -175 126 -301 287 -301zM405 133c-121 0 -214 81 -214 218
c0 135 91 217 214 217c78 0 130 -33 156 -81l-58 -50c-15 33 -45 61 -96 61c-75 0 -128 -55 -128 -147c0 -90 51 -148 129 -148c49 0 82 24 101 47l47 -57c-33 -34 -84 -60 -151 -60z" />
    <glyph glyph-name="trademark" unicode="&#x2122;" horiz-adv-x="918" 
d="M158 407v289h-126v61h320v-61h-127v-289h-67zM415 407v364h5l197 -202l198 202h6v-364h-70v209l-132 -138h-3l-132 137v-208h-69z" />
    <glyph glyph-name="acute" unicode="&#xb4;" horiz-adv-x="440" 
d="M160 520l-23 35l147 129l53 -81z" />
    <glyph glyph-name="dieresis" unicode="&#xa8;" horiz-adv-x="440" 
d="M118 534c-31 0 -59 24 -59 58s28 58 59 58s59 -24 59 -58s-28 -58 -59 -58zM322 534c-31 0 -59 24 -59 58s28 58 59 58s59 -24 59 -58s-28 -58 -59 -58z" />
    <glyph glyph-name="notequal" unicode="&#x2260;" 
d="M51 45v6l72 99h-78v80h136l92 128h-228v80h286l65 89h73v-6l-60 -83h66v-80h-124l-93 -128h217v-80h-275l-76 -105h-73z" />
    <glyph glyph-name="AE" unicode="&#xc6;" horiz-adv-x="936" 
d="M12 0v9l308 691h564v-85h-339v-211h287v-85h-287v-234h339v-85h-437v120h-283l-51 -120h-101zM197 204h250v411h-75z" />
    <glyph glyph-name="Oslash" unicode="&#xd8;" horiz-adv-x="762" 
d="M382 -12c-75 0 -142 21 -197 58l-60 -76h-91v9l94 118c-54 61 -85 146 -85 253c0 221 145 362 339 362c72 0 137 -20 190 -54l65 81h91v-9l-97 -122c56 -61 90 -148 90 -258c0 -220 -145 -362 -339 -362zM382 628c-141 0 -236 -110 -236 -278c0 -70 16 -128 45 -174
l324 409c-37 26 -82 43 -133 43zM382 73c141 0 236 109 236 277c0 72 -18 133 -49 180l-326 -411c38 -28 85 -46 139 -46z" />
    <glyph glyph-name="infinity" unicode="&#x221e;" horiz-adv-x="994" 
d="M250 38c-102 0 -200 85 -200 226s98 226 200 226c108 0 183 -92 247 -171c64 79 139 171 247 171c102 0 200 -85 200 -226s-98 -226 -200 -226c-108 0 -183 92 -247 171c-64 -79 -139 -171 -247 -171zM133 264c0 -92 52 -148 124 -148c75 0 122 60 191 148
c-69 88 -116 148 -191 148c-72 0 -124 -56 -124 -148zM861 264c0 92 -52 148 -124 148c-75 0 -122 -60 -191 -148c69 -88 116 -148 191 -148c72 0 124 56 124 148z" />
    <glyph glyph-name="plusminus" unicode="&#xb1;" 
d="M219 140v194h-195v76h195v194h82v-194h195v-76h-195v-194h-82zM24 0v76h472v-76h-472z" />
    <glyph glyph-name="lessequal" unicode="&#x2264;" 
d="M408 119l-376 249v8l376 249l45 -65l-279 -186v-2l279 -186zM24 0v76h472v-76h-472z" />
    <glyph glyph-name="greaterequal" unicode="&#x2265;" 
d="M112 119l-45 65l279 186v2l-279 186l45 67l376 -249v-8zM24 0v76h472v-76h-472z" />
    <glyph glyph-name="yen" unicode="&#xa5;" horiz-adv-x="644" 
d="M280 0v112h-201v66h201v74h-201v66h170l-200 373v9h104l177 -353h1l167 353h94v-9l-187 -373h160v-66h-187v-74h187v-66h-187v-112h-98z" />
    <glyph glyph-name="mu" unicode="&#xb5;" horiz-adv-x="567" 
d="M77 -215v683h90v-263c0 -77 31 -137 110 -137c86 0 123 64 123 143v257h90v-468h-86v67c-28 -50 -78 -79 -130 -79c-50 0 -90 22 -107 57v-260h-90z" />
    <glyph glyph-name="partialdiff" unicode="&#x2202;" horiz-adv-x="571" 
d="M287 -12c-137 0 -251 97 -251 252c0 137 93 240 223 240c63 0 115 -33 144 -63c-48 130 -161 236 -244 273v10h133c146 -103 243 -296 243 -451c0 -170 -117 -261 -248 -261zM286 70c87 0 148 72 148 166s-61 165 -148 165c-88 0 -149 -71 -149 -165s61 -166 149 -166z
" />
    <glyph glyph-name="summation" unicode="&#x2211;" horiz-adv-x="621" 
d="M45 -215l-5 9l287 449l-283 448l5 9h526v-85h-372l231 -366v-12l-235 -367h382v-85h-536z" />
    <glyph glyph-name="product" unicode="&#x220f;" horiz-adv-x="744" 
d="M91 -215v915h562v-915h-98v829h-366v-829h-98z" />
    <glyph glyph-name="pi" unicode="&#x3c0;" horiz-adv-x="598" 
d="M115 0v394h-83v74h534v-74h-83v-394h-90v394h-188v-394h-90z" />
    <glyph glyph-name="integral" unicode="&#x222b;" horiz-adv-x="251" 
d="M22 -227c-43 0 -66 10 -78 18l17 79c12 -10 28 -17 47 -17c59 -1 76 36 76 102v642c0 100 43 172 152 172c43 0 66 -10 78 -18l-17 -79c-12 10 -28 17 -47 17c-59 1 -76 -36 -76 -102v-642c0 -100 -43 -172 -152 -172z" />
    <glyph glyph-name="ordfeminine" unicode="&#xaa;" horiz-adv-x="513" 
d="M206 291c-78 0 -137 44 -137 116c0 74 58 118 178 124c47 2 91 10 91 51c0 37 -31 60 -94 60c-57 0 -91 -19 -111 -38l-42 55c34 31 88 53 163 53c116 0 168 -52 168 -151v-209c0 -20 -2 -26 12 -38l9 -8v-6h-102v60c-23 -41 -69 -69 -135 -69zM228 354
c70 0 110 55 110 103v39c-12 -11 -43 -17 -78 -20c-69 -5 -105 -24 -105 -64c0 -34 27 -58 73 -58zM77 122v76h359v-76h-359z" />
    <glyph glyph-name="ordmasculine" unicode="&#xba;" horiz-adv-x="561" 
d="M280 291c-125 0 -211 84 -211 210c0 124 89 211 211 211c127 0 212 -83 212 -211c0 -123 -88 -210 -212 -210zM280 360c75 0 123 57 123 142s-48 142 -123 142c-74 0 -123 -57 -123 -142s49 -142 123 -142zM77 122v76h407v-76h-407z" />
    <glyph glyph-name="Omega" unicode="&#x2126;" horiz-adv-x="764" 
d="M347 0h-278v76h178v2c-97 52 -188 162 -187 303c1 204 135 331 323 331s322 -127 323 -331c1 -141 -90 -251 -187 -303v-2h187l-15 -76h-272v101l4 6c90 38 183 136 183 265c0 163 -86 259 -223 259s-223 -96 -223 -259c0 -129 93 -227 183 -265l4 -6v-101z" />
    <glyph glyph-name="ae" unicode="&#xe6;" horiz-adv-x="811" 
d="M206 -12c-101 0 -170 52 -170 136c0 83 65 135 199 142c54 3 107 12 107 62c0 46 -37 75 -109 75c-65 0 -104 -21 -127 -43l-44 60c38 35 98 60 182 60c82 0 132 -25 158 -72c38 45 93 72 165 72c145 0 210 -109 210 -240c0 -11 -1 -23 -3 -33h-345
c4 -83 62 -142 147 -142c66 0 110 26 133 50l47 -65c-36 -31 -99 -62 -190 -62c-90 0 -153 39 -188 100c-25 -47 -77 -100 -172 -100zM214 57c81 0 128 68 128 126v47c-14 -14 -50 -22 -91 -25c-79 -6 -122 -29 -122 -77c0 -41 32 -71 85 -71zM563 409
c-79 0 -123 -63 -132 -136h256c-6 77 -48 136 -124 136z" />
    <glyph glyph-name="oslash" unicode="&#xf8;" horiz-adv-x="544" 
d="M274 -12c-51 0 -95 14 -132 36l-38 -48h-79v6l67 85c-36 42 -56 99 -56 167c0 143 100 246 238 246c46 0 88 -12 122 -31l44 55h79v-6l-71 -89c41 -42 64 -102 64 -175c0 -143 -99 -246 -238 -246zM274 406c-86 0 -143 -71 -143 -172c0 -36 7 -68 20 -94l194 246
c-20 12 -44 20 -71 20zM274 63c87 0 143 70 143 171c0 40 -9 75 -26 103l-197 -249c22 -16 49 -25 80 -25z" />
    <glyph glyph-name="questiondown" unicode="&#xbf;" horiz-adv-x="466" 
d="M289 436c-35 0 -67 27 -67 65c0 39 32 66 67 66s68 -27 68 -66c0 -38 -33 -65 -68 -65zM235 -176c-128 0 -221 49 -221 169c0 99 52 156 175 216c51 25 80 54 91 110l11 56h15c18 -23 54 -68 52 -118c-2 -45 -27 -76 -113 -121c-65 -34 -128 -62 -128 -132
c0 -59 46 -94 127 -94c71 0 121 24 152 49l37 -90c-37 -24 -117 -45 -198 -45z" />
    <glyph glyph-name="exclamdown" unicode="&#xa1;" horiz-adv-x="312" 
d="M156 433c-36 0 -69 28 -69 67s33 67 69 67s69 -28 69 -67s-33 -67 -69 -67zM93 -173l-9 12l58 536h28l58 -536l-10 -12h-125z" />
    <glyph glyph-name="logicalnot" unicode="&#xac;" 
d="M396 164v154h-372v76h454v-230h-82z" />
    <glyph glyph-name="radical" unicode="&#x221a;" horiz-adv-x="716" 
d="M354 -31l-194 421h-112v78h185l125 -301h1l223 533h102v-9l-321 -722h-9z" />
    <glyph glyph-name="florin" unicode="&#x192;" horiz-adv-x="493" 
d="M117 -147c-43 0 -69 10 -81 18l17 85c12 -10 28 -17 47 -17c59 -1 76 30 76 96v258h-120v80h120v149c0 132 59 190 160 190c46 0 90 -13 121 -35l-39 -75c-15 16 -39 30 -69 30c-53 0 -77 -23 -77 -118v-141h157v-80h-157v-268c0 -100 -46 -172 -155 -172z" />
    <glyph glyph-name="approxequal" unicode="&#x2248;" 
d="M349 329c-74 0 -135 59 -183 59c-40 0 -67 -20 -84 -61l-48 13c7 84 58 128 127 128c74 0 135 -59 183 -59c40 0 67 20 84 61l48 -13c-7 -84 -58 -128 -127 -128zM349 121c-74 0 -135 59 -183 59c-40 0 -67 -20 -84 -61l-48 13c7 84 58 128 127 128c74 0 135 -59 183 -59
c40 0 67 20 84 61l48 -13c-7 -84 -58 -128 -127 -128z" />
    <glyph glyph-name="Delta" unicode="&#x2206;" horiz-adv-x="676" 
d="M12 0v9l322 722h8l322 -722v-9h-652zM148 85h377l-187 448h-1z" />
    <glyph glyph-name="guillemotleft" unicode="&#xab;" horiz-adv-x="518" 
d="M201 65l-135 195v8l135 195l49 -24l-85 -173v-4l85 -173zM397 65l-135 195v8l135 195l49 -24l-85 -173v-4l85 -173z" />
    <glyph glyph-name="guillemotright" unicode="&#xbb;" horiz-adv-x="518" 
d="M121 65l-49 24l85 173v4l-85 173l49 24l135 -195v-8zM317 65l-49 24l85 173v4l-85 173l49 24l135 -195v-8z" />
    <glyph glyph-name="ellipsis" unicode="&#x2026;" horiz-adv-x="716" 
d="M127 -10c-35 0 -68 27 -68 66c0 38 33 65 68 65s67 -27 67 -65c0 -39 -32 -66 -67 -66zM359 -10c-35 0 -68 27 -68 66c0 38 33 65 68 65s67 -27 67 -65c0 -39 -32 -66 -67 -66zM591 -10c-35 0 -68 27 -68 66c0 38 33 65 68 65s67 -27 67 -65c0 -39 -32 -66 -67 -66z" />
    <glyph glyph-name="uni00A0" unicode="&#xa0;" horiz-adv-x="240" 
 />
    <glyph glyph-name="Agrave" unicode="&#xc0;" horiz-adv-x="676" 
d="M12 0v9l322 722h8l322 -722v-9h-103l-50 120h-347l-51 -120h-101zM197 204h279l-138 329h-1zM398 735l-177 83l53 81l147 -129z" />
    <glyph glyph-name="Atilde" unicode="&#xc3;" horiz-adv-x="676" 
d="M12 0v9l322 722h8l322 -722v-9h-103l-50 120h-347l-51 -120h-101zM197 204h279l-138 329h-1zM407 749c-54 0 -99 54 -135 54c-23 0 -43 -22 -56 -59l-41 12c5 75 42 119 94 119c54 0 99 -54 135 -54c23 0 43 22 56 59l41 -12c-5 -75 -42 -119 -94 -119z" />
    <glyph glyph-name="Otilde" unicode="&#xd5;" horiz-adv-x="762" 
d="M381 -12c-194 0 -339 133 -339 362c0 221 145 362 339 362s339 -133 339 -362c0 -220 -145 -362 -339 -362zM381 73c141 0 236 109 236 277s-95 278 -236 278s-236 -110 -236 -278s95 -277 236 -277zM449 749c-54 0 -99 54 -135 54c-23 0 -43 -22 -56 -59l-41 12
c5 75 42 119 94 119c54 0 99 -54 135 -54c23 0 43 22 56 59l41 -12c-5 -75 -42 -119 -94 -119z" />
    <glyph glyph-name="OE" unicode="&#x152;" horiz-adv-x="998" 
d="M50 352c0 234 153 348 399 348h497v-85h-339v-211h287v-85h-287v-234h339v-85h-497c-246 0 -399 116 -399 352zM153 352c0 -183 110 -267 303 -267h53v530h-53c-193 0 -303 -80 -303 -263z" />
    <glyph glyph-name="oe" unicode="&#x153;" horiz-adv-x="885" 
d="M274 -12c-142 0 -238 99 -238 246c0 143 100 246 238 246c85 0 149 -34 187 -92c37 57 98 92 180 92c145 0 210 -109 210 -240c0 -11 -1 -23 -3 -33h-345c4 -83 62 -142 147 -142c66 0 110 26 133 50l47 -65c-36 -31 -99 -62 -190 -62c-86 0 -147 34 -183 90
c-39 -56 -103 -90 -183 -90zM274 63c87 0 143 70 143 171s-56 172 -143 172c-86 0 -143 -71 -143 -172s57 -171 143 -171zM637 409c-79 0 -123 -63 -132 -136h256c-6 77 -48 136 -124 136z" />
    <glyph glyph-name="endash" unicode="&#x2013;" horiz-adv-x="500" 
d="M24 258v72h452v-72h-452z" />
    <glyph glyph-name="emdash" unicode="&#x2014;" horiz-adv-x="800" 
d="M24 258v72h752v-72h-752z" />
    <glyph glyph-name="quotedblleft" unicode="&#x201c;" horiz-adv-x="403" 
d="M117 495c-32 0 -65 20 -65 77c0 71 44 138 98 169l36 -27v-4c-32 -22 -66 -63 -66 -96c34 0 60 -24 60 -57c0 -37 -25 -62 -63 -62zM287 495c-32 0 -65 20 -65 77c0 71 44 138 98 169l36 -27v-4c-32 -22 -66 -63 -66 -96c34 0 60 -24 60 -57c0 -37 -25 -62 -63 -62z" />
    <glyph glyph-name="quotedblright" unicode="&#x201d;" horiz-adv-x="403" 
d="M116 734c32 0 65 -20 65 -77c0 -71 -44 -138 -98 -169l-36 27v4c32 22 66 63 66 96c-34 0 -60 24 -60 57c0 37 25 62 63 62zM286 734c32 0 65 -20 65 -77c0 -71 -44 -138 -98 -169l-36 27v4c32 22 66 63 66 96c-34 0 -60 24 -60 57c0 37 25 62 63 62z" />
    <glyph glyph-name="quoteleft" unicode="&#x2018;" horiz-adv-x="233" 
d="M117 495c-32 0 -65 20 -65 77c0 71 44 138 98 169l36 -27v-4c-32 -22 -66 -63 -66 -96c34 0 60 -24 60 -57c0 -37 -25 -62 -63 -62z" />
    <glyph glyph-name="quoteright" unicode="&#x2019;" horiz-adv-x="233" 
d="M116 734c32 0 65 -20 65 -77c0 -71 -44 -138 -98 -169l-36 27v4c32 22 66 63 66 96c-34 0 -60 24 -60 57c0 37 25 62 63 62z" />
    <glyph glyph-name="divide" unicode="&#xf7;" 
d="M261 424c-35 0 -68 27 -68 66c0 38 33 65 68 65s67 -27 67 -65c0 -39 -32 -66 -67 -66zM24 258v76h472v-76h-472zM261 37c-35 0 -68 27 -68 66c0 38 33 65 68 65s67 -27 67 -65c0 -39 -32 -66 -67 -66z" />
    <glyph glyph-name="lozenge" unicode="&#x25ca;" horiz-adv-x="664" 
d="M328 -30l-282 376v8l282 376h8l282 -376v-8l-282 -376h-8zM331 83h2l196 266v2l-196 266h-2l-196 -266v-2z" />
    <glyph glyph-name="ydieresis" unicode="&#xff;" horiz-adv-x="508" 
d="M91 -227c-40 0 -66 10 -79 19l20 78c12 -11 31 -19 52 -19c65 0 83 36 111 104l18 43l-195 464v6h96l141 -358h2l142 358h91v-6l-220 -533c-40 -97 -85 -156 -179 -156zM154 534c-31 0 -59 24 -59 58s28 58 59 58s59 -24 59 -58s-28 -58 -59 -58zM358 534
c-31 0 -59 24 -59 58s28 58 59 58s59 -24 59 -58s-28 -58 -59 -58z" />
    <glyph glyph-name="Ydieresis" unicode="&#x178;" horiz-adv-x="622" 
d="M263 0v261l-251 430v9h104l197 -353h2l195 353h100v-9l-249 -430v-261h-98zM211 749c-31 0 -59 24 -59 58s28 58 59 58s59 -24 59 -58s-28 -58 -59 -58zM415 749c-31 0 -59 24 -59 58s28 58 59 58s59 -24 59 -58s-28 -58 -59 -58z" />
    <glyph glyph-name="fraction" unicode="&#x2044;" horiz-adv-x="393" 
d="M-18 0l-2 5l356 695h75l2 -5l-356 -695h-75z" />
    <glyph glyph-name="Euro" unicode="&#x20ac;" horiz-adv-x="701" 
d="M425 -12c-157 0 -283 90 -322 248h-91v64h81c-2 15 -3 31 -3 47s1 35 3 50h-81v64h90c39 159 167 251 327 251c111 0 193 -45 234 -123l-69 -57c-27 52 -77 95 -164 95c-108 0 -191 -61 -223 -166h289v-64h-302c-2 -14 -3 -31 -3 -46c0 -17 1 -36 3 -51h302v-64h-288
c33 -101 114 -163 222 -163c81 0 138 36 169 73l54 -71c-52 -50 -128 -87 -228 -87z" />
    <glyph glyph-name="guilsinglleft" unicode="&#x2039;" horiz-adv-x="322" 
d="M201 65l-135 195v8l135 195l49 -24l-85 -173v-4l85 -173z" />
    <glyph glyph-name="guilsinglright" unicode="&#x203a;" horiz-adv-x="322" 
d="M121 65l-49 24l85 173v4l-85 173l49 24l135 -195v-8z" />
    <glyph glyph-name="daggerdbl" unicode="&#x2021;" horiz-adv-x="442" 
d="M206 111l-30 224v6l30 65h-145v60h129v65h-129v60h145l-30 123l6 8h78l6 -8l-30 -123h145v-60h-129v-65h129v-60h-145l30 -65v-6l-30 -224h-30z" />
    <glyph glyph-name="periodcentered" unicode="&#xb7;" horiz-adv-x="252" 
d="M126 227c-35 0 -68 27 -68 66c0 38 33 65 68 65s67 -27 67 -65c0 -39 -32 -66 -67 -66z" />
    <glyph glyph-name="quotesinglbase" unicode="&#x201a;" horiz-adv-x="233" 
d="M116 126c32 0 65 -20 65 -77c0 -71 -44 -138 -98 -169l-36 27v4c32 22 66 63 66 96c-34 0 -60 24 -60 57c0 37 25 62 63 62z" />
    <glyph glyph-name="quotedblbase" unicode="&#x201e;" horiz-adv-x="403" 
d="M116 126c32 0 65 -20 65 -77c0 -71 -44 -138 -98 -169l-36 27v4c32 22 66 63 66 96c-34 0 -60 24 -60 57c0 37 25 62 63 62zM286 126c32 0 65 -20 65 -77c0 -71 -44 -138 -98 -169l-36 27v4c32 22 66 63 66 96c-34 0 -60 24 -60 57c0 37 25 62 63 62z" />
    <glyph glyph-name="perthousand" unicode="&#x2030;" horiz-adv-x="1414" 
d="M1179 -12c-113 0 -187 85 -187 203c0 116 75 203 187 203c113 0 187 -85 187 -203c0 -116 -75 -203 -187 -203zM1179 60c65 0 106 53 106 131s-41 131 -106 131s-106 -53 -106 -131s41 -131 106 -131zM235 306c-113 0 -187 85 -187 203c0 116 75 203 187 203
c113 0 187 -85 187 -203c0 -116 -75 -203 -187 -203zM235 378c65 0 106 53 106 131s-41 131 -106 131s-106 -53 -106 -131s41 -131 106 -131zM224 0l-2 5l456 695h79l2 -5l-456 -695h-79zM748 -12c-113 0 -187 85 -187 203c0 116 75 203 187 203c113 0 187 -85 187 -203
c0 -116 -75 -203 -187 -203zM748 60c65 0 106 53 106 131s-41 131 -106 131s-106 -53 -106 -131s41 -131 106 -131z" />
    <glyph glyph-name="Acircumflex" unicode="&#xc2;" horiz-adv-x="676" 
d="M12 0v9l322 722h8l322 -722v-9h-103l-50 120h-347l-51 -120h-101zM197 204h279l-138 329h-1zM206 735l-25 35l154 129h6l154 -129l-25 -35l-132 67z" />
    <glyph glyph-name="Ecircumflex" unicode="&#xca;" horiz-adv-x="580" 
d="M91 0v700h437v-85h-339v-211h287v-85h-287v-234h339v-85h-437zM178 735l-25 35l154 129h6l154 -129l-25 -35l-132 67z" />
    <glyph glyph-name="Aacute" unicode="&#xc1;" horiz-adv-x="676" 
d="M12 0v9l322 722h8l322 -722v-9h-103l-50 120h-347l-51 -120h-101zM197 204h279l-138 329h-1zM278 735l-23 35l147 129l53 -81z" />
    <glyph glyph-name="Edieresis" unicode="&#xcb;" horiz-adv-x="580" 
d="M91 0v700h437v-85h-339v-211h287v-85h-287v-234h339v-85h-437zM208 749c-31 0 -59 24 -59 58s28 58 59 58s59 -24 59 -58s-28 -58 -59 -58zM412 749c-31 0 -59 24 -59 58s28 58 59 58s59 -24 59 -58s-28 -58 -59 -58z" />
    <glyph glyph-name="Egrave" unicode="&#xc8;" horiz-adv-x="580" 
d="M91 0v700h437v-85h-339v-211h287v-85h-287v-234h339v-85h-437zM370 735l-177 83l53 81l147 -129z" />
    <glyph glyph-name="Iacute" unicode="&#xcd;" horiz-adv-x="280" 
d="M91 0v700h98v-700h-98zM80 735l-23 35l147 129l53 -81z" />
    <glyph glyph-name="Icircumflex" unicode="&#xce;" horiz-adv-x="280" 
d="M91 0v700h98v-700h-98zM8 735l-25 35l154 129h6l154 -129l-25 -35l-132 67z" />
    <glyph glyph-name="Idieresis" unicode="&#xcf;" horiz-adv-x="280" 
d="M91 0v700h98v-700h-98zM38 749c-31 0 -59 24 -59 58s28 58 59 58s59 -24 59 -58s-28 -58 -59 -58zM242 749c-31 0 -59 24 -59 58s28 58 59 58s59 -24 59 -58s-28 -58 -59 -58z" />
    <glyph glyph-name="Igrave" unicode="&#xcc;" horiz-adv-x="280" 
d="M91 0v700h98v-700h-98zM200 735l-177 83l53 81l147 -129z" />
    <glyph glyph-name="Oacute" unicode="&#xd3;" horiz-adv-x="762" 
d="M381 -12c-194 0 -339 133 -339 362c0 221 145 362 339 362s339 -133 339 -362c0 -220 -145 -362 -339 -362zM381 73c141 0 236 109 236 277s-95 278 -236 278s-236 -110 -236 -278s95 -277 236 -277zM320 735l-23 35l147 129l53 -81z" />
    <glyph glyph-name="Ocircumflex" unicode="&#xd4;" horiz-adv-x="762" 
d="M381 -12c-194 0 -339 133 -339 362c0 221 145 362 339 362s339 -133 339 -362c0 -220 -145 -362 -339 -362zM381 73c141 0 236 109 236 277s-95 278 -236 278s-236 -110 -236 -278s95 -277 236 -277zM248 735l-25 35l154 129h6l154 -129l-25 -35l-132 67z" />
    <glyph glyph-name="apple" horiz-adv-x="3486" 
d="M44 0v5l20 21c5 5 8 9 8 17v323h5l245 -221v163c0 8 -3 12 -8 17l-20 20v5h129v-5l-20 -20c-5 -5 -8 -9 -8 -17v-321h-5l-245 221v-165c0 -8 3 -12 8 -17l20 -21v-5h-129zM458 0v5l21 21c5 5 7 9 7 17v265c0 8 -2 12 -7 17l-21 20v5h207c74 0 111 -37 111 -89
c0 -47 -30 -69 -63 -77v-1c49 -8 78 -36 78 -85c0 -65 -49 -98 -128 -98h-205zM566 212h89c27 0 42 12 42 37c0 22 -13 38 -42 38h-89v-75zM566 64h87c33 0 57 12 57 45c0 30 -20 42 -57 42h-87v-87zM1018 -7c-104 0 -184 69 -184 181c0 113 80 182 185 182
c33 0 60 -6 77 -6c15 0 25 5 35 12l5 -2l-30 -118l-6 1c-6 22 -29 47 -76 47c-59 0 -105 -44 -105 -116c0 -69 41 -115 102 -115c41 0 68 21 83 41l47 -54c-28 -30 -73 -53 -133 -53zM1358 -7c-88 0 -151 48 -151 145v170c0 8 -2 12 -7 17l-21 20v5h135v-5l-20 -20
c-5 -5 -8 -9 -8 -17v-172c0 -52 27 -76 72 -76s70 25 70 76v172c0 8 -2 12 -7 17l-21 20v5h136v-5l-20 -20c-5 -5 -8 -9 -8 -17v-170c0 -97 -63 -145 -150 -145zM1566 0v5l21 21c6 6 7 10 7 23v143c0 12 -1 16 -7 23l-21 20v5h101v-43c12 27 45 48 81 48c52 0 82 -35 82 -95
v-101c0 -13 1 -17 7 -23l21 -21v-5h-103v133c0 28 -13 47 -40 47c-32 0 -46 -22 -46 -51v-80c0 -13 1 -17 8 -23l20 -21v-5h-131zM1945 276c-24 0 -45 18 -45 43c0 26 21 44 45 44c23 0 44 -18 44 -44c0 -25 -21 -43 -44 -43zM1880 0v5l20 21c7 6 8 10 8 23v143
c0 12 -1 16 -8 23l-20 20v5h103v-191c0 -13 1 -17 7 -23l21 -21v-5h-131zM2154 -11l-99 198c-9 17 -19 34 -38 48v5h92l49 -116h1l44 116h93v-5c-20 -14 -28 -29 -38 -48l-99 -198h-5zM2430 -7c-81 0 -132 48 -132 123s49 129 130 129s116 -53 116 -125c0 -8 0 -16 -1 -21
h-168c3 -24 24 -45 61 -45c24 0 42 9 52 20l41 -49c-21 -20 -59 -32 -99 -32zM2423 189c-30 0 -47 -22 -49 -47h94c-1 26 -15 47 -45 47zM2573 0v5l21 21c6 6 7 10 7 23v143c0 12 -1 16 -7 23l-21 20v5h101v-48c11 29 38 53 73 53c14 0 25 -4 32 -7l-20 -75
c-8 7 -19 14 -36 14c-29 0 -47 -20 -47 -56v-72c0 -13 1 -17 8 -23l20 -21v-5h-131zM2896 -7c-42 0 -84 11 -110 33l35 51c17 -14 46 -28 80 -28c22 0 32 9 32 20c0 20 -27 21 -60 27c-36 6 -74 24 -74 70c0 60 50 79 104 79c31 0 46 -7 62 -7c15 0 23 5 33 13l5 -2l-23 -92
l-5 2c-11 22 -38 32 -68 32c-22 0 -31 -8 -31 -19c0 -18 25 -19 58 -25c36 -6 76 -24 76 -70c0 -53 -44 -84 -114 -84zM3117 -7c-43 0 -77 28 -77 70c0 53 37 78 118 80c26 0 33 6 33 19s-12 25 -43 25c-34 0 -51 -16 -61 -25l-39 46c22 22 59 37 107 37
c77 0 111 -32 111 -93v-103c0 -13 1 -17 7 -23l21 -21v-5h-101v33c-12 -23 -40 -40 -76 -40zM3145 46c28 0 46 22 46 45v17c-4 -2 -15 -3 -31 -4c-34 -2 -45 -14 -45 -31c0 -15 8 -27 30 -27zM3311 0v5l20 21c7 6 8 10 8 23v281c0 13 -1 17 -8 23l-20 21v5h103v-330
c0 -13 1 -17 7 -23l21 -21v-5h-131z" />
    <glyph glyph-name="Ograve" unicode="&#xd2;" horiz-adv-x="762" 
d="M381 -12c-194 0 -339 133 -339 362c0 221 145 362 339 362s339 -133 339 -362c0 -220 -145 -362 -339 -362zM381 73c141 0 236 109 236 277s-95 278 -236 278s-236 -110 -236 -278s95 -277 236 -277zM440 735l-177 83l53 81l147 -129z" />
    <glyph glyph-name="Uacute" unicode="&#xda;" horiz-adv-x="701" 
d="M350 -12c-159 0 -270 97 -270 271v441h98v-423c0 -132 66 -202 173 -202c108 0 172 70 172 202v423h98v-441c0 -174 -112 -271 -271 -271zM290 735l-23 35l147 129l53 -81z" />
    <glyph glyph-name="Ucircumflex" unicode="&#xdb;" horiz-adv-x="701" 
d="M350 -12c-159 0 -270 97 -270 271v441h98v-423c0 -132 66 -202 173 -202c108 0 172 70 172 202v423h98v-441c0 -174 -112 -271 -271 -271zM218 735l-25 35l154 129h6l154 -129l-25 -35l-132 67z" />
    <glyph glyph-name="Ugrave" unicode="&#xd9;" horiz-adv-x="701" 
d="M350 -12c-159 0 -270 97 -270 271v441h98v-423c0 -132 66 -202 173 -202c108 0 172 70 172 202v423h98v-441c0 -174 -112 -271 -271 -271zM410 735l-177 83l53 81l147 -129z" />
    <glyph glyph-name="dotlessi" unicode="&#x131;" horiz-adv-x="244" 
d="M77 0v468h90v-468h-90z" />
    <glyph glyph-name="circumflex" unicode="&#x2c6;" horiz-adv-x="440" 
d="M88 520l-25 35l154 129h6l154 -129l-25 -35l-132 67z" />
    <glyph glyph-name="tilde" unicode="&#x2dc;" horiz-adv-x="440" 
d="M289 534c-54 0 -99 54 -135 54c-23 0 -43 -22 -56 -59l-41 12c5 75 42 119 94 119c54 0 99 -54 135 -54c23 0 43 22 56 59l41 -12c-5 -75 -42 -119 -94 -119z" />
    <glyph glyph-name="macron" unicode="&#xaf;" horiz-adv-x="440" 
d="M81 556v73h278v-73h-278z" />
    <glyph glyph-name="breve" unicode="&#x2d8;" horiz-adv-x="440" 
d="M220 537c-95 0 -150 88 -154 152l45 13c14 -44 52 -90 109 -90s95 46 109 90l45 -13c-4 -64 -59 -152 -154 -152z" />
    <glyph glyph-name="dotaccent" unicode="&#x2d9;" horiz-adv-x="440" 
d="M220 534c-31 0 -59 24 -59 58s28 58 59 58s59 -24 59 -58s-28 -58 -59 -58z" />
    <glyph glyph-name="ring" unicode="&#x2da;" horiz-adv-x="440" 
d="M220 516c-58 0 -105 39 -105 100c0 59 49 100 105 100c58 0 105 -39 105 -100c0 -59 -49 -100 -105 -100zM220 562c32 0 54 22 54 54s-22 54 -54 54s-54 -22 -54 -54s22 -54 54 -54z" />
    <glyph glyph-name="cedilla" unicode="&#xb8;" horiz-adv-x="440" 
d="M215 -215c-40 0 -73 14 -95 36l29 36c14 -13 34 -23 63 -23c26 0 48 13 48 39c0 27 -21 41 -51 41c-19 0 -36 -2 -47 -7l-9 7l59 91h59l-38 -52c47 0 90 -21 90 -78c0 -59 -50 -90 -108 -90z" />
    <glyph glyph-name="hungarumlaut" unicode="&#x2dd;" horiz-adv-x="440" 
d="M66 514l-27 28l115 143l62 -66zM250 513l-26 29l115 143l62 -66z" />
    <glyph glyph-name="ogonek" unicode="&#x2db;" horiz-adv-x="440" 
d="M223 -220c-61 0 -91 35 -91 80c0 62 58 109 97 140h53c-32 -34 -86 -71 -86 -129c0 -33 18 -43 41 -43c20 0 32 8 42 21l28 -38c-20 -22 -53 -31 -84 -31z" />
    <glyph glyph-name="caron" unicode="&#x2c7;" horiz-adv-x="440" 
d="M217 520l-154 129l25 35l132 -67l132 67l25 -35l-154 -129h-6z" />
    <glyph glyph-name="zero.hgtx" horiz-adv-x="576" 
d="M288 -12c-154 0 -248 102 -248 246c0 143 96 246 248 246c154 0 248 -102 248 -246c0 -143 -96 -246 -248 -246zM288 63c92 0 153 65 153 171s-61 171 -153 171s-153 -65 -153 -171s61 -171 153 -171z" />
    <glyph glyph-name="one.hgtx" horiz-adv-x="336" 
d="M149 0v392h-102v9l17 67h175v-468h-90z" />
    <glyph glyph-name="two.hgtx" horiz-adv-x="507" 
d="M45 0l-2 9l88 81c104 94 169 167 169 232c0 48 -29 82 -96 82c-47 0 -84 -17 -116 -49l-45 59c41 42 104 66 178 66c122 0 173 -70 173 -145c0 -90 -96 -197 -178 -259v-2h239v-74h-410z" />
    <glyph glyph-name="three.hgtx" horiz-adv-x="487" 
d="M201 -200c-74 0 -136 24 -177 62l51 66c26 -28 72 -51 125 -51c97 0 143 67 143 134c0 71 -47 134 -150 134c-23 0 -40 -3 -51 -6l-5 7l173 246h-262v76h399l3 -8l-175 -252c95 -16 163 -86 163 -192c0 -122 -92 -216 -237 -216z" />
    <glyph glyph-name="four.hgtx" horiz-adv-x="597" 
d="M364 -190v190h-342l-3 8l276 460h91l3 -9l-233 -381h208v152l82 85h8v-237h133v-78h-133v-190h-90z" />
    <glyph glyph-name="five.hgtx" horiz-adv-x="523" 
d="M204 -200c-77 0 -136 24 -177 62l52 66c26 -28 70 -51 126 -51c95 0 141 65 141 141c0 75 -46 131 -152 131c-46 0 -86 -13 -113 -26l-8 6l27 339h347v-76h-266l-17 -183c25 8 51 12 78 12c123 0 199 -83 199 -202c0 -130 -90 -219 -237 -219z" />
    <glyph glyph-name="six.hgtx" horiz-adv-x="571" 
d="M291 -12c-158 0 -236 100 -236 256c0 202 130 384 263 456h130v-9c-98 -43 -241 -166 -277 -308c30 33 83 56 149 56c132 0 210 -90 210 -218c0 -129 -78 -233 -239 -233zM294 65c93 0 144 63 144 148s-51 148 -144 148s-144 -63 -144 -148s51 -148 144 -148z" />
    <glyph glyph-name="seven.hgtx" horiz-adv-x="496" 
d="M110 -190v9l253 573h-323v76h442v-9l-280 -649h-92z" />
    <glyph glyph-name="eight.hgtx" horiz-adv-x="584" 
d="M292 -12c-149 0 -238 85 -238 204c0 86 54 152 115 177c-55 27 -97 86 -97 158c0 106 79 185 220 185s220 -79 220 -185c0 -72 -42 -131 -98 -158c61 -25 116 -91 116 -177c0 -119 -89 -204 -238 -204zM292 406c76 0 124 43 124 116s-48 115 -124 115s-124 -42 -124 -115
s48 -116 124 -116zM292 65c91 0 143 55 143 134s-52 133 -143 133s-143 -54 -143 -133s52 -134 143 -134z" />
    <glyph glyph-name="nine.hgtx" horiz-adv-x="571" 
d="M153 -190v9c98 43 215 150 247 276c-30 -33 -83 -56 -144 -56c-132 0 -216 91 -216 221c0 115 79 220 240 220c158 0 237 -100 237 -251c0 -190 -108 -347 -229 -419h-135zM277 117c93 0 144 62 144 143s-51 143 -144 143s-144 -62 -144 -143s51 -143 144 -143z" />
    <glyph glyph-name="zero.lntb" horiz-adv-x="658" 
d="M329 -12c-177 0 -282 144 -282 362c0 214 107 362 282 362c177 0 281 -144 281 -362c0 -214 -107 -362 -281 -362zM329 73c114 0 180 109 180 277c0 169 -66 277 -180 277c-115 0 -181 -108 -181 -277c0 -168 66 -277 181 -277z" />
    <glyph glyph-name="one.lntb" horiz-adv-x="658" 
d="M108 0v85h179v528h-154v9l20 78h232v-615h181v-85h-458z" />
    <glyph glyph-name="two.lntb" horiz-adv-x="658" 
d="M86 0l-4 10c170 172 334 347 334 484c0 83 -52 130 -136 130c-54 0 -109 -25 -143 -57l-54 68c53 48 124 77 210 77c157 0 227 -96 227 -207c0 -147 -138 -294 -254 -420h299v-85h-479z" />
    <glyph glyph-name="three.lntb" horiz-adv-x="658" 
d="M272 -12c-84 0 -151 23 -202 72l54 69c33 -33 80 -56 149 -56c106 0 156 59 156 138c0 82 -53 137 -178 137c-12 0 -26 -1 -36 -3l-5 6l175 264h-289v85h431l7 -10l-180 -276c93 -10 177 -92 177 -205c0 -137 -105 -221 -259 -221z" />
    <glyph glyph-name="four.lntb" horiz-adv-x="658" 
d="M381 0v167h-362l-3 9l293 524h94l4 -9l-246 -439h220v167l89 71h9v-238h132v-85h-132v-167h-98z" />
    <glyph glyph-name="five.lntb" horiz-adv-x="658" 
d="M269 -12c-84 0 -156 25 -207 74l54 69c33 -33 83 -58 151 -58c104 0 169 57 169 145c0 89 -60 142 -187 142c-42 0 -88 -6 -126 -16l-8 6l42 350h358v-85h-276l-21 -184c29 7 61 10 90 10c137 0 230 -89 230 -221c0 -146 -110 -232 -269 -232z" />
    <glyph glyph-name="six.lntb" horiz-adv-x="658" 
d="M339 -12c-138 0 -256 86 -256 249c0 165 113 365 268 463h137v-10c-116 -52 -221 -170 -270 -289c32 30 83 56 149 56c136 0 228 -97 228 -229c0 -148 -114 -240 -256 -240zM340 70c91 0 154 63 154 153c0 91 -63 155 -154 155c-92 0 -155 -64 -155 -155
c0 -90 63 -153 155 -153z" />
    <glyph glyph-name="seven.lntb" horiz-adv-x="658" 
d="M168 0v9l268 606h-346v85h476v-9l-298 -691h-100z" />
    <glyph glyph-name="eight.lntb" horiz-adv-x="658" 
d="M328 -12c-169 0 -260 84 -260 204c0 84 47 142 129 176c-76 38 -109 93 -109 158c0 107 83 186 243 186c157 0 238 -78 238 -186c0 -62 -30 -118 -110 -158c83 -34 130 -91 130 -175c0 -118 -90 -205 -261 -205zM329 407c90 0 137 39 137 111s-47 112 -137 112
c-91 0 -138 -40 -138 -112s47 -111 138 -111zM329 71c107 0 157 53 157 130c0 78 -50 131 -157 131s-158 -53 -158 -131c0 -77 51 -130 158 -130z" />
    <glyph glyph-name="nine.lntb" horiz-adv-x="658" 
d="M170 0v10c116 52 221 170 270 289c-32 -30 -83 -56 -149 -56c-136 0 -228 97 -228 229c0 148 114 240 256 240c138 0 256 -86 256 -249c0 -165 -111 -365 -266 -463h-139zM318 322c92 0 155 64 155 155c0 90 -63 153 -155 153c-91 0 -154 -63 -154 -153
c0 -91 63 -155 154 -155z" />
    <glyph glyph-name="zero.hgtb" horiz-adv-x="606" 
d="M303 -12c-154 0 -248 102 -248 246c0 143 96 246 248 246c154 0 248 -102 248 -246c0 -143 -96 -246 -248 -246zM303 63c92 0 153 65 153 171s-61 171 -153 171s-153 -65 -153 -171s61 -171 153 -171z" />
    <glyph glyph-name="one.hgtb" horiz-adv-x="606" 
d="M120 0v74h148v318h-132v9l17 67h205v-394h142v-74h-380z" />
    <glyph glyph-name="two.hgtb" horiz-adv-x="606" 
d="M96 0l-2 9l88 81c104 94 169 167 169 232c0 48 -29 82 -96 82c-47 0 -84 -17 -116 -49l-45 59c41 42 104 66 178 66c122 0 173 -70 173 -145c0 -90 -96 -197 -178 -259v-2h239v-74h-410z" />
    <glyph glyph-name="three.hgtb" horiz-adv-x="606" 
d="M245 -200c-74 0 -136 24 -177 62l51 66c26 -28 72 -51 125 -51c97 0 143 67 143 134c0 71 -47 134 -150 134c-23 0 -40 -3 -51 -6l-5 7l173 246h-262v76h399l3 -8l-175 -252c95 -16 163 -86 163 -192c0 -122 -92 -216 -237 -216z" />
    <glyph glyph-name="four.hgtb" horiz-adv-x="606" 
d="M371 -190v190h-342l-3 8l276 460h91l3 -9l-233 -381h208v152l82 85h8v-237h103v-78h-103v-190h-90z" />
    <glyph glyph-name="five.hgtb" horiz-adv-x="606" 
d="M251 -200c-77 0 -136 24 -177 62l52 66c26 -28 70 -51 126 -51c95 0 141 65 141 141c0 75 -46 131 -152 131c-46 0 -86 -13 -113 -26l-8 6l27 339h347v-76h-266l-17 -183c25 8 51 12 78 12c123 0 199 -83 199 -202c0 -130 -90 -219 -237 -219z" />
    <glyph glyph-name="six.hgtb" horiz-adv-x="606" 
d="M307 -12c-158 0 -236 100 -236 256c0 202 130 384 263 456h130v-9c-98 -43 -241 -166 -277 -308c30 33 83 56 149 56c132 0 210 -90 210 -218c0 -129 -78 -233 -239 -233zM310 65c93 0 144 63 144 148s-51 148 -144 148s-144 -63 -144 -148s51 -148 144 -148z" />
    <glyph glyph-name="seven.hgtb" horiz-adv-x="606" 
d="M144 -190v9l253 573h-323v76h442v-9l-280 -649h-92z" />
    <glyph glyph-name="eight.hgtb" horiz-adv-x="606" 
d="M303 -12c-149 0 -238 85 -238 204c0 86 54 152 115 177c-55 27 -97 86 -97 158c0 106 79 185 220 185s220 -79 220 -185c0 -72 -42 -131 -98 -158c61 -25 116 -91 116 -177c0 -119 -89 -204 -238 -204zM303 406c76 0 124 43 124 116s-48 115 -124 115s-124 -42 -124 -115
s48 -116 124 -116zM303 65c91 0 143 55 143 134s-52 133 -143 133s-143 -54 -143 -133s52 -134 143 -134z" />
    <glyph glyph-name="nine.hgtb" horiz-adv-x="606" 
d="M173 -190v9c98 43 215 150 247 276c-30 -33 -83 -56 -144 -56c-132 0 -216 91 -216 221c0 115 79 220 240 220c158 0 237 -100 237 -251c0 -190 -108 -347 -229 -419h-135zM297 117c93 0 144 62 144 143s-51 143 -144 143s-144 -62 -144 -143s51 -143 144 -143z" />
    <glyph glyph-name="uni00AD" unicode="&#xad;" horiz-adv-x="346" 
d="M58 251v90h232v-90h-232z" />
    </font>
</defs>
</svg>
